<?xml version="1.0" standalone="no"?>
<!DOCTYPE svg PUBLIC "-//W3C//DTD SVG 1.1//EN" "http://www.w3.org/Graphics/SVG/1.1/DTD/svg11.dtd" >
<svg xmlns="http://www.w3.org/2000/svg" xmlns:xlink="http://www.w3.org/1999/xlink" version="1.1">
<metadata>
Created by FontForge 20170731 at Thu Sep 29 21:40:16 2022
 By Aleksey,,,
(c) 1996-2015 Typodermic Fonts Inc. See attached license agreement. If agreement is missing visit typodermicfonts.com for more info.
</metadata>
<defs>
<font id="Neuropol-Regular" horiz-adv-x="1771" >
  <font-face 
    font-family="Neuropol"
    font-weight="400"
    font-stretch="normal"
    units-per-em="2048"
    panose-1="2 15 6 7 3 2 1 1 8 4"
    ascent="1618"
    descent="-430"
    x-height="1157"
    cap-height="1493"
    bbox="-401 -430 3185 2028"
    underline-thickness="40"
    underline-position="-312"
    unicode-range="U+0017-E2B1"
  />
<missing-glyph horiz-adv-x="1712" 
d="M1235 -387h-758q-381 0 -381 240v1609q0 238 381 238h758q381 0 381 -238v-1609q0 -240 -381 -240zM608 487h281q304 0 455 92.5t151 282.5v139q0 381 -606 381h-80q-47 0 -63.5 -25.5t-16.5 -84.5t16.5 -85t63.5 -26h86q171 0 254.5 -44t83.5 -116v-139
q0 -71 -83.5 -115.5t-254.5 -44.5h-285q-53 0 -101 -8.5t-92.5 -28.5t-77 -50t-52 -77t-19.5 -106v-115q0 -54 31.5 -74t101.5 -20t102 20t32 74v89q0 48 12.5 64.5t60.5 16.5zM240 16q0 -67 37.5 -97t123.5 -30t124 30.5t38 96.5t-38 96.5t-124 30.5t-123.5 -30t-37.5 -97z
" />
    <glyph glyph-name=".notdef" horiz-adv-x="1712" 
d="M1235 -387h-758q-381 0 -381 240v1609q0 238 381 238h758q381 0 381 -238v-1609q0 -240 -381 -240zM608 487h281q304 0 455 92.5t151 282.5v139q0 381 -606 381h-80q-47 0 -63.5 -25.5t-16.5 -84.5t16.5 -85t63.5 -26h86q171 0 254.5 -44t83.5 -116v-139
q0 -71 -83.5 -115.5t-254.5 -44.5h-285q-53 0 -101 -8.5t-92.5 -28.5t-77 -50t-52 -77t-19.5 -106v-115q0 -54 31.5 -74t101.5 -20t102 20t32 74v89q0 48 12.5 64.5t60.5 16.5zM240 16q0 -67 37.5 -97t123.5 -30t124 30.5t38 96.5t-38 96.5t-124 30.5t-123.5 -30t-37.5 -97z
" />
    <glyph glyph-name=".null" horiz-adv-x="0" 
 />
    <glyph glyph-name="nonmarkingreturn" horiz-adv-x="682" 
 />
    <glyph glyph-name="uni0017" horiz-adv-x="714" 
 />
    <glyph glyph-name="space" unicode=" " horiz-adv-x="714" 
 />
    <glyph glyph-name="exclam" unicode="!" horiz-adv-x="516" 
d="M96 119q0 66 38 96.5t124 30.5t124 -30.5t38 -96.5t-38 -96.5t-124 -30.5t-124 30.5t-38 96.5zM395 1397v-975q0 -56 -32.5 -76t-104.5 -20q-71 0 -103 20t-32 76v975q0 56 32 76t103 20q72 0 104.5 -20t32.5 -76z" />
    <glyph glyph-name="quotedbl" unicode="&#x22;" horiz-adv-x="798" 
d="M326 1425v-368q0 -53 -30 -72.5t-97 -19.5q-65 0 -95 19.5t-30 72.5v368q0 53 30 73t95 20q67 0 97 -20t30 -73zM725 1425v-368q0 -53 -30 -72.5t-97 -19.5q-65 0 -95 19.5t-30 72.5v368q0 53 30 73t95 20q67 0 97 -20t30 -73z" />
    <glyph glyph-name="numbersign" unicode="#" horiz-adv-x="1787" 
d="M129 647h305l68 184h-232q-43 0 -58 24t-15 79t15 79.5t58 24.5h308l149 408q17 47 107 47q33 0 64.5 -6.5t58 -25.5t26.5 -46q0 -14 -8 -35l-125 -342h307l150 408q17 47 106 47q33 0 65 -6.5t58.5 -25.5t26.5 -46q0 -11 -9 -35l-124 -342h227q43 0 58.5 -24.5
t15.5 -79.5t-15.5 -79t-58.5 -24h-303l-68 -184h230q43 0 58 -24.5t15 -79.5t-15 -79t-58 -24h-306l-147 -401q-17 -47 -107 -47q-33 0 -64.5 6.5t-58 25.5t-26.5 46q0 13 8 34l123 336h-307l-148 -401q-17 -47 -106 -47q-33 0 -65 6.5t-58.5 25.5t-26.5 46q0 10 9 34
l122 336h-229q-43 0 -58.5 24t-15.5 79t15.5 79.5t58.5 24.5zM774 831l-67 -184h307l67 184h-307z" />
    <glyph glyph-name="dollar" unicode="$" horiz-adv-x="1822" 
d="M1051 1499v-635h98q606 0 606 -381v-61q0 -381 -606 -381h-98v-55q0 -56 -30.5 -76.5t-100.5 -20.5q-68 0 -98.5 20.5t-30.5 76.5v55h-646q-47 0 -63 25.5t-16 85.5q0 59 16 84.5t63 25.5h646v381h-119q-606 0 -606 381v39q0 381 606 381h119v55q0 56 30.5 76t98.5 20
q70 0 100.5 -20t30.5 -76zM1155 643h-104v-381h104q171 0 250.5 43.5t79.5 116.5v61q0 72 -80 116t-250 44zM336 1024q0 -72 80 -116t250 -44h125v359h-125q-171 0 -250.5 -43.5t-79.5 -116.5v-39z" />
    <glyph glyph-name="percent" unicode="%" horiz-adv-x="2582" 
d="M756 635h-328q-350 0 -350 225v397q0 228 350 228h328q350 0 350 -228v-397q0 -225 -350 -225zM752 788q85 0 128.5 20.5t43.5 51.5v397q0 32 -43 52t-129 20h-320q-86 0 -129 -20t-43 -52v-397q0 -31 43.5 -51.5t128.5 -20.5h320zM1878 1370l-1014 -1339
q-31 -39 -94 -39q-90 0 -90 63q0 21 29 62l1013 1339q29 37 95 37q46 0 68 -15t22 -48q0 -23 -29 -60zM2154 0h-327q-350 0 -350 225v398q0 227 350 227h327q351 0 351 -227v-398q0 -225 -351 -225zM2150 154q85 0 128.5 20t43.5 51v398q0 32 -43 51.5t-129 19.5h-319
q-86 0 -129 -19.5t-43 -51.5v-398q0 -31 43.5 -51t128.5 -20h319z" />
    <glyph glyph-name="ampersand" unicode="&#x26;" horiz-adv-x="2113" 
d="M1772 27l-60 34q-125 -61 -293 -61h-764q-579 0 -579 356v76q0 103 43.5 177t156.5 108l226 65l-121 74q-139 84 -139 213v107q0 147 120 228t355 81h344q268 0 388 -79.5t120 -231.5v-64q0 -108 -54.5 -171t-171.5 -101l-331 -107l639 -364v319q0 56 30.5 76t100.5 20
q68 0 98.5 -20t30.5 -76v-330q0 -59 -25 -125l127 -71q60 -35 60 -86q0 -43 -35 -62.5t-107 -19.5q-101 0 -159 35zM1356 207q56 0 102 6l-723 430l-309 -98q-45 -14 -67.5 -45.5t-22.5 -67.5v-76q0 -66 82.5 -107.5t245.5 -41.5h692zM502 1073q0 -30 21.5 -52t76.5 -54
l178 -103l449 133q42 12 62 38.5t20 76.5v62q0 52 -59.5 78t-192.5 26h-314q-59 0 -99 -5t-74.5 -19.5t-51 -43t-16.5 -71.5v-66z" />
    <glyph glyph-name="quotesingle" unicode="'" horiz-adv-x="399" 
d="M326 1425v-368q0 -53 -30 -72.5t-97 -19.5q-65 0 -95 19.5t-30 72.5v368q0 53 30 73t95 20q67 0 97 -20t30 -73z" />
    <glyph glyph-name="parenleft" unicode="(" horiz-adv-x="727" 
d="M401 2q0 -38 7 -69t16.5 -53t28.5 -41.5t34.5 -31t44.5 -24.5t47.5 -19.5t53.5 -17.5q23 -7 35.5 -14t22 -24.5t9.5 -45.5q0 -50 -28 -71t-92 -21q-173 0 -293.5 125t-120.5 307v1413q0 182 120.5 307t293.5 125q64 0 92 -21t28 -71q0 -40 -16 -56.5t-51 -27.5
t-53.5 -17.5t-47.5 -19.5t-44.5 -24.5t-34.5 -31t-28.5 -41.5t-16.5 -53t-7 -69v-1413z" />
    <glyph glyph-name="parenright" unicode=")" horiz-adv-x="727" 
d="M326 2v1413q0 38 -7 69t-16.5 53t-28.5 41.5t-34.5 31t-44.5 24.5t-47.5 19.5t-53.5 17.5q-23 7 -35.5 14t-22 24.5t-9.5 45.5q0 50 28 71t92 21q173 0 293.5 -125t120.5 -307v-1413q0 -182 -120.5 -307t-293.5 -125q-64 0 -92 21t-28 71q0 40 16 56.5t51 27.5t53.5 17.5
t47.5 19.5t44.5 24.5t34.5 31t28.5 41.5t16.5 53t7 69z" />
    <glyph glyph-name="asterisk" unicode="*" horiz-adv-x="1200" 
d="M737 866q0 -46 -28 -60.5t-109 -14.5t-109 14.5t-28 60.5q0 40 35 172l-215 -118q-25 -15 -50 -15q-42 0 -89.5 57.5t-47.5 104.5q0 28 20 49t56 27l162 28l-162 31q-36 6 -56 27t-20 49q0 47 47.5 104.5t89.5 57.5q25 0 50 -15l215 -118q-35 132 -35 172q0 46 28 60.5
t109 14.5t109 -14.5t28 -60.5q0 -40 -35 -172l216 118q25 15 49 15q42 0 89.5 -57.5t47.5 -104.5q0 -28 -20 -49t-56 -27l-162 -31l162 -28q36 -6 56 -27t20 -49q0 -47 -47.5 -104.5t-89.5 -57.5q-24 0 -49 15l-216 118q35 -132 35 -172z" />
    <glyph glyph-name="plus" unicode="+" horiz-adv-x="1247" 
d="M1083 623h-342v-340q0 -50 -27.5 -68t-90.5 -18q-62 0 -89.5 18t-27.5 68v340h-342q-50 0 -68 27.5t-18 90.5q0 62 18 89.5t68 27.5h342v344q0 50 27.5 68t89.5 18q63 0 90.5 -18t27.5 -68v-344h342q50 0 68 -27.5t18 -89.5q0 -63 -18 -90.5t-68 -27.5z" />
    <glyph glyph-name="comma" unicode="," horiz-adv-x="516" 
d="M416 231l-56 -342q-7 -47 -38.5 -64.5t-102.5 -17.5q-70 0 -101.5 16.5t-31.5 57.5q0 16 8 66l53 329q7 47 38.5 64.5t103.5 17.5t101.5 -17t29.5 -62q0 -20 -4 -48z" />
    <glyph glyph-name="hyphen" unicode="-" horiz-adv-x="966" 
d="M98 836h770q43 0 58.5 -25t15.5 -80q0 -54 -15 -78t-59 -24h-770q-43 0 -58 23.5t-15 78.5t15 80t58 25z" />
    <glyph glyph-name="period" unicode="." horiz-adv-x="516" 
d="M96 119q0 66 38 96.5t124 30.5t124 -30.5t38 -96.5t-38 -96.5t-124 -30.5t-124 30.5t-38 96.5z" />
    <glyph glyph-name="slash" unicode="/" horiz-adv-x="1705" 
d="M1667 1595l-1415 -1880q-23 -28 -52 -39.5t-75 -11.5q-125 0 -125 86q0 32 39 84l1415 1880q23 28 52 39.5t75 11.5q125 0 125 -86q0 -32 -39 -84z" />
    <glyph glyph-name="zero" unicode="0" horiz-adv-x="1964" 
d="M1280 0h-596q-606 0 -606 381v723q0 381 606 381h596q606 0 606 -381v-723q0 -381 -606 -381zM1272 221q171 0 257.5 44.5t86.5 115.5v723q0 72 -86 116t-258 44h-580q-172 0 -258 -44t-86 -116v-723q0 -71 86.5 -115.5t257.5 -44.5h580z" />
    <glyph glyph-name="one" unicode="1" horiz-adv-x="464" 
d="M369 1397v-1309q0 -56 -33 -76t-105 -20q-71 0 -103 20t-32 76v1309q0 56 32 76t103 20q72 0 105 -20t33 -76z" />
    <glyph glyph-name="two" unicode="2" horiz-adv-x="2084" 
d="M1391 623h-705q-170 0 -250 -44t-80 -116v-242h1561q47 0 63.5 -25.5t16.5 -84.5t-16.5 -85t-63.5 -26h-1735q-50 0 -73 24t-23 76v363q0 381 606 381h705q170 0 249.5 44t79.5 116v100q0 73 -79.5 116.5t-249.5 43.5h-318q-47 0 -63.5 25.5t-16.5 84.5t16.5 85t63.5 26
h312q606 0 606 -381v-100q0 -381 -606 -381z" />
    <glyph glyph-name="three" unicode="3" horiz-adv-x="2045" 
d="M1718 416q0 84 -24.5 128.5t-98 67.5t-215.5 23h-1216q-47 0 -63.5 25.5t-16.5 84.5t16.5 85t63.5 26h1231q190 0 255.5 39.5t65.5 165.5q0 76 -23.5 117.5t-91.5 63.5t-196 22h-309q-47 0 -63.5 25.5t-16.5 84.5t16.5 85t63.5 26h280q113 0 200 -11.5t165 -40.5
t128.5 -76.5t79.5 -122.5t29 -175q0 -114 -42 -192t-146 -130q101 -38 154 -111t53 -202q0 -85 -23 -152.5t-66.5 -113t-98 -77.5t-125.5 -49t-140.5 -24.5t-150.5 -7.5h-1231q-47 0 -63.5 26t-16.5 85t16.5 84.5t63.5 25.5h1247q101 0 162.5 10.5t93.5 36.5t42.5 59
t10.5 89z" />
    <glyph glyph-name="four" unicode="4" horiz-adv-x="2205" 
d="M358 1397v-783h1479v783q0 56 32.5 76t104.5 20q71 0 103 -20t32 -76v-1309q0 -56 -32 -76t-103 -20q-72 0 -104.5 20t-32.5 76v305h-1651q-45 0 -72.5 21t-27.5 63v920q0 56 32 76t103 20q72 0 104.5 -20t32.5 -76z" />
    <glyph glyph-name="five" unicode="5" horiz-adv-x="2091" 
d="M365 979h1065q606 0 606 -381v-217q0 -381 -606 -381h-1262q-47 0 -63.5 26t-16.5 85t16.5 84.5t63.5 25.5h1268q170 0 249.5 43.5t79.5 116.5v217q0 72 -79.5 116t-249.5 44h-1248q-43 0 -68.5 23.5t-25.5 64.5v538q0 52 23 76.5t73 24.5h904q47 0 63.5 -26t16.5 -85
t-16.5 -84.5t-63.5 -25.5h-729v-285z" />
    <glyph glyph-name="six" unicode="6" horiz-adv-x="2119" 
d="M1454 0h-770q-606 0 -606 381v723q0 381 606 381h369q47 0 63.5 -26t16.5 -85t-16.5 -84.5t-63.5 -25.5h-361q-172 0 -258 -44t-86 -116v-121h1106q606 0 606 -381v-221q0 -381 -606 -381zM1446 221q171 0 257.5 44.5t86.5 115.5v221q0 72 -86 116t-258 44h-1098v-381
q0 -71 86.5 -115.5t257.5 -44.5h754z" />
    <glyph glyph-name="seven" unicode="7" horiz-adv-x="1980" 
d="M117 1485h1601q115 0 170.5 -31t55.5 -111q0 -52 -41 -98l-1031 -1198q-27 -31 -59 -43t-80 -12q-67 0 -98 20.5t-31 63.5q0 44 49 100l940 1088h-1476q-47 0 -63.5 25.5t-16.5 84.5t16.5 85t63.5 26z" />
    <glyph glyph-name="eight" unicode="8" horiz-adv-x="1951" 
d="M1298 0h-645q-81 0 -150.5 7.5t-140.5 24.5t-125.5 49t-98 77.5t-66.5 113t-23 152.5q0 129 53 202t154 111q-104 52 -146 130t-42 192q0 100 29 175t79.5 122.5t128.5 76.5t165 40.5t200 11.5h612q113 0 200 -11.5t165 -40.5t128.5 -76.5t79.5 -122.5t29 -175
q0 -114 -42 -192t-146 -130q101 -38 154 -111t53 -202q0 -101 -34.5 -178t-90.5 -123t-137 -74.5t-163 -38.5t-180 -10zM328 416q0 -56 10.5 -89t42.5 -59t93.5 -36.5t162.5 -10.5h678q101 0 162.5 10.5t93.5 36.5t42.5 59t10.5 89q0 84 -24.5 128.5t-98 67.5t-215.5 23
h-620q-142 0 -215.5 -23t-98 -67.5t-24.5 -128.5zM1311 1264h-670q-128 0 -196 -22t-91.5 -63.5t-23.5 -117.5q0 -126 65.5 -165.5t255.5 -39.5h649q190 0 256 39.5t66 165.5q0 76 -23.5 117.5t-91.5 63.5t-196 22z" />
    <glyph glyph-name="nine" unicode="9" horiz-adv-x="1998" 
d="M666 1485h649q606 0 606 -381v-723q0 -381 -606 -381h-291q-47 0 -63.5 26t-16.5 85t16.5 84.5t63.5 25.5h283q172 0 258 44t86 116v121h-985q-607 0 -607 381v221q0 381 607 381zM1307 1264h-633q-171 0 -257.5 -44.5t-86.5 -115.5v-221q0 -72 86 -116t258 -44h977v381
q0 71 -86.5 115.5t-257.5 44.5z" />
    <glyph glyph-name="colon" unicode=":" horiz-adv-x="577" 
d="M129 119q0 66 38 96.5t124 30.5t124 -30.5t38 -96.5t-38 -96.5t-124 -30.5t-124 30.5t-38 96.5zM129 707q0 66 38 96.5t124 30.5t124 -30.5t38 -96.5t-38 -96.5t-124 -30.5t-124 30.5t-38 96.5z" />
    <glyph glyph-name="semicolon" unicode=";" horiz-adv-x="577" 
d="M129 707q0 66 38 96.5t124 30.5t124 -30.5t38 -96.5t-38 -96.5t-124 -30.5t-124 30.5t-38 96.5zM408 231l-56 -342q-7 -47 -38.5 -64.5t-102.5 -17.5q-70 0 -101.5 16.5t-31.5 57.5q0 16 8 66l53 329q7 47 38.5 64.5t103.5 17.5t101.5 -17t29.5 -62q0 -20 -4 -48z" />
    <glyph glyph-name="less" unicode="&#x3c;" horiz-adv-x="1247" 
d="M76 748q0 51 14 74.5t43 35.5l752 326q60 26 151 26q67 0 98 -20t31 -68q0 -64 -61 -88l-713 -286l713 -287q61 -24 61 -88q0 -48 -31 -68t-98 -20q-91 0 -151 26l-752 326q-29 12 -43 35.5t-14 75.5z" />
    <glyph glyph-name="equal" unicode="=" horiz-adv-x="1247" 
d="M1083 336h-919q-50 0 -68 27.5t-18 91.5q0 62 18 89t68 27h919q50 0 68 -27t18 -89q0 -64 -18 -91.5t-68 -27.5zM1083 909h-919q-50 0 -68 27.5t-18 91.5q0 62 18 89.5t68 27.5h919q50 0 68 -27.5t18 -89.5q0 -64 -18 -91.5t-68 -27.5z" />
    <glyph glyph-name="greater" unicode="&#x3e;" horiz-adv-x="1247" 
d="M1165 748q0 -52 -14 -75.5t-43 -35.5l-752 -326q-60 -26 -151 -26q-67 0 -98 20t-31 68q0 64 61 88l713 287l-713 286q-61 24 -61 88q0 48 31 68t98 20q91 0 151 -26l752 -326q29 -12 43 -35.5t14 -74.5z" />
    <glyph glyph-name="question" unicode="?" horiz-adv-x="1374" 
d="M709 590h-281q-48 0 -61 -17t-13 -65v-88q0 -54 -31.5 -74t-101.5 -20t-101.5 20t-31.5 74v115q0 59 19.5 106t52 77t77 50t92.5 28.5t101 8.5h285q171 0 254.5 44.5t83.5 115.5v139q0 72 -83.5 116t-254.5 44h-86q-47 0 -63.5 25.5t-16.5 84.5t16.5 85t63.5 26h80
q606 0 606 -381v-139q0 -190 -151 -282.5t-455 -92.5zM59 119q0 66 38 96.5t124 30.5t124 -30.5t38 -96.5t-38 -96.5t-124 -30.5t-124 30.5t-38 96.5z" />
    <glyph glyph-name="at" unicode="@" horiz-adv-x="1630" 
d="M1122 82h-213q-196 0 -305.5 70t-109.5 204v187q0 274 473 274h372v158q0 53 -74.5 87t-215.5 34h-467q-142 0 -211.5 -33t-69.5 -88v-1022q0 -54 70 -87.5t211 -33.5h878q36 0 49 -20t13 -64q0 -43 -13 -63.5t-49 -20.5h-885q-497 0 -497 289v1022q0 289 497 289h480
q245 0 371 -75t126 -214v-619q0 -135 -112.5 -204.5t-317.5 -69.5zM1339 657h-364q-134 0 -201 -31.5t-67 -82.5v-187q0 -48 56 -81t146 -33h213q100 0 158.5 32.5t58.5 81.5v301z" />
    <glyph glyph-name="A" unicode="A" horiz-adv-x="2131" 
d="M1040 1491q107 0 160 -72l893 -1274q14 -22 14 -47q0 -44 -47 -76t-102 -32q-62 0 -90 41l-242 352h-1139l-227 -352q-25 -41 -88 -41q-54 0 -100.5 32.5t-46.5 77.5q0 20 14 45l840 1274q50 72 161 72zM1040 1241l-411 -637h846z" />
    <glyph glyph-name="B" unicode="B" horiz-adv-x="2000" 
d="M1952 424q0 -85 -23 -152.5t-66.5 -113t-98 -77.5t-125.5 -49t-140.5 -24.5t-150.5 -7.5h-1158q-94 0 -94 96v1295q0 94 94 94h1141q113 0 200 -11.5t165 -40.5t128.5 -76.5t79.5 -122.5t29 -175q0 -114 -42 -192t-146 -130q101 -38 154 -111t53 -202zM375 1264v-408h975
q190 0 255.5 39.5t65.5 165.5q0 76 -23.5 117.5t-91.5 63.5t-196 22h-985zM1673 416q0 84 -24.5 128t-97.5 66.5t-216 22.5h-966v-412h995q101 0 162.5 10.5t93.5 36.5t42.5 59t10.5 89z" />
    <glyph glyph-name="C" unicode="C" horiz-adv-x="1835" 
d="M1690 0h-1006q-606 0 -606 381v723q0 381 606 381h1004q47 0 63 -25.5t16 -85.5q0 -59 -16 -84.5t-63 -25.5h-996q-172 0 -258 -44t-86 -116v-723q0 -71 86.5 -115.5t257.5 -44.5h998q47 0 62 -25t15 -85q0 -59 -15 -85t-62 -26z" />
    <glyph glyph-name="D" unicode="D" horiz-adv-x="2035" 
d="M1958 1104v-723q0 -381 -606 -381h-1162q-94 0 -94 96v1295q0 94 94 94h1162q606 0 606 -381zM369 1264v-1043h974q172 0 259.5 45t87.5 115v723q0 71 -87.5 115.5t-259.5 44.5h-974z" />
    <glyph glyph-name="E" unicode="E" horiz-adv-x="1826" 
d="M1677 621h-1329v-240q0 -71 86.5 -115.5t257.5 -44.5h979q47 0 63.5 -25.5t16.5 -84.5q0 -58 -16.5 -84.5t-63.5 -26.5h-987q-606 0 -606 381v723q0 381 606 381h305q45 0 61.5 -26t16.5 -85t-16.5 -84.5t-61.5 -25.5h-297q-172 0 -258 -44t-86 -116v-262h1329
q47 0 63.5 -26t16.5 -85t-16.5 -84.5t-63.5 -25.5z" />
    <glyph glyph-name="F" unicode="F" horiz-adv-x="1792" 
d="M694 1485h224q47 0 62 -25.5t15 -85.5t-15 -85t-62 -25h-216q-172 0 -257 -44t-85 -116v-262h1328q47 0 63 -25.5t16 -85.5q0 -59 -16 -84.5t-63 -25.5h-1328v-533q0 -56 -32.5 -76t-104.5 -20q-71 0 -103 20t-32 76v1016q0 381 606 381z" />
    <glyph glyph-name="G" unicode="G" horiz-adv-x="1986" 
d="M1913 745v-364q0 -381 -608 -381h-621q-606 0 -606 381v723q0 381 606 381h289q47 0 63.5 -26t16.5 -85t-16.5 -84.5t-63.5 -25.5h-281q-172 0 -258 -44t-86 -116v-723q0 -71 86.5 -115.5t257.5 -44.5h604q171 0 256.5 44.5t85.5 115.5v364q0 57 32 77t104 20
q73 0 106 -20t33 -77z" />
    <glyph glyph-name="H" unicode="H" horiz-adv-x="2056" 
d="M369 1397v-555h1319v555q0 56 32.5 76t104.5 20q71 0 103 -20t32 -76v-1309q0 -56 -32 -76t-103 -20q-72 0 -104.5 20t-32.5 76v533h-1319v-533q0 -56 -33 -76t-105 -20q-71 0 -103 20t-32 76v1309q0 56 32 76t103 20q72 0 105 -20t33 -76z" />
    <glyph glyph-name="I" unicode="I" horiz-adv-x="464" 
d="M369 1397v-1309q0 -56 -33 -76t-105 -20q-71 0 -103 20t-32 76v1309q0 56 32 76t103 20q72 0 105 -20t33 -76z" />
    <glyph glyph-name="J" unicode="J" horiz-adv-x="944" 
d="M248 0h-146q-47 0 -62 26t-15 87q0 59 15 83.5t62 24.5h140q171 0 256.5 44.5t85.5 115.5v1016q0 56 32.5 76t104.5 20q71 0 103 -20t32 -76v-1016q0 -381 -608 -381z" />
    <glyph glyph-name="K" unicode="K" horiz-adv-x="1800" 
d="M369 1397v-514l1079 581q31 16 65.5 22.5t100.5 6.5q47 0 78.5 -24.5t31.5 -69.5q0 -61 -65 -94l-1094 -551l1131 -574q65 -33 65 -94q0 -45 -31.5 -69.5t-78.5 -24.5q-67 0 -101 6t-65 22l-1116 592v-524q0 -56 -33 -76t-105 -20q-71 0 -103 20t-32 76v1309q0 56 32 76
t103 20q72 0 105 -20t33 -76z" />
    <glyph glyph-name="L" unicode="L" horiz-adv-x="1808" 
d="M1706 0h-1012q-606 0 -606 381v1016q0 56 32 76t103 20q72 0 104.5 -20t32.5 -76v-1016q0 -71 85.5 -115.5t256.5 -44.5h1004q47 0 62.5 -25t15.5 -83q0 -60 -15.5 -86.5t-62.5 -26.5z" />
    <glyph glyph-name="M" unicode="M" horiz-adv-x="2709" 
d="M1350 272l950 1137q61 72 162 72q151 0 151 -140v-1253q0 -56 -32.5 -76t-104.5 -20t-104.5 20t-32.5 76v971l-817 -989q-36 -42 -72.5 -60t-89.5 -18q-109 0 -172 78l-819 989v-971q0 -56 -33 -76t-105 -20q-71 0 -103 20t-32 76v1253q0 140 150 140q99 0 162 -72z" />
    <glyph glyph-name="N" unicode="N" horiz-adv-x="2041" 
d="M1804 -8q-54 0 -80 11.5t-82 57.5l-1273 1074v-1047q0 -56 -33 -76t-105 -20q-71 0 -103 20t-32 76v1309q0 55 31 75.5t98 20.5q64 0 103 -16.5t90 -59.5l1255 -1069v1049q0 56 32 76t103 20q72 0 105 -20t33 -76v-1309q0 -57 -33 -76.5t-109 -19.5z" />
    <glyph glyph-name="O" unicode="O" horiz-adv-x="1964" 
d="M1280 0h-596q-606 0 -606 381v723q0 381 606 381h596q606 0 606 -381v-723q0 -381 -606 -381zM1272 221q171 0 257.5 44.5t86.5 115.5v723q0 72 -86 116t-258 44h-580q-172 0 -258 -44t-86 -116v-723q0 -71 86.5 -115.5t257.5 -44.5h580z" />
    <glyph glyph-name="P" unicode="P" horiz-adv-x="2015" 
d="M96 1391q0 94 97 94h1161q277 0 439.5 -90.5t162.5 -241.5v-297q0 -151 -162.5 -241.5t-439.5 -90.5h-985v-436q0 -56 -33 -76t-105 -20q-71 0 -103 20t-32 76v1303zM1329 1264h-960v-519h960q357 0 357 132v256q0 131 -357 131z" />
    <glyph glyph-name="Q" unicode="Q" horiz-adv-x="2004" 
d="M1927 387q0 -234 -250 -326l131 -69q66 -37 66 -96q0 -93 -139 -93q-81 0 -138 29l-309 174h-604q-606 0 -606 381v717q0 381 606 381h637q606 0 606 -381v-717zM1313 221q344 0 344 160v723q0 72 -86 116t-258 44h-621q-172 0 -258 -44t-86 -116v-723q0 -71 86.5 -115.5
t257.5 -44.5h621z" />
    <glyph glyph-name="R" unicode="R" horiz-adv-x="2017" 
d="M96 1391q0 94 97 94h1150q277 0 440 -90.5t163 -241.5v-258q0 -151 -163 -241.5t-440 -90.5h-81q-306 0 -447 8v-4q13 -5 87 -31.5t171 -63.5t236 -93l493 -199q66 -25 66 -92q0 -53 -34 -74.5t-105 -21.5q-114 0 -162 28l-1198 519v-451q0 -56 -33 -76t-105 -20
q-71 0 -103 20t-32 76v1303zM1319 1264h-950v-484h950q134 0 215.5 18t111 45.5t29.5 67.5v222q0 40 -29.5 67.5t-111 45.5t-215.5 18z" />
    <glyph glyph-name="S" unicode="S" horiz-adv-x="1816" 
d="M1159 643h-483q-606 0 -606 381v80q0 381 606 381h205q47 0 63.5 -26t16.5 -85t-16.5 -84.5t-63.5 -25.5h-211q-171 0 -250.5 -43.5t-79.5 -116.5v-80q0 -72 80 -116t250 -44h483q606 0 606 -381v-102q0 -381 -606 -381h-1003q-47 0 -63.5 26t-16.5 85t16.5 84.5
t63.5 25.5h1009q171 0 250.5 43.5t79.5 116.5v102q0 72 -80 116t-250 44z" />
    <glyph glyph-name="T" unicode="T" horiz-adv-x="1716" 
d="M1612 1264h-619v-1176q0 -56 -32.5 -76t-104.5 -20q-71 0 -103 20t-32 76v1176h-617q-47 0 -63 25.5t-16 84.5q0 60 16 85.5t63 25.5h1508q47 0 63.5 -26t16.5 -85t-16.5 -84.5t-63.5 -25.5z" />
    <glyph glyph-name="U" unicode="U" horiz-adv-x="2019" 
d="M1325 0h-631q-606 0 -606 381v1016q0 56 32 76t103 20q72 0 104.5 -20t32.5 -76v-1016q0 -71 85.5 -115.5t256.5 -44.5h615q171 0 256.5 44.5t85.5 115.5v1016q0 56 32.5 76t104.5 20q71 0 103 -20t32 -76v-1016q0 -381 -606 -381z" />
    <glyph glyph-name="V" unicode="V" horiz-adv-x="2195" 
d="M1102 -8q-110 0 -160 71l-901 1274q-16 26 -16 47q0 43 50.5 76t106.5 33q71 0 99 -43l827 -1190l819 1190q27 43 90 43q56 0 105 -33t49 -78q0 -25 -17 -45l-890 -1274q-50 -71 -162 -71z" />
    <glyph glyph-name="W" unicode="W" horiz-adv-x="2848" 
d="M1417 1133l-485 -1053q-40 -88 -158 -88q-127 0 -168 94l-569 1264q-12 24 -12 47q0 44 41.5 70t107.5 26q90 0 117 -61l479 -1125l498 1084q28 60 60.5 81t94.5 21q63 0 92 -21t56 -81l495 -1084l492 1125q27 61 117 61q66 0 107.5 -26t41.5 -70q0 -23 -12 -47
l-582 -1264q-43 -94 -168 -94q-119 0 -161 88z" />
    <glyph glyph-name="X" unicode="X" horiz-adv-x="1943" 
d="M322 1448l659 -555l647 555q26 21 56 29t81 8q28 0 48 -2.5t40.5 -10.5t31.5 -26t11 -45t-13 -46.5t-52 -54.5l-662 -565l668 -559q41 -35 54.5 -54t13.5 -46q0 -51 -34 -67.5t-102 -16.5q-46 0 -73 7.5t-54 29.5l-675 565l-660 -565q-26 -22 -55.5 -29.5t-77.5 -7.5
q-30 0 -50.5 2.5t-41.5 10.5t-32 26t-11 45t13 46t52 54l674 576l-651 548q-41 35 -54.5 54.5t-13.5 46.5q0 50 33.5 67t100.5 17q48 0 76.5 -8t52.5 -29z" />
    <glyph glyph-name="Y" unicode="Y" horiz-adv-x="1882" 
d="M805 614l-739 715q-43 40 -43 82q0 35 37 58.5t110 23.5q43 0 67.5 -9t47.5 -30l657 -639l655 639q39 39 115 39q73 0 110.5 -23t37.5 -59q0 -42 -43 -82l-740 -715v-526q0 -56 -32.5 -76t-104.5 -20q-71 0 -103 20t-32 76v526z" />
    <glyph glyph-name="Z" unicode="Z" horiz-adv-x="1818" 
d="M1645 0h-1383q-115 0 -170 30.5t-55 110.5q0 60 43 97l1380 1210q42 37 142 37q26 0 45.5 -2.5t39.5 -10.5t31 -26t11 -45q0 -29 -13.5 -48t-52.5 -53l-1253 -1079h1235q47 0 63 -25.5t16 -84.5q0 -60 -16 -85.5t-63 -25.5z" />
    <glyph glyph-name="bracketleft" unicode="[" horiz-adv-x="727" 
d="M616 -430h-317q-52 0 -76 26t-24 80v2065q0 54 24 80t76 26h317q40 0 54 -22t14 -72q0 -49 -13.5 -70.5t-54.5 -21.5h-182v-1905h182q41 0 54.5 -21.5t13.5 -70.5q0 -50 -14 -72t-54 -22z" />
    <glyph glyph-name="backslash" unicode="\" horiz-adv-x="1705" 
d="M1454 -285l-1415 1880q-39 52 -39 84q0 86 125 86q46 0 75 -11.5t52 -39.5l1415 -1880q39 -52 39 -84q0 -86 -125 -86q-46 0 -75 11.5t-52 39.5z" />
    <glyph glyph-name="bracketright" unicode="]" horiz-adv-x="727" 
d="M428 -430h-317q-40 0 -54 22t-14 72q0 49 13.5 70.5t54.5 21.5h182v1905h-182q-41 0 -54.5 21.5t-13.5 70.5q0 50 14 72t54 22h317q52 0 76 -26t24 -80v-2065q0 -54 -24 -80t-76 -26z" />
    <glyph glyph-name="asciicircum" unicode="^" horiz-adv-x="1247" 
d="M623 1233l-291 -672q-20 -47 -111 -47q-63 0 -102 20t-39 54q0 18 12 39l377 792q36 74 154 74q117 0 153 -74l377 -792q12 -21 12 -39q0 -34 -39 -54t-102 -20q-91 0 -111 47z" />
    <glyph glyph-name="underscore" unicode="_" horiz-adv-x="1824" 
d="M1745 -377h-1665q-47 0 -63.5 26t-16.5 85t16.5 84.5t63.5 25.5h1665q47 0 63.5 -25.5t16.5 -84.5t-16.5 -85t-63.5 -26z" />
    <glyph glyph-name="grave" unicode="`" horiz-adv-x="888" 
d="M555 1300l-416 226q-61 33 -61 86q0 42 29 65t73 23q98 0 154 -27l416 -225q61 -33 61 -88q0 -41 -29 -63.5t-73 -22.5q-101 0 -154 26z" />
    <glyph glyph-name="a" unicode="a" horiz-adv-x="1859" 
d="M1202 0h-557q-579 0 -579 356v109q0 356 579 356h877v2q0 127 -328 127h-193q-44 0 -59.5 24.5t-15.5 78.5q0 56 15.5 80t59.5 24h201q580 0 580 -356v-445q0 -356 -580 -356zM1194 207q163 0 245.5 41.5t82.5 107.5v267h-869q-164 0 -245.5 -41.5t-81.5 -108.5v-117
q0 -66 82 -107.5t245 -41.5h541z" />
    <glyph glyph-name="b" unicode="b" horiz-adv-x="1806" 
d="M348 1397v-240h801q580 0 580 -356v-445q0 -356 -580 -356h-481q-580 0 -580 356v1041q0 56 30.5 76t98.5 20q70 0 100.5 -20t30.5 -76zM1141 950h-793v-594q0 -66 82.5 -107.5t245.5 -41.5h465q163 0 245 41.5t82 107.5v445q0 67 -81.5 108t-245.5 41z" />
    <glyph glyph-name="c" unicode="c" horiz-adv-x="1828" 
d="M1688 0h-1031q-579 0 -579 356v445q0 356 579 356h1024q44 0 60 -24.5t16 -79.5q0 -54 -16 -78.5t-60 -24.5h-1015q-164 0 -246 -41t-82 -108v-445q0 -66 82.5 -107.5t245.5 -41.5h1022q43 0 58 -24t15 -79t-15 -79.5t-58 -24.5z" />
    <glyph glyph-name="d" unicode="d" horiz-adv-x="1816" 
d="M1468 1157v240q0 56 30.5 76t100.5 20q69 0 99.5 -20t30.5 -76v-1041q0 -356 -580 -356h-492q-579 0 -579 356v445q0 356 579 356h811zM1468 950h-802q-164 0 -246 -41t-82 -108v-445q0 -66 82.5 -107.5t245.5 -41.5h475q163 0 245 41.5t82 107.5v594z" />
    <glyph glyph-name="e" unicode="e" 
d="M1587 461h-1249v-105q0 -66 82.5 -107.5t245.5 -41.5h235q43 0 58.5 -24t15.5 -79t-15.5 -79.5t-58.5 -24.5h-244q-579 0 -579 356v445q0 356 579 356h473q304 0 442 -87t138 -269v-236q0 -62 -23.5 -83t-99.5 -21zM338 801v-137h1112v137q0 149 -328 149h-456
q-164 0 -246 -41t-82 -108z" />
    <glyph glyph-name="f" unicode="f" horiz-adv-x="901" 
d="M618 1485h148q43 0 58.5 -25t15.5 -80q0 -54 -15 -78t-59 -24h-148q-134 0 -196.5 -30t-71.5 -91h416q43 0 58.5 -24.5t15.5 -79.5t-15.5 -79t-58.5 -24h-418v-862q0 -56 -30.5 -76t-100.5 -20q-68 0 -98.5 20t-30.5 76v1042q0 176 136 265.5t394 89.5z" />
    <glyph glyph-name="g" unicode="g" horiz-adv-x="1794" 
d="M1176 -336h-283q-43 0 -58.5 25t-15.5 80q0 54 15 78t59 24h283q147 0 208.5 36.5t61.5 110.5v11h-789q-579 0 -579 356v416q0 356 579 356h469q580 0 580 -356v-783q0 -176 -135.5 -265t-394.5 -89zM666 231h780v570q0 66 -82.5 107.5t-245.5 41.5h-452
q-163 0 -245.5 -41.5t-82.5 -107.5v-420q0 -67 82 -108.5t246 -41.5z" />
    <glyph glyph-name="h" unicode="h" horiz-adv-x="1810" 
d="M225 -8q-68 0 -98.5 20t-30.5 76v1309q0 56 30.5 76t98.5 20q70 0 100.5 -20t30.5 -76v-240h787q579 0 579 -356v-713q0 -56 -30.5 -76t-100.5 -20q-68 0 -98.5 20t-30.5 76v713q0 67 -81.5 108t-245.5 41h-779v-862q0 -56 -30.5 -76t-100.5 -20z" />
    <glyph glyph-name="i" unicode="i" horiz-adv-x="452" 
d="M356 1055v-967q0 -56 -30.5 -76t-100.5 -20q-68 0 -98.5 20t-30.5 76v967q0 56 30.5 76t98.5 20q70 0 100.5 -20t30.5 -76zM63 1366q0 66 38 96.5t124 30.5t124 -30.5t38 -96.5t-38 -96.5t-124 -30.5t-124 30.5t-38 96.5z" />
    <glyph glyph-name="j" unicode="j" horiz-adv-x="573" 
d="M184 1366q0 66 38 96.5t124 30.5t124 -30.5t38 -96.5t-38 -96.5t-124 -30.5t-124 30.5t-38 96.5zM-53 -336h-168q-43 0 -58.5 25t-15.5 80q0 54 15 78t59 24h168q147 0 208.5 36.5t61.5 110.5v1037q0 56 30.5 76t100.5 20q68 0 98.5 -20t30.5 -76v-1037
q0 -176 -135.5 -265t-394.5 -89z" />
    <glyph glyph-name="k" unicode="k" horiz-adv-x="1509" 
d="M356 1397v-697l840 443q43 22 158 22q44 0 72 -19t28 -56q0 -46 -57 -74l-824 -432l838 -424q59 -30 59 -86q0 -44 -35 -63t-108 -19q-99 0 -158 31l-813 430v-365q0 -56 -30.5 -76t-100.5 -20q-68 0 -98.5 20t-30.5 76v1309q0 56 30.5 76t98.5 20q70 0 100.5 -20
t30.5 -76z" />
    <glyph glyph-name="l" unicode="l" horiz-adv-x="452" 
d="M356 1397v-1309q0 -56 -30.5 -76t-100.5 -20q-68 0 -98.5 20t-30.5 76v1309q0 56 30.5 76t98.5 20q70 0 100.5 -20t30.5 -76z" />
    <glyph glyph-name="m" unicode="m" horiz-adv-x="2402" 
d="M2185 -8q-70 0 -100.5 20t-30.5 76v713q0 68 -74.5 108.5t-236.5 40.5h-115q-297 0 -297 -149v-713q0 -56 -30.5 -76t-100.5 -20q-71 0 -100 21t-29 75v713q0 149 -297 149h-115q-162 0 -236.5 -40.5t-74.5 -108.5v-713q0 -56 -30.5 -76t-100.5 -20q-68 0 -98.5 20
t-30.5 76v713q0 177 136.5 266.5t389.5 89.5h203q260 0 383 -102q126 102 385 102h203q253 0 389.5 -89.5t136.5 -266.5v-713q0 -56 -30.5 -76t-98.5 -20z" />
    <glyph glyph-name="n" unicode="n" horiz-adv-x="1781" 
d="M217 -8q-68 0 -98.5 20t-30.5 76v713q0 356 580 356h446q580 0 580 -356v-713q0 -56 -30.5 -76t-100.5 -20q-68 0 -98.5 20t-30.5 76v713q0 67 -82 108t-246 41h-430q-164 0 -246 -41t-82 -108v-713q0 -56 -30.5 -76t-100.5 -20z" />
    <glyph glyph-name="o" unicode="o" horiz-adv-x="1761" 
d="M78 801q0 356 579 356h447q579 0 579 -356v-445q0 -356 -579 -356h-447q-579 0 -579 356v445zM1423 356v445q0 67 -81.5 108t-245.5 41h-430q-164 0 -246 -41t-82 -108v-445q0 -66 82.5 -107.5t245.5 -41.5h430q163 0 245 41.5t82 107.5z" />
    <glyph glyph-name="p" unicode="p" horiz-adv-x="1816" 
d="M348 0v-248q0 -56 -30.5 -76t-100.5 -20q-68 0 -98.5 20t-30.5 76v1049q0 356 580 356h491q580 0 580 -356v-445q0 -356 -580 -356h-811zM348 207h803q164 0 246 41t82 108v445q0 66 -82.5 107.5t-245.5 41.5h-475q-163 0 -245.5 -41.5t-82.5 -107.5v-594z" />
    <glyph glyph-name="q" unicode="q" horiz-adv-x="1794" 
d="M1446 -248v248h-789q-579 0 -579 356v445q0 356 579 356h469q580 0 580 -356v-1049q0 -56 -30.5 -76t-98.5 -20q-70 0 -100.5 20t-30.5 76zM666 207h780v594q0 66 -82.5 107.5t-245.5 41.5h-452q-163 0 -245.5 -41.5t-82.5 -107.5v-445q0 -67 82 -108t246 -41z" />
    <glyph glyph-name="r" unicode="r" horiz-adv-x="897" 
d="M618 1157h160q43 0 58.5 -24.5t15.5 -79.5t-15.5 -79t-58.5 -24h-160q-147 0 -208.5 -36.5t-61.5 -110.5v-715q0 -56 -30.5 -76t-100.5 -20q-68 0 -98.5 20t-30.5 76v715q0 176 135.5 265t394.5 89z" />
    <glyph glyph-name="s" unicode="s" horiz-adv-x="1615" 
d="M70 791v59q0 145 125.5 226t361.5 81h281q44 0 59.5 -24t15.5 -80q0 -54 -15.5 -78.5t-59.5 -24.5h-283q-113 0 -170 -27t-57 -75v-53q0 -49 59 -77t178 -28h453q541 0 541 -311v-66q0 -313 -580 -313h-829q-44 0 -60 24.5t-16 79.5q0 54 16 78.5t60 24.5h868
q156 0 217 25.5t61 76.5v74q0 51 -60 77.5t-210 26.5h-459q-243 0 -370 80t-127 224z" />
    <glyph glyph-name="t" unicode="t" horiz-adv-x="1005" 
d="M98 1157h117v240q0 56 30.5 76t98.5 20q70 0 100.5 -20t30.5 -76v-240h432q43 0 58.5 -24.5t15.5 -79.5t-15.5 -79t-58.5 -24h-432v-862q0 -56 -30.5 -76t-100.5 -20q-68 0 -98.5 20t-30.5 76v862h-117q-43 0 -58 24t-15 79t15 79.5t58 24.5z" />
    <glyph glyph-name="u" unicode="u" horiz-adv-x="1824" 
d="M1608 1165q68 0 98.5 -20t30.5 -76v-713q0 -356 -580 -356h-489q-580 0 -580 356v713q0 56 30.5 76t100.5 20q68 0 98.5 -20t30.5 -76v-713q0 -67 82 -108t246 -41h473q164 0 246 41t82 108v713q0 56 30.5 76t100.5 20z" />
    <glyph glyph-name="v" unicode="v" horiz-adv-x="1974" 
d="M991 -8q-100 0 -143 55l-805 997q-18 21 -18 43q0 35 44.5 56.5t108.5 21.5q92 0 129 -47l686 -860l688 862q35 45 123 45q59 0 102.5 -21t43.5 -54q0 -21 -19 -46l-796 -997q-43 -55 -144 -55z" />
    <glyph glyph-name="w" unicode="w" horiz-adv-x="2424" 
d="M1214 860l-409 -799q-37 -69 -148 -69q-117 0 -153 74l-471 987q-13 23 -13 39q0 33 39 53t103 20q90 0 110 -47l383 -860l430 827q25 46 53.5 63t80.5 17q57 0 79.5 -16.5t47.5 -63.5l413 -827l391 860q20 47 113 47q64 0 102.5 -20t38.5 -53q0 -18 -12 -39l-483 -987
q-36 -74 -152 -74q-114 0 -149 69z" />
    <glyph glyph-name="x" unicode="x" horiz-adv-x="1742" 
d="M338 1137l541 -420l530 420q22 17 49 22.5t92 5.5q48 0 76 -4t48 -19.5t20 -43.5q0 -20 -11.5 -34.5t-48.5 -43.5l-571 -445l577 -438q37 -29 48.5 -44t11.5 -36q0 -40 -32 -52.5t-107 -12.5q-60 0 -88.5 5.5t-51.5 22.5l-553 429l-542 -429q-24 -18 -51 -23t-85 -5
q-78 0 -112.5 12.5t-34.5 54.5q0 20 11 35t46 43l584 453l-565 430q-34 27 -46 44t-12 36q0 39 33 52t111 13q57 0 84.5 -5.5t48.5 -22.5z" />
    <glyph glyph-name="y" unicode="y" horiz-adv-x="1802" 
d="M676 236h770v833q0 56 30.5 76t98.5 20q70 0 100.5 -20t30.5 -76v-1051q0 -176 -135.5 -265t-394.5 -89h-283q-43 0 -58.5 25t-15.5 80q0 54 15 78t59 24h283q147 0 208.5 36.5t61.5 110.5v11h-778q-580 0 -580 356v684q0 56 30.5 76t98.5 20q70 0 100.5 -20t30.5 -76
v-686q0 -67 82 -107t246 -40z" />
    <glyph glyph-name="z" unicode="z" 
d="M1593 1022l-1118 -815h1135q43 0 58 -25t15 -80t-15 -78.5t-58 -23.5h-1358q-109 0 -154 25t-45 81q0 57 51 95l1262 936q38 28 150 28q45 0 71.5 -3.5t47 -18.5t20.5 -43q0 -23 -12.5 -37t-49.5 -41z" />
    <glyph glyph-name="braceleft" unicode="{" horiz-adv-x="727" 
d="M561 -430q-155 0 -228 83.5t-73 235.5v594q0 36 -6.5 59.5t-22 36.5t-30 19t-41.5 12q-26 6 -35.5 25t-9.5 74t9.5 73.5t35.5 24.5q27 6 41.5 12t30 19t22 36.5t6.5 59.5v594q0 152 73 235.5t228 83.5q66 0 94.5 -19.5t28.5 -70.5q0 -32 -9 -52.5t-25.5 -29t-27.5 -11
t-28 -3.5q-98 -8 -98 -133v-598q0 -100 -29.5 -157.5t-87.5 -63.5q57 -6 87 -65t30 -157v-598q0 -125 98 -133q17 -1 28 -3.5t27.5 -11t25.5 -29t9 -52.5q0 -51 -28.5 -70.5t-94.5 -19.5z" />
    <glyph glyph-name="bar" unicode="|" horiz-adv-x="731" 
d="M483 1761v-2105q0 -50 -27.5 -68t-90.5 -18q-62 0 -89.5 18t-27.5 68v2105q0 50 27.5 68t89.5 18q63 0 90.5 -18t27.5 -68z" />
    <glyph glyph-name="braceright" unicode="}" horiz-adv-x="727" 
d="M166 -430q-66 0 -94.5 19.5t-28.5 70.5q0 32 9 52.5t25.5 29t27.5 11t28 3.5q98 8 98 133v598q0 98 30 157t87 65q-58 6 -87.5 63.5t-29.5 157.5v598q0 125 -98 133q-17 1 -28 3.5t-27.5 11t-25.5 29t-9 52.5q0 51 28.5 70.5t94.5 19.5q155 0 228 -83.5t73 -235.5v-594
q0 -36 6.5 -59.5t22 -36.5t30 -19t41.5 -12q26 -6 35.5 -24.5t9.5 -73.5t-9.5 -74t-35.5 -25q-27 -6 -41.5 -12t-30 -19t-22 -36.5t-6.5 -59.5v-594q0 -152 -73 -235.5t-228 -83.5z" />
    <glyph glyph-name="asciitilde" unicode="~" horiz-adv-x="1247" 
d="M850 561q-69 0 -136 27t-110 59t-91.5 59t-84.5 27q-77 0 -149 -115q-20 -32 -39.5 -44.5t-69.5 -12.5q-48 0 -70 18t-22 72q0 82 46.5 147.5t118.5 99.5t152 34q66 0 131.5 -27t109 -59t93.5 -59t88 -27q85 0 152 114q14 23 23 33t29 17.5t54 7.5q50 0 72 -18t22 -72
q0 -123 -96 -202t-223 -79z" />
    <glyph glyph-name="nbspace" unicode="&#xa0;" horiz-adv-x="714" 
 />
    <glyph glyph-name="exclamdown" unicode="&#xa1;" horiz-adv-x="516" 
d="M96 1079q0 66 38 96.5t124 30.5t124 -30.5t38 -96.5t-38 -96.5t-124 -30.5t-124 30.5t-38 96.5zM395 776v-975q0 -56 -32.5 -76t-104.5 -20q-71 0 -103 20t-32 76v975q0 56 32 76t103 20q72 0 104.5 -20t32.5 -76z" />
    <glyph glyph-name="cent" unicode="&#xa2;" horiz-adv-x="1679" 
d="M1032 1399v-99h486q44 0 59.5 -24t15.5 -80q0 -54 -15.5 -78t-59.5 -24h-486v-744h492q43 0 58 -23.5t15 -78.5t-15 -80t-58 -25h-492v-65q0 -50 -27.5 -68t-91.5 -18q-62 0 -89 18t-27 68v65h-140q-579 0 -579 357v444q0 356 579 356h140v99q0 50 27 68t89 18
q64 0 91.5 -18t27.5 -68zM338 500q0 -66 82.5 -108t245.5 -42h131v744h-131q-164 0 -246 -41.5t-82 -108.5v-444z" />
    <glyph glyph-name="sterling" unicode="&#xa3;" horiz-adv-x="1716" 
d="M584 854h868q43 0 58.5 -24.5t15.5 -79.5t-15.5 -79t-58.5 -24h-868v-426h966q47 0 63.5 -25.5t16.5 -84.5t-16.5 -85t-63.5 -26h-1446q-47 0 -63 25.5t-16 85.5q0 59 16 84.5t63 25.5h207v426h-141q-43 0 -58.5 24t-15.5 79t15.5 79.5t58.5 24.5h141v250q0 381 609 381
h145q47 0 62.5 -26.5t15.5 -86.5q0 -58 -15.5 -83t-62.5 -25h-139q-171 0 -256.5 -44.5t-85.5 -115.5v-250z" />
    <glyph glyph-name="currency" unicode="&#xa4;" horiz-adv-x="1247" 
d="M975 223l-133 135q-97 -65 -219 -65q-123 0 -217 65l-134 -135q-39 -39 -90 -39q-45 0 -79.5 33t-34.5 78q0 48 36 84l142 137q-66 98 -66 217t66 217l-142 140q-36 36 -36 81q0 44 35.5 77.5t80.5 33.5q49 0 88 -39l134 -135q98 66 217 66q114 0 217 -66l135 135
q41 41 88 41q44 0 79.5 -34.5t35.5 -78.5t-37 -81l-144 -142q66 -98 66 -215q0 -115 -64 -215l142 -139q37 -37 37 -84q0 -44 -35.5 -78.5t-79.5 -34.5q-47 0 -88 41zM879 733q0 105 -74.5 179.5t-181.5 74.5t-181.5 -74.5t-74.5 -179.5q0 -107 74.5 -181.5t181.5 -74.5
t181.5 74.5t74.5 181.5z" />
    <glyph glyph-name="yen" unicode="&#xa5;" horiz-adv-x="1734" 
d="M1532 541h-528v-113h528q50 0 68 -27.5t18 -89.5q0 -63 -18 -90.5t-68 -27.5h-528v-105q0 -56 -33 -76t-105 -20q-71 0 -103 20t-32 76v105h-528q-50 0 -68 27.5t-18 90.5q0 62 18 89.5t68 27.5h528v113h-528q-50 0 -68 27.5t-18 90.5q0 62 18 89.5t68 27.5h508l-574 553
q-43 40 -43 82q0 35 37 58.5t111 23.5q43 0 67 -9t47 -30l512 -496l510 496q39 39 115 39q73 0 110 -23t37 -59q0 -42 -43 -82l-575 -553h510q50 0 68 -27.5t18 -89.5q0 -63 -18 -90.5t-68 -27.5z" />
    <glyph glyph-name="brokenbar" unicode="&#xa6;" horiz-adv-x="731" 
d="M483 1679v-753q0 -50 -27.5 -68t-90.5 -18q-62 0 -89.5 18t-27.5 68v753q0 50 27.5 68t89.5 18q63 0 90.5 -18t27.5 -68zM483 492v-754q0 -50 -27.5 -68t-90.5 -18q-62 0 -89.5 18t-27.5 68v754q0 50 27.5 68t89.5 18q63 0 90.5 -18t27.5 -68z" />
    <glyph glyph-name="section" unicode="&#xa7;" horiz-adv-x="1554" 
d="M981 784h-403q-230 0 -230 -131v-98q0 -147 268 -147h390q208 0 208 135v90q0 151 -233 151zM1450 633v-90q0 -170 -166 -248q166 -87 166 -250q0 -383 -485 -383h-758q-103 0 -103 102q0 109 103 109h799q208 0 208 172q0 152 -229 152h-330q-536 0 -536 356v100
q0 156 164 242q-164 83 -164 248q0 342 512 342h51q109 0 109 -107q0 -102 -109 -102h-104q-230 0 -230 -133q0 -148 256 -148h348q498 0 498 -362z" />
    <glyph glyph-name="dieresis" unicode="&#xa8;" horiz-adv-x="950" 
d="M549 1427q0 66 38 96.5t124 30.5t123.5 -30t37.5 -97t-37.5 -97t-123.5 -30t-124 30.5t-38 96.5zM78 1427q0 66 38 96.5t124 30.5t123.5 -30t37.5 -97t-37.5 -97t-123.5 -30t-124 30.5t-38 96.5z" />
    <glyph glyph-name="copyright" unicode="&#xa9;" 
d="M1675 1090v-695q0 -395 -469 -395h-641q-469 0 -469 395v695q0 395 469 395h641q469 0 469 -395zM225 410q0 -277 342 -277h637q342 0 342 277v665q0 277 -342 277h-637q-342 0 -342 -277v-665zM1245 362h-530q-320 0 -320 201v381q0 201 320 201h530q25 0 33 -13t8 -45
t-8 -45.5t-33 -13.5h-526q-90 0 -135 -23.5t-45 -60.5v-381q0 -37 45 -60.5t135 -23.5h526q25 0 33 -13.5t8 -45.5q0 -30 -8 -44t-33 -14z" />
    <glyph glyph-name="ordfeminine" unicode="&#xaa;" horiz-adv-x="1083" 
d="M692 815h-307q-334 0 -334 213v39q0 213 334 213h467q-7 57 -164 57h-106q-35 0 -46.5 17.5t-11.5 56.5t11.5 56.5t46.5 17.5h110q336 0 336 -213v-244q0 -213 -336 -213zM688 963q81 0 122.5 18t41.5 47v109h-463q-81 0 -122.5 -18.5t-41.5 -47.5v-43q0 -29 41.5 -47
t122.5 -18h299z" />
    <glyph glyph-name="guillemotleft" unicode="&#xab;" horiz-adv-x="1171" 
d="M57 578q0 71 35 106l486 467q14 14 28 14q21 0 35 -33t14 -81q0 -69 -30 -97l-398 -379l406 -385q29 -23 29 -90q0 -43 -14 -75.5t-34 -32.5q-16 0 -30 14l-492 465q-35 30 -35 107zM510 578q0 71 35 106l485 467q14 14 29 14q21 0 35 -33t14 -81q0 -68 -31 -97
l-397 -379l405 -385q29 -23 29 -90q0 -44 -13.5 -76t-33.5 -32q-17 0 -31 14l-491 465q-35 30 -35 107z" />
    <glyph glyph-name="logicalnot" unicode="&#xac;" horiz-adv-x="1247" 
d="M1169 778v-700q0 -50 -27.5 -68t-90.5 -18q-62 0 -89.5 18t-27.5 68v545h-770q-50 0 -68 27.5t-18 90.5q0 62 18 89.5t68 27.5h930q75 0 75 -80z" />
    <glyph glyph-name="softhyphen" unicode="&#xad;" horiz-adv-x="966" 
d="M98 836h770q43 0 58.5 -25t15.5 -80q0 -54 -15 -78t-59 -24h-770q-43 0 -58 23.5t-15 78.5t15 80t58 25z" />
    <glyph glyph-name="registered" unicode="&#xae;" 
d="M1675 1090v-695q0 -395 -469 -395h-641q-469 0 -469 395v695q0 395 469 395h641q469 0 469 -395zM225 410q0 -277 342 -277h637q342 0 342 277v665q0 277 -342 277h-637q-342 0 -342 -277v-665zM410 1096q0 49 51 49h606q146 0 231.5 -47.5t85.5 -126.5v-137
q0 -79 -85.5 -127t-231.5 -48h-260l502 -202q34 -10 34 -49q0 -50 -63 -50q-64 0 -94 15l-631 274v-237q0 -29 -18 -40.5t-56 -11.5q-36 0 -53.5 11.5t-17.5 40.5v686zM1055 1028h-500v-254h500q188 0 188 70v114q0 70 -188 70z" />
    <glyph glyph-name="macron" unicode="&#xaf;" horiz-adv-x="1067" 
d="M145 1532h777q39 0 53 -22.5t14 -71.5q0 -50 -14 -72.5t-53 -22.5h-777q-40 0 -53.5 22t-13.5 73q0 50 13.5 72t53.5 22z" />
    <glyph glyph-name="degree" unicode="&#xb0;" horiz-adv-x="946" 
d="M96 1505q0 197 289 197h174q291 0 291 -197v-360q0 -199 -291 -199h-174q-289 0 -289 199v360zM680 1174v303q0 31 -34 50t-103 19h-142q-69 0 -103 -19t-34 -50v-303q0 -31 34.5 -51.5t102.5 -20.5h142q68 0 102.5 20.5t34.5 51.5z" />
    <glyph glyph-name="plusminus" unicode="&#xb1;" horiz-adv-x="1247" 
d="M1083 766h-342v-340q0 -50 -27.5 -68t-90.5 -18q-62 0 -89.5 18t-27.5 68v340h-342q-50 0 -68 27.5t-18 91.5q0 62 18 89t68 27h342v345q0 50 27.5 68t89.5 18q63 0 90.5 -18t27.5 -68v-345h342q50 0 68 -27t18 -89q0 -64 -18 -91.5t-68 -27.5zM1083 0h-919
q-50 0 -68 27.5t-18 91.5q0 62 18 89.5t68 27.5h919q50 0 68 -27.5t18 -89.5q0 -64 -18 -91.5t-68 -27.5z" />
    <glyph glyph-name="twosuperior" unicode="&#xb2;" horiz-adv-x="1208" 
d="M795 977h-387q-164 0 -164 -72v-117h841q34 0 47 -17t13 -58q0 -40 -13 -59t-47 -19h-954q-70 0 -70 72v198q0 228 351 228h387q85 0 125.5 19t40.5 50v55q0 72 -166 72h-174q-36 0 -49 18.5t-13 59.5t13 59.5t49 18.5h170q350 0 350 -228v-55q0 -225 -350 -225z" />
    <glyph glyph-name="threesuperior" unicode="&#xb3;" horiz-adv-x="1185" 
d="M958 881q0 58 -32 80t-135 22h-670q-36 0 -48 18t-12 60t12 60t48 18h678q94 0 126.5 18.5t32.5 77.5q0 52 -31 73t-124 21h-170q-34 0 -47 19t-13 59t13 59t47 19h155q82 0 141.5 -11.5t108 -39t73 -78t24.5 -123.5q0 -123 -82 -176q46 -25 69 -65t23 -107
q0 -250 -348 -250h-678q-34 0 -47 19t-13 59q0 41 13 58t47 17h686q95 0 124 20.5t29 72.5z" />
    <glyph glyph-name="acute" unicode="&#xb4;" horiz-adv-x="888" 
d="M750 1526l-416 -226q-53 -26 -154 -26q-44 0 -73 22.5t-29 63.5q0 55 61 88l416 225q55 27 154 27q44 0 73 -23t29 -65q0 -53 -61 -86z" />
    <glyph glyph-name="paragraph" unicode="&#xb6;" horiz-adv-x="1521" 
d="M262 1151q0 -166 201 -166h739v322h-751q-189 0 -189 -156zM1313 -338q-58 0 -84.5 17.5t-26.5 62.5v1065h-321v-1065q0 -44 -26.5 -60t-86.5 -16q-59 0 -85 16t-26 60v1065h-165q-445 0 -445 344q0 334 432 334h873q73 0 73 -74v-1669q0 -46 -26 -63t-86 -17z" />
    <glyph glyph-name="periodcentered" unicode="&#xb7;" horiz-adv-x="516" 
d="M96 733q0 66 38 96.5t124 30.5t124 -30.5t38 -96.5t-38 -96.5t-124 -30.5t-124 30.5t-38 96.5z" />
    <glyph glyph-name="cedilla" unicode="&#xb8;" horiz-adv-x="466" 
d="M385 -156l-33 -192q-7 -47 -38 -64.5t-101 -17.5q-72 0 -103.5 16.5t-31.5 57.5q0 15 8 65l31 180q7 47 38.5 64.5t102.5 17.5q72 0 101.5 -17.5t29.5 -62.5q0 -19 -4 -47z" />
    <glyph glyph-name="onesuperior" unicode="&#xb9;" horiz-adv-x="317" 
d="M250 1419v-719q0 -39 -22.5 -54t-69.5 -15t-68.5 15t-21.5 54v719q0 40 21.5 55t68.5 15t69.5 -15.5t22.5 -54.5z" />
    <glyph glyph-name="ordmasculine" unicode="&#xba;" horiz-adv-x="1030" 
d="M57 1272q0 213 336 213h244q336 0 336 -213v-244q0 -213 -336 -213h-244q-336 0 -336 213v244zM797 1028v244q0 29 -41 47t-123 18h-236q-82 0 -123 -18t-41 -47v-244q0 -29 41 -47t123 -18h236q82 0 123 18t41 47z" />
    <glyph glyph-name="guillemotright" unicode="&#xbb;" horiz-adv-x="1171" 
d="M662 578q0 -77 -35 -107l-492 -465q-14 -14 -31 -14q-20 0 -33.5 32t-13.5 76q0 67 29 90l406 385l-398 379q-31 29 -31 97q0 48 14 81t36 33q14 0 28 -14l486 -467q35 -35 35 -106zM1114 578q0 -77 -35 -107l-491 -465q-14 -14 -31 -14q-20 0 -33.5 32t-13.5 76
q0 67 29 90l405 385l-397 379q-31 29 -31 97q0 48 14 81t35 33q15 0 29 -14l485 -467q35 -35 35 -106z" />
    <glyph glyph-name="onequarter" unicode="&#xbc;" horiz-adv-x="2185" 
d="M412 1419v-719q0 -39 -23 -54t-70 -15t-68.5 15t-21.5 54v719q0 40 21.5 55t68.5 15t70 -15.5t23 -54.5zM1276 1370l-1014 -1339q-31 -39 -94 -39q-90 0 -90 63q0 23 28 62l1014 1339q29 37 94 37q91 0 91 -63q0 -23 -29 -60zM1145 784v-413h780v413q0 39 22.5 54.5
t69.5 15.5t68.5 -15t21.5 -55v-718q0 -40 -21.5 -55t-68.5 -15t-69.5 15.5t-22.5 54.5v151h-891q-71 0 -71 62v505q0 39 22.5 54.5t69.5 15.5t68.5 -15t21.5 -55z" />
    <glyph glyph-name="onehalf" unicode="&#xbd;" horiz-adv-x="1857" 
d="M412 1419v-719q0 -39 -23 -54t-70 -15t-68.5 15t-21.5 54v719q0 40 21.5 55t68.5 15t70 -15.5t23 -54.5zM1276 1370l-1014 -1339q-31 -39 -94 -39q-90 0 -90 63q0 23 28 62l1014 1339q29 37 94 37q91 0 91 -63q0 -23 -29 -60zM1430 342h-388q-163 0 -163 -72v-116h841
q34 0 47 -17.5t13 -58.5q0 -40 -13 -59t-47 -19h-954q-70 0 -70 72v198q0 228 351 228h387q165 0 165 69v56q0 71 -165 71h-174q-36 0 -49 18.5t-13 59.5t13 59.5t49 18.5h170q350 0 350 -227v-56q0 -225 -350 -225z" />
    <glyph glyph-name="threequarters" unicode="&#xbe;" horiz-adv-x="2869" 
d="M977 881q0 58 -32.5 80t-135.5 22h-670q-36 0 -47.5 18t-11.5 60t11.5 60t47.5 18h678q94 0 127 18.5t33 77.5q0 52 -31.5 73t-124.5 21h-170q-34 0 -46.5 18.5t-12.5 59.5t12.5 59.5t46.5 18.5h156q82 0 141.5 -11.5t107.5 -39t72.5 -78t24.5 -123.5q0 -123 -82 -176
q46 -25 69 -65t23 -107q0 -250 -348 -250h-678q-34 0 -46.5 18.5t-12.5 59.5t12.5 58t46.5 17h686q66 0 100 11t44 29t10 53zM1960 1370l-1014 -1339q-31 -39 -94 -39q-90 0 -90 63q0 21 29 62l1013 1339q29 37 94 37q91 0 91 -63q0 -23 -29 -60zM1829 784v-413h780v413
q0 39 22.5 54.5t69.5 15.5t68.5 -15t21.5 -55v-718q0 -40 -21.5 -55t-68.5 -15t-69.5 15.5t-22.5 54.5v151h-891q-71 0 -71 62v505q0 39 22.5 54.5t69.5 15.5t68.5 -15t21.5 -55z" />
    <glyph glyph-name="questiondown" unicode="&#xbf;" horiz-adv-x="1374" 
d="M666 608h280q48 0 61 17t13 65v88q0 54 31.5 74t101.5 20t101.5 -20t31.5 -74v-114q0 -73 -29 -127.5t-79 -84.5t-108.5 -44.5t-125.5 -14.5h-285q-171 0 -254 -44.5t-83 -115.5v-139q0 -72 83 -116t254 -44h86q47 0 63.5 -25.5t16.5 -84.5t-16.5 -85t-63.5 -26h-79
q-607 0 -607 381v139q0 375 607 375zM1315 1079q0 -66 -38 -96.5t-124 -30.5t-124 30.5t-38 96.5t38 96.5t124 30.5t124 -30.5t38 -96.5z" />
    <glyph glyph-name="Agrave" unicode="&#xc0;" horiz-adv-x="2131" 
d="M1040 1491q107 0 160 -72l893 -1274q14 -22 14 -47q0 -44 -47 -76t-102 -32q-62 0 -90 41l-242 352h-1139l-227 -352q-25 -41 -88 -41q-54 0 -100.5 32.5t-46.5 77.5q0 20 14 45l840 1274q50 72 161 72zM1040 1241l-411 -637h846zM1073 1628l-416 225q-61 33 -61 86
q0 42 29 65.5t73 23.5q98 0 154 -27l416 -225q61 -33 61 -88q0 -41 -29 -63.5t-73 -22.5q-101 0 -154 26z" />
    <glyph glyph-name="Aacute" unicode="&#xc1;" horiz-adv-x="2131" 
d="M1040 1491q107 0 160 -72l893 -1274q14 -22 14 -47q0 -44 -47 -76t-102 -32q-62 0 -90 41l-242 352h-1139l-227 -352q-25 -41 -88 -41q-54 0 -100.5 32.5t-46.5 77.5q0 20 14 45l840 1274q50 72 161 72zM1040 1241l-411 -637h846zM1473 1853l-416 -225q-53 -26 -154 -26
q-44 0 -73 22.5t-29 63.5q0 55 61 88l416 225q56 27 154 27q44 0 73 -23.5t29 -65.5q0 -53 -61 -86z" />
    <glyph glyph-name="Acircumflex" unicode="&#xc2;" horiz-adv-x="2131" 
d="M1040 1491q107 0 160 -72l893 -1274q14 -22 14 -47q0 -44 -47 -76t-102 -32q-62 0 -90 41l-242 352h-1139l-227 -352q-25 -41 -88 -41q-54 0 -100.5 32.5t-46.5 77.5q0 20 14 45l840 1274q50 72 161 72zM1040 1241l-411 -637h846zM1065 1800l-129 -158q-32 -40 -113 -40
q-54 0 -92.5 20t-38.5 51q0 19 17 39l225 266q41 50 131 50t131 -50l225 -266q17 -20 17 -39q0 -31 -38.5 -51t-92.5 -20q-81 0 -113 40z" />
    <glyph glyph-name="Atilde" unicode="&#xc3;" horiz-adv-x="2131" 
d="M1040 1491q107 0 160 -72l893 -1274q14 -22 14 -47q0 -44 -47 -76t-102 -32q-62 0 -90 41l-242 352h-1139l-227 -352q-25 -41 -88 -41q-54 0 -100.5 32.5t-46.5 77.5q0 20 14 45l840 1274q50 72 161 72zM1040 1241l-411 -637h846zM678 1860h776q39 0 53.5 -23t14.5 -72
q0 -50 -14.5 -72t-53.5 -22h-776q-41 0 -54.5 21.5t-13.5 72.5q0 50 14 72.5t54 22.5z" />
    <glyph glyph-name="Adieresis" unicode="&#xc4;" horiz-adv-x="2131" 
d="M1040 1491q107 0 160 -72l893 -1274q14 -22 14 -47q0 -44 -47 -76t-102 -32q-62 0 -90 41l-242 352h-1139l-227 -352q-25 -41 -88 -41q-54 0 -100.5 32.5t-46.5 77.5q0 20 14 45l840 1274q50 72 161 72zM1040 1241l-411 -637h846zM1139 1755q0 67 37.5 97t123.5 30
t124 -30.5t38 -96.5t-38 -96.5t-124 -30.5t-123.5 30t-37.5 97zM668 1755q0 67 37.5 97t123.5 30t124 -30.5t38 -96.5t-38 -96.5t-124 -30.5t-123.5 30t-37.5 97z" />
    <glyph glyph-name="Aring" unicode="&#xc5;" horiz-adv-x="2131" 
d="M1040 1491q107 0 160 -72l893 -1274q14 -22 14 -47q0 -44 -47 -76t-102 -32q-62 0 -90 41l-242 352h-1139l-227 -352q-25 -41 -88 -41q-54 0 -100.5 32.5t-46.5 77.5q0 20 14 45l840 1274q50 72 161 72zM1040 1241l-411 -637h846zM1339 1819v-74q0 -125 -52.5 -167
t-188.5 -42h-66q-136 0 -188.5 42t-52.5 167v74q0 125 52.5 167t188.5 42h66q136 0 188.5 -42t52.5 -167zM1044 1653h41q78 0 98.5 16t20.5 76v74q0 60 -20.5 76t-98.5 16h-41q-78 0 -98 -16t-20 -76v-74q0 -60 20 -76t98 -16z" />
    <glyph glyph-name="AE" unicode="&#xc6;" horiz-adv-x="2959" 
d="M2804 0h-865q-606 0 -606 381v2h-846l-227 -352q-25 -41 -88 -41q-54 0 -100.5 32.5t-46.5 77.5q0 20 14 45l835 1268q50 72 162 72h1127q45 0 61.5 -26t16.5 -85t-16.5 -84.5t-61.5 -25.5h-559v-422h1206q47 0 63.5 -26t16.5 -85t-16.5 -84.5t-63.5 -25.5h-1206v-240
q0 -71 86.5 -115.5t257.5 -44.5h856q47 0 63.5 -25.5t16.5 -84.5q0 -58 -16.5 -84.5t-63.5 -26.5zM1055 1264l-426 -660h704v660h-278z" />
    <glyph glyph-name="Ccedilla" unicode="&#xc7;" horiz-adv-x="1835" 
d="M1690 0h-1006q-606 0 -606 381v723q0 381 606 381h1004q47 0 63 -25.5t16 -85.5q0 -59 -16 -84.5t-63 -25.5h-996q-172 0 -258 -44t-86 -116v-723q0 -71 86.5 -115.5t257.5 -44.5h998q47 0 62 -25t15 -85q0 -59 -15 -85t-62 -26zM1069 -156l-33 -192q-7 -47 -38 -64.5
t-101 -17.5q-72 0 -103.5 16.5t-31.5 57.5q0 15 8 65l31 180q7 47 38.5 64.5t102.5 17.5q72 0 101.5 -17.5t29.5 -62.5q0 -19 -4 -47z" />
    <glyph glyph-name="Egrave" unicode="&#xc8;" horiz-adv-x="1826" 
d="M1677 621h-1329v-240q0 -71 86.5 -115.5t257.5 -44.5h979q47 0 63.5 -25.5t16.5 -84.5q0 -58 -16.5 -84.5t-63.5 -26.5h-987q-606 0 -606 381v723q0 381 606 381h305q45 0 61.5 -26t16.5 -85t-16.5 -84.5t-61.5 -25.5h-297q-172 0 -258 -44t-86 -116v-262h1329
q47 0 63.5 -26t16.5 -85t-16.5 -84.5t-63.5 -25.5zM860 1628l-416 225q-61 33 -61 86q0 42 29 65.5t73 23.5q99 0 154 -27l416 -225q61 -33 61 -88q0 -41 -29 -63.5t-73 -22.5q-101 0 -154 26z" />
    <glyph glyph-name="Eacute" unicode="&#xc9;" horiz-adv-x="1826" 
d="M1677 621h-1329v-240q0 -71 86.5 -115.5t257.5 -44.5h979q47 0 63.5 -25.5t16.5 -84.5q0 -58 -16.5 -84.5t-63.5 -26.5h-987q-606 0 -606 381v723q0 381 606 381h305q45 0 61.5 -26t16.5 -85t-16.5 -84.5t-61.5 -25.5h-297q-172 0 -258 -44t-86 -116v-262h1329
q47 0 63.5 -26t16.5 -85t-16.5 -84.5t-63.5 -25.5zM1260 1853l-416 -225q-53 -26 -154 -26q-44 0 -73 22.5t-29 63.5q0 55 61 88l416 225q55 27 154 27q44 0 73 -23.5t29 -65.5q0 -53 -61 -86z" />
    <glyph glyph-name="Ecircumflex" unicode="&#xca;" horiz-adv-x="1826" 
d="M1677 621h-1329v-240q0 -71 86.5 -115.5t257.5 -44.5h979q47 0 63.5 -25.5t16.5 -84.5q0 -58 -16.5 -84.5t-63.5 -26.5h-987q-606 0 -606 381v723q0 381 606 381h305q45 0 61.5 -26t16.5 -85t-16.5 -84.5t-61.5 -25.5h-297q-172 0 -258 -44t-86 -116v-262h1329
q47 0 63.5 -26t16.5 -85t-16.5 -84.5t-63.5 -25.5zM852 1800l-129 -158q-32 -40 -113 -40q-54 0 -92.5 20t-38.5 51q0 19 17 39l225 266q41 50 131 50t131 -50l225 -266q17 -20 17 -39q0 -31 -38.5 -51t-92.5 -20q-81 0 -113 40z" />
    <glyph glyph-name="Edieresis" unicode="&#xcb;" horiz-adv-x="1826" 
d="M1677 621h-1329v-240q0 -71 86.5 -115.5t257.5 -44.5h979q47 0 63.5 -25.5t16.5 -84.5q0 -58 -16.5 -84.5t-63.5 -26.5h-987q-606 0 -606 381v723q0 381 606 381h305q45 0 61.5 -26t16.5 -85t-16.5 -84.5t-61.5 -25.5h-297q-172 0 -258 -44t-86 -116v-262h1329
q47 0 63.5 -26t16.5 -85t-16.5 -84.5t-63.5 -25.5zM926 1755q0 67 37.5 97t123.5 30t124 -30.5t38 -96.5t-38 -96.5t-124 -30.5t-123.5 30t-37.5 97zM455 1755q0 67 37.5 97t123.5 30t124 -30.5t38 -96.5t-38 -96.5t-124 -30.5t-123.5 30t-37.5 97z" />
    <glyph glyph-name="Igrave" unicode="&#xcc;" horiz-adv-x="579" 
d="M483 1397v-1309q0 -56 -32.5 -76t-104.5 -20q-71 0 -103 20t-32 76v1309q0 56 32 76t103 20q72 0 104.5 -20t32.5 -76zM356 1628l-415 225q-62 33 -62 86q0 42 29.5 65.5t73.5 23.5q98 0 153 -27l416 -225q61 -33 61 -88q0 -41 -29 -63.5t-73 -22.5q-101 0 -154 26z" />
    <glyph glyph-name="Iacute" unicode="&#xcd;" horiz-adv-x="583" 
d="M369 1397v-1309q0 -56 -33 -76t-105 -20q-71 0 -103 20t-32 76v1309q0 56 32 76t103 20q72 0 105 -20t33 -76zM641 1853l-416 -225q-53 -26 -153 -26q-44 0 -73.5 22.5t-29.5 63.5q0 55 62 88l415 225q55 27 154 27q44 0 73 -23.5t29 -65.5q0 -53 -61 -86z" />
    <glyph glyph-name="Icircumflex" unicode="&#xce;" horiz-adv-x="573" 
d="M422 1397v-1309q0 -56 -32.5 -76t-104.5 -20q-71 0 -103 20t-32 76v1309q0 56 32 76t103 20q72 0 104.5 -20t32.5 -76zM287 1800l-129 -158q-32 -40 -113 -40q-54 0 -92.5 20t-38.5 51q0 20 16 39l226 266q41 50 131 50t131 -50l225 -266q16 -19 16 -39q0 -31 -38.5 -51
t-92.5 -20q-80 0 -112 40z" />
    <glyph glyph-name="Idieresis" unicode="&#xcf;" horiz-adv-x="567" 
d="M420 1397v-1309q0 -56 -32.5 -76t-104.5 -20q-71 0 -103.5 20t-32.5 76v1309q0 56 32.5 76t103.5 20q72 0 104.5 -20t32.5 -76zM358 1755q0 66 38 96.5t124 30.5t124 -30.5t38 -96.5t-38 -96.5t-124 -30.5t-124 30.5t-38 96.5zM-113 1755q0 66 38 96.5t124 30.5
t124 -30.5t38 -96.5t-38 -96.5t-124 -30.5t-124 30.5t-38 96.5z" />
    <glyph glyph-name="Eth" unicode="&#xd0;" horiz-adv-x="2119" 
d="M2042 1104v-723q0 -381 -606 -381h-1162q-94 0 -94 96v525h-80q-47 0 -63.5 25.5t-16.5 84.5t16.5 85t63.5 26h80v549q0 94 94 94h1162q606 0 606 -381zM1290 621h-837v-400h974q172 0 259.5 45t87.5 115v723q0 71 -87.5 115.5t-259.5 44.5h-974v-422h837q47 0 63.5 -26
t16.5 -85t-16.5 -84.5t-63.5 -25.5z" />
    <glyph glyph-name="Ntilde" unicode="&#xd1;" horiz-adv-x="2041" 
d="M1804 -8q-54 0 -80 11.5t-82 57.5l-1273 1074v-1047q0 -56 -33 -76t-105 -20q-71 0 -103 20t-32 76v1309q0 55 31 75.5t98 20.5q64 0 103 -16.5t90 -59.5l1255 -1069v1049q0 56 32 76t103 20q72 0 105 -20t33 -76v-1309q0 -57 -33 -76.5t-109 -19.5zM633 1860h776
q39 0 53.5 -23t14.5 -72q0 -50 -14.5 -72t-53.5 -22h-776q-41 0 -54.5 21.5t-13.5 72.5q0 50 14 72.5t54 22.5z" />
    <glyph glyph-name="Ograve" unicode="&#xd2;" horiz-adv-x="1964" 
d="M1280 0h-596q-606 0 -606 381v723q0 381 606 381h596q606 0 606 -381v-723q0 -381 -606 -381zM1272 221q171 0 257.5 44.5t86.5 115.5v723q0 72 -86 116t-258 44h-580q-172 0 -258 -44t-86 -116v-723q0 -71 86.5 -115.5t257.5 -44.5h580zM989 1628l-416 225
q-61 33 -61 86q0 42 29 65.5t73 23.5q99 0 154 -27l416 -225q61 -33 61 -88q0 -41 -29 -63.5t-73 -22.5q-101 0 -154 26z" />
    <glyph glyph-name="Oacute" unicode="&#xd3;" horiz-adv-x="1964" 
d="M1280 0h-596q-606 0 -606 381v723q0 381 606 381h596q606 0 606 -381v-723q0 -381 -606 -381zM1272 221q171 0 257.5 44.5t86.5 115.5v723q0 72 -86 116t-258 44h-580q-172 0 -258 -44t-86 -116v-723q0 -71 86.5 -115.5t257.5 -44.5h580zM1389 1853l-416 -225
q-53 -26 -154 -26q-44 0 -73 22.5t-29 63.5q0 55 61 88l416 225q56 27 154 27q44 0 73 -23.5t29 -65.5q0 -53 -61 -86z" />
    <glyph glyph-name="Ocircumflex" unicode="&#xd4;" horiz-adv-x="1964" 
d="M1280 0h-596q-606 0 -606 381v723q0 381 606 381h596q606 0 606 -381v-723q0 -381 -606 -381zM1272 221q171 0 257.5 44.5t86.5 115.5v723q0 72 -86 116t-258 44h-580q-172 0 -258 -44t-86 -116v-723q0 -71 86.5 -115.5t257.5 -44.5h580zM981 1800l-129 -158
q-32 -40 -113 -40q-54 0 -92.5 20t-38.5 51q0 19 17 39l225 266q41 50 131 50t131 -50l225 -266q17 -20 17 -39q0 -31 -38.5 -51t-92.5 -20q-81 0 -113 40z" />
    <glyph glyph-name="Otilde" unicode="&#xd5;" horiz-adv-x="1964" 
d="M1280 0h-596q-606 0 -606 381v723q0 381 606 381h596q606 0 606 -381v-723q0 -381 -606 -381zM1272 221q171 0 257.5 44.5t86.5 115.5v723q0 72 -86 116t-258 44h-580q-172 0 -258 -44t-86 -116v-723q0 -71 86.5 -115.5t257.5 -44.5h580zM594 1860h776q39 0 53.5 -23
t14.5 -72q0 -50 -14.5 -72t-53.5 -22h-776q-41 0 -54.5 21.5t-13.5 72.5q0 50 14 72.5t54 22.5z" />
    <glyph glyph-name="Odieresis" unicode="&#xd6;" horiz-adv-x="1964" 
d="M1280 0h-596q-606 0 -606 381v723q0 381 606 381h596q606 0 606 -381v-723q0 -381 -606 -381zM1272 221q171 0 257.5 44.5t86.5 115.5v723q0 72 -86 116t-258 44h-580q-172 0 -258 -44t-86 -116v-723q0 -71 86.5 -115.5t257.5 -44.5h580zM1055 1755q0 66 38 96.5
t124 30.5t123.5 -30t37.5 -97t-37.5 -97t-123.5 -30t-124 30.5t-38 96.5zM584 1755q0 67 37.5 97t123.5 30t124 -30.5t38 -96.5t-38 -96.5t-124 -30.5t-123.5 30t-37.5 97z" />
    <glyph glyph-name="multiply" unicode="&#xd7;" horiz-adv-x="1247" 
d="M864 332l-241 241l-240 -239q-31 -31 -57 -31q-38 0 -89 52.5t-51 90.5q0 25 29 54l242 239l-242 242q-31 31 -31 55q0 37 52 89.5t90 52.5q26 0 55 -29l242 -242l243 242q31 31 56 31q38 0 88.5 -52.5t50.5 -89.5q0 -26 -29 -55l-244 -244l242 -241q31 -31 31 -58
q0 -37 -52.5 -87t-88.5 -50q-27 0 -56 29z" />
    <glyph glyph-name="Oslash" unicode="&#xd8;" horiz-adv-x="1964" 
d="M1694 1503l-54 -69q246 -86 246 -330v-723q0 -381 -606 -381h-596q-80 0 -117 4l-100 -133q-33 -43 -107 -43q-112 0 -112 72q0 30 33 75l53 72q-256 86 -256 334v723q0 381 606 381h596q68 0 133 -6l96 129q34 45 111 45q109 0 109 -76q0 -27 -35 -74zM348 381
q0 -92 135 -135l766 1018h-557q-172 0 -258 -44t-86 -116v-723zM1272 221q171 0 257.5 44.5t86.5 115.5v723q0 89 -125 131l-762 -1014h543z" />
    <glyph glyph-name="Ugrave" unicode="&#xd9;" horiz-adv-x="2019" 
d="M1325 0h-631q-606 0 -606 381v1016q0 56 32 76t103 20q72 0 104.5 -20t32.5 -76v-1016q0 -71 85.5 -115.5t256.5 -44.5h615q171 0 256.5 44.5t85.5 115.5v1016q0 56 32.5 76t104.5 20q71 0 103 -20t32 -76v-1016q0 -381 -606 -381zM1018 1628l-416 225q-61 33 -61 86
q0 42 29 65.5t73 23.5q99 0 154 -27l415 -225q62 -33 62 -88q0 -41 -29.5 -63.5t-73.5 -22.5q-100 0 -153 26z" />
    <glyph glyph-name="Uacute" unicode="&#xda;" horiz-adv-x="2019" 
d="M1325 0h-631q-606 0 -606 381v1016q0 56 32 76t103 20q72 0 104.5 -20t32.5 -76v-1016q0 -71 85.5 -115.5t256.5 -44.5h615q171 0 256.5 44.5t85.5 115.5v1016q0 56 32.5 76t104.5 20q71 0 103 -20t32 -76v-1016q0 -381 -606 -381zM1417 1853l-416 -225q-53 -26 -153 -26
q-44 0 -73.5 22.5t-29.5 63.5q0 55 62 88l416 225q55 27 153 27q44 0 73.5 -23.5t29.5 -65.5q0 -53 -62 -86z" />
    <glyph glyph-name="Ucircumflex" unicode="&#xdb;" horiz-adv-x="2019" 
d="M1325 0h-631q-606 0 -606 381v1016q0 56 32 76t103 20q72 0 104.5 -20t32.5 -76v-1016q0 -71 85.5 -115.5t256.5 -44.5h615q171 0 256.5 44.5t85.5 115.5v1016q0 56 32.5 76t104.5 20q71 0 103 -20t32 -76v-1016q0 -381 -606 -381zM1010 1800l-129 -158q-32 -40 -113 -40
q-54 0 -92.5 20t-38.5 51q0 20 16 39l226 266q41 50 131 50t131 -50l225 -266q16 -19 16 -39q0 -31 -38.5 -51t-92.5 -20q-80 0 -112 40z" />
    <glyph glyph-name="Udieresis" unicode="&#xdc;" horiz-adv-x="2019" 
d="M1325 0h-631q-606 0 -606 381v1016q0 56 32 76t103 20q72 0 104.5 -20t32.5 -76v-1016q0 -71 85.5 -115.5t256.5 -44.5h615q171 0 256.5 44.5t85.5 115.5v1016q0 56 32.5 76t104.5 20q71 0 103 -20t32 -76v-1016q0 -381 -606 -381zM1083 1755q0 66 38 96.5t124 30.5
t124 -30.5t38 -96.5t-38 -96.5t-124 -30.5t-124 30.5t-38 96.5zM612 1755q0 66 38 96.5t124 30.5t124 -30.5t38 -96.5t-38 -96.5t-124 -30.5t-124 30.5t-38 96.5z" />
    <glyph glyph-name="Yacute" unicode="&#xdd;" horiz-adv-x="1882" 
d="M805 614l-739 715q-43 40 -43 82q0 35 37 58.5t110 23.5q43 0 67.5 -9t47.5 -30l657 -639l655 639q39 39 115 39q73 0 110.5 -23t37.5 -59q0 -42 -43 -82l-740 -715v-526q0 -56 -32.5 -76t-104.5 -20q-71 0 -103 20t-32 76v526zM1348 1853l-416 -225q-53 -26 -154 -26
q-44 0 -73 22.5t-29 63.5q0 55 61 88l416 225q55 27 154 27q44 0 73 -23.5t29 -65.5q0 -53 -61 -86z" />
    <glyph glyph-name="Thorn" unicode="&#xde;" horiz-adv-x="2015" 
d="M231 1493q72 0 105 -20t33 -76v-211h985q277 0 439.5 -90.5t162.5 -241.5v-223q0 -151 -162.5 -241.5t-439.5 -90.5h-985v-211q0 -56 -33 -76t-105 -20q-71 0 -103 20t-32 76v1309q0 56 32 76t103 20zM1686 651v183q0 131 -357 131h-960v-445h960q357 0 357 131z" />
    <glyph glyph-name="germandbls" unicode="&#xdf;" horiz-adv-x="1890" 
d="M676 936v203q0 75 -37 111t-125 36q-90 0 -128 -37t-38 -110v-1051q0 -56 -30.5 -76t-100.5 -20q-68 0 -98.5 20t-30.5 76v1051q0 170 120 262t306 92q184 0 302 -92t118 -262v-207q0 -105 276 -105h66q541 0 541 -311v-203q0 -313 -580 -313h-522q-44 0 -60 24.5
t-16 79.5q0 54 16 78.5t60 24.5h561q150 0 214 26t64 76v211q0 105 -270 105h-65q-543 0 -543 311z" />
    <glyph glyph-name="agrave" unicode="&#xe0;" horiz-adv-x="1859" 
d="M1202 0h-557q-579 0 -579 356v109q0 356 579 356h877v2q0 127 -328 127h-193q-44 0 -59.5 24.5t-15.5 78.5q0 56 15.5 80t59.5 24h201q580 0 580 -356v-445q0 -356 -580 -356zM1194 207q163 0 245.5 41.5t82.5 107.5v267h-869q-164 0 -245.5 -41.5t-81.5 -108.5v-117
q0 -66 82 -107.5t245 -41.5h541zM1122 1300l-415 226q-62 33 -62 86q0 42 29.5 65t73.5 23q98 0 153 -27l416 -225q61 -33 61 -88q0 -41 -29 -63.5t-73 -22.5q-101 0 -154 26z" />
    <glyph glyph-name="aacute" unicode="&#xe1;" horiz-adv-x="1859" 
d="M1202 0h-557q-579 0 -579 356v109q0 356 579 356h877v2q0 127 -328 127h-193q-44 0 -59.5 24.5t-15.5 78.5q0 56 15.5 80t59.5 24h201q580 0 580 -356v-445q0 -356 -580 -356zM1194 207q163 0 245.5 41.5t82.5 107.5v267h-869q-164 0 -245.5 -41.5t-81.5 -108.5v-117
q0 -66 82 -107.5t245 -41.5h541zM1522 1526l-416 -226q-53 -26 -154 -26q-44 0 -73 22.5t-29 63.5q0 55 61 88l416 225q55 27 154 27q44 0 73 -23t29 -65q0 -53 -61 -86z" />
    <glyph glyph-name="acircumflex" unicode="&#xe2;" horiz-adv-x="1859" 
d="M1202 0h-557q-579 0 -579 356v109q0 356 579 356h877v2q0 127 -328 127h-193q-44 0 -59.5 24.5t-15.5 78.5q0 56 15.5 80t59.5 24h201q580 0 580 -356v-445q0 -356 -580 -356zM1194 207q163 0 245.5 41.5t82.5 107.5v267h-869q-164 0 -245.5 -41.5t-81.5 -108.5v-117
q0 -66 82 -107.5t245 -41.5h541zM1114 1473l-129 -158q-33 -41 -113 -41q-54 0 -92.5 20.5t-38.5 51.5q0 18 17 38l225 267q40 49 131 49t131 -49l225 -267q17 -20 17 -38q0 -31 -38.5 -51.5t-92.5 -20.5q-80 0 -113 41z" />
    <glyph glyph-name="atilde" unicode="&#xe3;" horiz-adv-x="1859" 
d="M1202 0h-557q-579 0 -579 356v109q0 356 579 356h877v2q0 127 -328 127h-193q-44 0 -59.5 24.5t-15.5 78.5q0 56 15.5 80t59.5 24h201q580 0 580 -356v-445q0 -356 -580 -356zM1194 207q163 0 245.5 41.5t82.5 107.5v267h-869q-164 0 -245.5 -41.5t-81.5 -108.5v-117
q0 -66 82 -107.5t245 -41.5h541zM725 1532h776q39 0 53.5 -22.5t14.5 -71.5q0 -50 -14.5 -72.5t-53.5 -22.5h-776q-41 0 -54.5 22t-13.5 73q0 50 14 72t54 22z" />
    <glyph glyph-name="adieresis" unicode="&#xe4;" horiz-adv-x="1859" 
d="M1202 0h-557q-579 0 -579 356v109q0 356 579 356h877v2q0 127 -328 127h-193q-44 0 -59.5 24.5t-15.5 78.5q0 56 15.5 80t59.5 24h201q580 0 580 -356v-445q0 -356 -580 -356zM1194 207q163 0 245.5 41.5t82.5 107.5v267h-869q-164 0 -245.5 -41.5t-81.5 -108.5v-117
q0 -66 82 -107.5t245 -41.5h541zM1188 1427q0 66 38 96.5t124 30.5t123.5 -30t37.5 -97t-37.5 -97t-123.5 -30t-124 30.5t-38 96.5zM717 1427q0 66 38 96.5t124 30.5t123.5 -30t37.5 -97t-37.5 -97t-123.5 -30t-124 30.5t-38 96.5z" />
    <glyph glyph-name="aring" unicode="&#xe5;" horiz-adv-x="1859" 
d="M1202 0h-557q-579 0 -579 356v109q0 356 579 356h877v2q0 127 -328 127h-193q-44 0 -59.5 24.5t-15.5 78.5q0 56 15.5 80t59.5 24h201q580 0 580 -356v-445q0 -356 -580 -356zM1194 207q163 0 245.5 41.5t82.5 107.5v267h-869q-164 0 -245.5 -41.5t-81.5 -108.5v-117
q0 -66 82 -107.5t245 -41.5h541zM1389 1491v-74q0 -125 -53 -167t-189 -42h-66q-136 0 -188.5 42t-52.5 167v74q0 125 52.5 167t188.5 42h66q136 0 189 -42t53 -167zM1094 1325h41q78 0 98 16t20 76v74q0 60 -20 76t-98 16h-41q-78 0 -98.5 -16t-20.5 -76v-74
q0 -60 20.5 -76t98.5 -16z" />
    <glyph glyph-name="ae" unicode="&#xe6;" horiz-adv-x="3215" 
d="M3031 461h-1249v-105q0 -66 82 -107.5t245 -41.5h236q43 0 58.5 -24t15.5 -79t-15.5 -79.5t-58.5 -24.5h-244q-307 0 -450 98q-143 -98 -449 -98h-557q-579 0 -579 356v109q0 356 579 356h877v2q0 127 -328 127h-193q-44 0 -59.5 24.5t-15.5 78.5q0 56 15.5 80t59.5 24
h201q306 0 449 -98q143 98 450 98h473q304 0 442 -87t138 -269v-236q0 -62 -23.5 -83t-99.5 -21zM1194 207q163 0 245.5 41.5t82.5 107.5v267h-869q-164 0 -245.5 -41.5t-81.5 -108.5v-117q0 -66 82 -107.5t245 -41.5h541zM1782 801v-137h1112v137q0 149 -328 149h-457
q-164 0 -245.5 -41t-81.5 -108z" />
    <glyph glyph-name="ccedilla" unicode="&#xe7;" horiz-adv-x="1828" 
d="M1688 0h-1031q-579 0 -579 356v445q0 356 579 356h1024q44 0 60 -24.5t16 -79.5q0 -54 -16 -78.5t-60 -24.5h-1015q-164 0 -246 -41t-82 -108v-445q0 -66 82.5 -107.5t245.5 -41.5h1022q43 0 58 -24t15 -79t-15 -79.5t-58 -24.5zM1065 -156l-33 -192q-7 -47 -38 -64.5
t-101 -17.5q-72 0 -103.5 16.5t-31.5 57.5q0 15 8 65l31 180q7 47 38.5 64.5t102.5 17.5q72 0 101.5 -17.5t29.5 -62.5q0 -19 -4 -47z" />
    <glyph glyph-name="egrave" unicode="&#xe8;" 
d="M1587 461h-1249v-105q0 -66 82.5 -107.5t245.5 -41.5h235q43 0 58.5 -24t15.5 -79t-15.5 -79.5t-58.5 -24.5h-244q-579 0 -579 356v445q0 356 579 356h473q304 0 442 -87t138 -269v-236q0 -62 -23.5 -83t-99.5 -21zM338 801v-137h1112v137q0 149 -328 149h-456
q-164 0 -246 -41t-82 -108zM893 1300l-416 226q-61 33 -61 86q0 42 29 65t73 23q98 0 154 -27l415 -225q62 -33 62 -88q0 -41 -29 -63.5t-73 -22.5q-101 0 -154 26z" />
    <glyph glyph-name="eacute" unicode="&#xe9;" 
d="M1587 461h-1249v-105q0 -66 82.5 -107.5t245.5 -41.5h235q43 0 58.5 -24t15.5 -79t-15.5 -79.5t-58.5 -24.5h-244q-579 0 -579 356v445q0 356 579 356h473q304 0 442 -87t138 -269v-236q0 -62 -23.5 -83t-99.5 -21zM338 801v-137h1112v137q0 149 -328 149h-456
q-164 0 -246 -41t-82 -108zM1292 1526l-415 -226q-53 -26 -154 -26q-44 0 -73 22.5t-29 63.5q0 55 61 88l416 225q55 27 153 27q44 0 73.5 -23t29.5 -65q0 -53 -62 -86z" />
    <glyph glyph-name="ecircumflex" unicode="&#xea;" 
d="M1587 461h-1249v-105q0 -66 82.5 -107.5t245.5 -41.5h235q43 0 58.5 -24t15.5 -79t-15.5 -79.5t-58.5 -24.5h-244q-579 0 -579 356v445q0 356 579 356h473q304 0 442 -87t138 -269v-236q0 -62 -23.5 -83t-99.5 -21zM338 801v-137h1112v137q0 149 -328 149h-456
q-164 0 -246 -41t-82 -108zM885 1473l-129 -158q-33 -41 -113 -41q-54 0 -92.5 20.5t-38.5 51.5q0 19 16 38l226 267q40 49 131 49t131 -49l225 -267q16 -19 16 -38q0 -31 -38.5 -51.5t-92.5 -20.5q-79 0 -112 41z" />
    <glyph glyph-name="edieresis" unicode="&#xeb;" 
d="M1587 461h-1249v-105q0 -66 82.5 -107.5t245.5 -41.5h235q43 0 58.5 -24t15.5 -79t-15.5 -79.5t-58.5 -24.5h-244q-579 0 -579 356v445q0 356 579 356h473q304 0 442 -87t138 -269v-236q0 -62 -23.5 -83t-99.5 -21zM338 801v-137h1112v137q0 149 -328 149h-456
q-164 0 -246 -41t-82 -108zM958 1427q0 66 38 96.5t124 30.5t124 -30.5t38 -96.5t-38 -96.5t-124 -30.5t-124 30.5t-38 96.5zM487 1427q0 66 38 96.5t124 30.5t124 -30.5t38 -96.5t-38 -96.5t-124 -30.5t-124 30.5t-38 96.5z" />
    <glyph glyph-name="igrave" unicode="&#xec;" horiz-adv-x="694" 
d="M598 1069v-981q0 -56 -30.5 -76t-100.5 -20q-68 0 -98.5 20t-30.5 76v981q0 56 30.5 76t98.5 20q70 0 100.5 -20t30.5 -76zM477 1300l-416 226q-61 33 -61 86q0 42 29 65t73 23q98 0 154 -27l416 -225q61 -33 61 -88q0 -41 -29 -63.5t-73 -22.5q-101 0 -154 26z" />
    <glyph glyph-name="iacute" unicode="&#xed;" horiz-adv-x="696" 
d="M356 1069v-981q0 -56 -30.5 -76t-100.5 -20q-68 0 -98.5 20t-30.5 76v981q0 56 30.5 76t98.5 20q70 0 100.5 -20t30.5 -76zM635 1526l-416 -226q-53 -26 -153 -26q-44 0 -73.5 22.5t-29.5 63.5q0 55 62 88l415 225q56 27 154 27q44 0 73 -23t29 -65q0 -53 -61 -86z" />
    <glyph glyph-name="icircumflex" unicode="&#xee;" horiz-adv-x="745" 
d="M502 1069v-981q0 -56 -30.5 -76t-100.5 -20q-68 0 -98.5 20t-30.5 76v981q0 56 30.5 76t98.5 20q70 0 100.5 -20t30.5 -76zM373 1473l-129 -158q-33 -41 -113 -41q-54 0 -92.5 20.5t-38.5 51.5q0 19 16 38l226 267q40 49 131 49t131 -49l225 -267q16 -19 16 -38
q0 -31 -38.5 -51.5t-92.5 -20.5q-79 0 -112 41z" />
    <glyph glyph-name="idieresis" unicode="&#xef;" horiz-adv-x="794" 
d="M526 1069v-981q0 -56 -30.5 -76t-100.5 -20q-68 0 -98.5 20t-30.5 76v981q0 56 30.5 76t98.5 20q70 0 100.5 -20t30.5 -76zM471 1427q0 66 38 96.5t124 30.5t124 -30.5t38 -96.5t-38 -96.5t-124 -30.5t-124 30.5t-38 96.5zM0 1427q0 66 38 96.5t124 30.5t124 -30.5
t38 -96.5t-38 -96.5t-124 -30.5t-124 30.5t-38 96.5z" />
    <glyph glyph-name="eth" unicode="&#xf0;" horiz-adv-x="1816" 
d="M1038 1485h375q159 0 237.5 -71t78.5 -202v-856q0 -356 -580 -356h-492q-579 0 -579 356v260q0 357 579 357h811v239q0 66 -55 66h-375q-43 0 -58 23.5t-15 78.5t15 80t58 25zM1468 766h-802q-164 0 -246 -41.5t-82 -108.5v-260q0 -66 82.5 -107.5t245.5 -41.5h475
q163 0 245 41.5t82 107.5v410z" />
    <glyph glyph-name="ntilde" unicode="&#xf1;" horiz-adv-x="1781" 
d="M217 -8q-68 0 -98.5 20t-30.5 76v713q0 356 580 356h446q580 0 580 -356v-713q0 -56 -30.5 -76t-100.5 -20q-68 0 -98.5 20t-30.5 76v713q0 67 -82 108t-246 41h-430q-164 0 -246 -41t-82 -108v-713q0 -56 -30.5 -76t-100.5 -20zM502 1532h776q39 0 53.5 -22.5
t14.5 -71.5q0 -50 -14.5 -72.5t-53.5 -22.5h-776q-41 0 -54.5 22t-13.5 73q0 50 14 72t54 22z" />
    <glyph glyph-name="ograve" unicode="&#xf2;" horiz-adv-x="1761" 
d="M78 801q0 356 579 356h447q579 0 579 -356v-445q0 -356 -579 -356h-447q-579 0 -579 356v445zM1423 356v445q0 67 -81.5 108t-245.5 41h-430q-164 0 -246 -41t-82 -108v-445q0 -66 82.5 -107.5t245.5 -41.5h430q163 0 245 41.5t82 107.5zM889 1300l-416 226
q-61 33 -61 86q0 42 29 65t73 23q98 0 154 -27l415 -225q62 -33 62 -88q0 -41 -29.5 -63.5t-73.5 -22.5q-100 0 -153 26z" />
    <glyph glyph-name="oacute" unicode="&#xf3;" horiz-adv-x="1761" 
d="M78 801q0 356 579 356h447q579 0 579 -356v-445q0 -356 -579 -356h-447q-579 0 -579 356v445zM1423 356v445q0 67 -81.5 108t-245.5 41h-430q-164 0 -246 -41t-82 -108v-445q0 -66 82.5 -107.5t245.5 -41.5h430q163 0 245 41.5t82 107.5zM1288 1526l-416 -226
q-53 -26 -153 -26q-44 0 -73.5 22.5t-29.5 63.5q0 55 62 88l416 225q30 15 61 21t92 6q44 0 73.5 -23t29.5 -65q0 -53 -62 -86z" />
    <glyph glyph-name="ocircumflex" unicode="&#xf4;" horiz-adv-x="1761" 
d="M78 801q0 356 579 356h447q579 0 579 -356v-445q0 -356 -579 -356h-447q-579 0 -579 356v445zM1423 356v445q0 67 -81.5 108t-245.5 41h-430q-164 0 -246 -41t-82 -108v-445q0 -66 82.5 -107.5t245.5 -41.5h430q163 0 245 41.5t82 107.5zM881 1473l-129 -158
q-33 -41 -113 -41q-54 0 -92.5 20.5t-38.5 51.5q0 19 16 38l226 267q40 49 131 49t131 -49l225 -267q16 -19 16 -38q0 -31 -38.5 -51.5t-92.5 -20.5q-79 0 -112 41z" />
    <glyph glyph-name="otilde" unicode="&#xf5;" horiz-adv-x="1761" 
d="M78 801q0 356 579 356h447q579 0 579 -356v-445q0 -356 -579 -356h-447q-579 0 -579 356v445zM1423 356v445q0 67 -81.5 108t-245.5 41h-430q-164 0 -246 -41t-82 -108v-445q0 -66 82.5 -107.5t245.5 -41.5h430q163 0 245 41.5t82 107.5zM492 1532h776q39 0 53 -22.5
t14 -71.5q0 -50 -14 -72.5t-53 -22.5h-776q-41 0 -54.5 22t-13.5 73q0 50 14 72t54 22z" />
    <glyph glyph-name="odieresis" unicode="&#xf6;" horiz-adv-x="1761" 
d="M78 801q0 356 579 356h447q579 0 579 -356v-445q0 -356 -579 -356h-447q-579 0 -579 356v445zM1423 356v445q0 67 -81.5 108t-245.5 41h-430q-164 0 -246 -41t-82 -108v-445q0 -66 82.5 -107.5t245.5 -41.5h430q163 0 245 41.5t82 107.5zM954 1427q0 66 38 96.5t124 30.5
t124 -30.5t38 -96.5t-38 -96.5t-124 -30.5t-124 30.5t-38 96.5zM483 1427q0 66 38 96.5t124 30.5t124 -30.5t38 -96.5t-38 -96.5t-124 -30.5t-124 30.5t-38 96.5z" />
    <glyph glyph-name="divide" unicode="&#xf7;" horiz-adv-x="1247" 
d="M1083 623h-919q-50 0 -68 27.5t-18 90.5q0 62 18 89.5t68 27.5h919q50 0 68 -27.5t18 -89.5q0 -63 -18 -90.5t-68 -27.5zM461 1149q0 66 38 96.5t124 30.5t123.5 -30t37.5 -97t-37.5 -97t-123.5 -30t-124 30.5t-38 96.5zM461 332q0 66 38 96.5t124 30.5t123.5 -30
t37.5 -97t-37.5 -97t-123.5 -30t-124 30.5t-38 96.5z" />
    <glyph glyph-name="oslash" unicode="&#xf8;" horiz-adv-x="1761" 
d="M1552 1202l-88 -98q219 -83 219 -303v-445q0 -356 -579 -356h-447q-104 0 -172 8l-96 -106q-30 -35 -100 -35q-107 0 -107 57q0 24 31 60l68 75q-203 86 -203 297v445q0 356 579 356h447q90 0 153 -8l121 135q34 37 105 37q102 0 102 -57q0 -24 -33 -62zM1423 356v445
q0 84 -120 123l-641 -717h434q163 0 245 41.5t82 107.5zM338 356q0 -76 104 -118l637 712h-413q-164 0 -246 -41t-82 -108v-445z" />
    <glyph glyph-name="ugrave" unicode="&#xf9;" horiz-adv-x="1824" 
d="M1608 1165q68 0 98.5 -20t30.5 -76v-713q0 -356 -580 -356h-489q-580 0 -580 356v713q0 56 30.5 76t100.5 20q68 0 98.5 -20t30.5 -76v-713q0 -67 82 -108t246 -41h473q164 0 246 41t82 108v713q0 56 30.5 76t100.5 20zM920 1300l-416 226q-62 33 -62 86q0 42 29.5 65
t73.5 23q61 0 92 -6t61 -21l416 -225q62 -33 62 -88q0 -41 -29.5 -63.5t-73.5 -22.5q-100 0 -153 26z" />
    <glyph glyph-name="uacute" unicode="&#xfa;" horiz-adv-x="1824" 
d="M1608 1165q68 0 98.5 -20t30.5 -76v-713q0 -356 -580 -356h-489q-580 0 -580 356v713q0 56 30.5 76t100.5 20q68 0 98.5 -20t30.5 -76v-713q0 -67 82 -108t246 -41h473q164 0 246 41t82 108v713q0 56 30.5 76t100.5 20zM1319 1526l-416 -226q-53 -26 -153 -26
q-44 0 -73.5 22.5t-29.5 63.5q0 55 62 88l415 225q56 27 154 27q44 0 73 -23t29 -65q0 -53 -61 -86z" />
    <glyph glyph-name="ucircumflex" unicode="&#xfb;" horiz-adv-x="1824" 
d="M1608 1165q68 0 98.5 -20t30.5 -76v-713q0 -356 -580 -356h-489q-580 0 -580 356v713q0 56 30.5 76t100.5 20q68 0 98.5 -20t30.5 -76v-713q0 -67 82 -108t246 -41h473q164 0 246 41t82 108v713q0 56 30.5 76t100.5 20zM911 1473l-129 -158q-33 -41 -112 -41
q-54 0 -92.5 20.5t-38.5 51.5q0 19 16 38l225 267q40 49 131 49t131 -49l226 -267q16 -19 16 -38q0 -31 -38.5 -51.5t-92.5 -20.5q-80 0 -113 41z" />
    <glyph glyph-name="udieresis" unicode="&#xfc;" horiz-adv-x="1824" 
d="M1608 1165q68 0 98.5 -20t30.5 -76v-713q0 -356 -580 -356h-489q-580 0 -580 356v713q0 56 30.5 76t100.5 20q68 0 98.5 -20t30.5 -76v-713q0 -67 82 -108t246 -41h473q164 0 246 41t82 108v713q0 56 30.5 76t100.5 20zM985 1427q0 66 38 96.5t124 30.5t124 -30.5
t38 -96.5t-38 -96.5t-124 -30.5t-124 30.5t-38 96.5zM514 1427q0 66 38 96.5t124 30.5t124 -30.5t38 -96.5t-38 -96.5t-124 -30.5t-124 30.5t-38 96.5z" />
    <glyph glyph-name="yacute" unicode="&#xfd;" horiz-adv-x="1802" 
d="M676 236h770v833q0 56 30.5 76t98.5 20q70 0 100.5 -20t30.5 -76v-1051q0 -176 -135.5 -265t-394.5 -89h-283q-43 0 -58.5 25t-15.5 80q0 54 15 78t59 24h283q147 0 208.5 36.5t61.5 110.5v11h-778q-580 0 -580 356v684q0 56 30.5 76t98.5 20q70 0 100.5 -20t30.5 -76
v-686q0 -67 82 -107t246 -40zM1309 1526l-416 -226q-53 -26 -154 -26q-44 0 -73 22.5t-29 63.5q0 55 61 88l416 225q55 27 154 27q44 0 73 -23t29 -65q0 -53 -61 -86z" />
    <glyph glyph-name="thorn" unicode="&#xfe;" horiz-adv-x="1806" 
d="M1149 0h-793v-256q0 -56 -30.5 -76t-100.5 -20q-68 0 -98.5 20t-30.5 76v1653q0 56 30.5 76t98.5 20q70 0 100.5 -20t30.5 -76v-240h793q580 0 580 -356v-445q0 -356 -580 -356zM1141 950h-785v-743h785q163 0 245 41.5t82 107.5v445q0 67 -81.5 108t-245.5 41z" />
    <glyph glyph-name="ydieresis" unicode="&#xff;" horiz-adv-x="1802" 
d="M676 236h770v833q0 56 30.5 76t98.5 20q70 0 100.5 -20t30.5 -76v-1051q0 -176 -135.5 -265t-394.5 -89h-283q-43 0 -58.5 25t-15.5 80q0 54 15 78t59 24h283q147 0 208.5 36.5t61.5 110.5v11h-778q-580 0 -580 356v684q0 56 30.5 76t98.5 20q70 0 100.5 -20t30.5 -76
v-686q0 -67 82 -107t246 -40zM975 1427q0 66 38 96.5t124 30.5t123.5 -30t37.5 -97t-37.5 -97t-123.5 -30t-124 30.5t-38 96.5zM504 1427q0 66 38 96.5t124 30.5t123.5 -30t37.5 -97t-37.5 -97t-123.5 -30t-124 30.5t-38 96.5z" />
    <glyph glyph-name="Amacron" unicode="&#x100;" horiz-adv-x="2131" 
d="M1040 1491q107 0 160 -72l893 -1274q14 -22 14 -47q0 -44 -47 -76t-102 -32q-62 0 -90 41l-242 352h-1139l-227 -352q-25 -41 -88 -41q-54 0 -100.5 32.5t-46.5 77.5q0 20 14 45l840 1274q50 72 161 72zM1040 1241l-411 -637h846zM678 1860h776q39 0 53.5 -23t14.5 -72
q0 -50 -14.5 -72t-53.5 -22h-776q-41 0 -54.5 21.5t-13.5 72.5q0 50 14 72.5t54 22.5z" />
    <glyph glyph-name="amacron" unicode="&#x101;" horiz-adv-x="1859" 
d="M1202 0h-557q-579 0 -579 356v109q0 356 579 356h877v2q0 127 -328 127h-193q-44 0 -59.5 24.5t-15.5 78.5q0 56 15.5 80t59.5 24h201q580 0 580 -356v-445q0 -356 -580 -356zM1194 207q163 0 245.5 41.5t82.5 107.5v267h-869q-164 0 -245.5 -41.5t-81.5 -108.5v-117
q0 -66 82 -107.5t245 -41.5h541zM705 1532h776q39 0 53 -22.5t14 -71.5q0 -50 -14 -72.5t-53 -22.5h-776q-41 0 -54.5 22t-13.5 73q0 50 14 72t54 22z" />
    <glyph glyph-name="Abreve" unicode="&#x102;" horiz-adv-x="2131" 
d="M1040 1491q107 0 160 -72l893 -1274q14 -22 14 -47q0 -44 -47 -76t-102 -32q-62 0 -90 41l-242 352h-1139l-227 -352q-25 -41 -88 -41q-54 0 -100.5 32.5t-46.5 77.5q0 20 14 45l840 1274q50 72 161 72zM1040 1241l-411 -637h846zM1065 1602q-119 0 -225 39t-175 116.5
t-69 175.5q0 54 27 74.5t102 20.5q49 0 79 -11.5t46 -44.5t25.5 -51t29.5 -46.5t40 -43.5t51.5 -27t68.5 -12t68.5 12t51.5 27t40 43.5t29.5 46.5t25.5 51t46 44.5t79 11.5q75 0 102 -20.5t27 -74.5q0 -98 -69 -175.5t-175 -116.5t-225 -39z" />
    <glyph glyph-name="abreve" unicode="&#x103;" horiz-adv-x="1859" 
d="M1202 0h-557q-579 0 -579 356v109q0 356 579 356h877v2q0 127 -328 127h-193q-44 0 -59.5 24.5t-15.5 78.5q0 56 15.5 80t59.5 24h201q580 0 580 -356v-445q0 -356 -580 -356zM1194 207q163 0 245.5 41.5t82.5 107.5v267h-869q-164 0 -245.5 -41.5t-81.5 -108.5v-117
q0 -66 82 -107.5t245 -41.5h541zM1094 1274q-119 0 -225 39.5t-175 117t-69 175.5q0 54 27 74t102 20q50 0 79.5 -11t45.5 -44q16 -34 25.5 -51.5t29.5 -46.5t40 -44t51.5 -27t68.5 -12t68.5 12t51.5 27t40 44t29.5 46.5t25.5 51.5q16 33 45.5 44t79.5 11q75 0 102 -20
t27 -74q0 -98 -69 -175.5t-175 -117t-225 -39.5z" />
    <glyph glyph-name="Aogonek" unicode="&#x104;" horiz-adv-x="2131" 
d="M2009 -238q41 0 55.5 -22.5t14.5 -71.5q0 -51 -14.5 -74.5t-55.5 -23.5h-307q-66 0 -114 15.5t-72.5 40.5t-35 49.5t-10.5 50.5v49q0 59 33 98t121 73.5t254 69.5l-252 367h-1139l-227 -352q-25 -41 -88 -41q-53 0 -100 32.5t-47 77.5q0 20 14 45l840 1274q50 72 161 72
q107 0 160 -72l893 -1274q14 -22 14 -47q0 -82 -153 -129q-141 -43 -191.5 -67.5t-50.5 -61.5v-30q0 -28 11.5 -38t43.5 -10h242zM1040 1241l-411 -637h846z" />
    <glyph glyph-name="aogonek" unicode="&#x105;" horiz-adv-x="1859" 
d="M1364 -238q41 0 55.5 -22.5t14.5 -71.5q0 -51 -14.5 -74.5t-55.5 -23.5h-307q-66 0 -114 15.5t-72.5 40.5t-35 49.5t-10.5 50.5v49q0 87 74.5 136.5t274.5 88.5h-529q-579 0 -579 356v109q0 356 579 356h877v2q0 127 -328 127h-193q-44 0 -59.5 24.5t-15.5 78.5
q0 56 15.5 80t59.5 24h201q580 0 580 -356v-445q0 -52 -12.5 -94.5t-41.5 -77.5t-65 -62.5t-94 -54.5t-116 -48.5t-144 -49.5q-142 -44 -192 -68.5t-50 -60.5v-30q0 -28 11.5 -38t43.5 -10h242zM1194 207q163 0 245.5 41.5t82.5 107.5v267h-869q-164 0 -245.5 -41.5
t-81.5 -108.5v-117q0 -66 82 -107.5t245 -41.5h541z" />
    <glyph glyph-name="Cacute" unicode="&#x106;" horiz-adv-x="1835" 
d="M1690 0h-1006q-606 0 -606 381v723q0 381 606 381h1004q47 0 63 -25.5t16 -85.5q0 -59 -16 -84.5t-63 -25.5h-996q-172 0 -258 -44t-86 -116v-723q0 -71 86.5 -115.5t257.5 -44.5h998q47 0 62 -25t15 -85q0 -59 -15 -85t-62 -26zM1325 1853l-416 -225q-53 -26 -153 -26
q-44 0 -73.5 22.5t-29.5 63.5q0 55 62 88l415 225q56 27 154 27q44 0 73 -23.5t29 -65.5q0 -53 -61 -86z" />
    <glyph glyph-name="cacute" unicode="&#x107;" horiz-adv-x="1828" 
d="M1688 0h-1031q-579 0 -579 356v445q0 356 579 356h1024q44 0 60 -24.5t16 -79.5q0 -54 -16 -78.5t-60 -24.5h-1015q-164 0 -246 -41t-82 -108v-445q0 -66 82.5 -107.5t245.5 -41.5h1022q43 0 58 -24t15 -79t-15 -79.5t-58 -24.5zM1321 1526l-416 -226q-53 -26 -153 -26
q-44 0 -73.5 22.5t-29.5 63.5q0 55 62 88l415 225q55 27 154 27q44 0 73 -23t29 -65q0 -53 -61 -86z" />
    <glyph glyph-name="Cdotaccent" unicode="&#x10a;" horiz-adv-x="1835" 
d="M1690 0h-1006q-606 0 -606 381v723q0 381 606 381h1004q47 0 63 -25.5t16 -85.5q0 -59 -16 -84.5t-63 -25.5h-996q-172 0 -258 -44t-86 -116v-723q0 -71 86.5 -115.5t257.5 -44.5h998q47 0 62 -25t15 -85q0 -59 -15 -85t-62 -26zM756 1755q0 66 38 96.5t124 30.5
t123.5 -30t37.5 -97t-37.5 -97t-123.5 -30t-124 30.5t-38 96.5z" />
    <glyph glyph-name="cdotaccent" unicode="&#x10b;" horiz-adv-x="1828" 
d="M1688 0h-1031q-579 0 -579 356v445q0 356 579 356h1024q44 0 60 -24.5t16 -79.5q0 -54 -16 -78.5t-60 -24.5h-1015q-164 0 -246 -41t-82 -108v-445q0 -66 82.5 -107.5t245.5 -41.5h1022q43 0 58 -24t15 -79t-15 -79.5t-58 -24.5zM752 1427q0 67 37.5 97t123.5 30
t124 -30.5t38 -96.5t-38 -96.5t-124 -30.5t-123.5 30t-37.5 97z" />
    <glyph glyph-name="Ccaron" unicode="&#x10c;" horiz-adv-x="1835" 
d="M1690 0h-1006q-606 0 -606 381v723q0 381 606 381h1004q47 0 63 -25.5t16 -85.5q0 -59 -16 -84.5t-63 -25.5h-996q-172 0 -258 -44t-86 -116v-723q0 -71 86.5 -115.5t257.5 -44.5h998q47 0 62 -25t15 -85q0 -59 -15 -85t-62 -26zM918 1829l129 158q33 41 112 41
q54 0 92.5 -20.5t38.5 -51.5q0 -20 -16 -39l-225 -266q-40 -49 -131 -49q-92 0 -132 49l-225 266q-16 19 -16 39q0 31 38.5 51.5t92.5 20.5q79 0 112 -41z" />
    <glyph glyph-name="ccaron" unicode="&#x10d;" horiz-adv-x="1828" 
d="M1688 0h-1031q-579 0 -579 356v445q0 356 579 356h1024q44 0 60 -24.5t16 -79.5q0 -54 -16 -78.5t-60 -24.5h-1015q-164 0 -246 -41t-82 -108v-445q0 -66 82.5 -107.5t245.5 -41.5h1022q43 0 58 -24t15 -79t-15 -79.5t-58 -24.5zM913 1501l129 158q33 41 113 41
q54 0 92.5 -20.5t38.5 -51.5q0 -20 -16 -39l-226 -266q-40 -49 -131 -49t-131 49l-225 266q-16 19 -16 39q0 31 38.5 51.5t92.5 20.5q79 0 112 -41z" />
    <glyph glyph-name="Dcaron" unicode="&#x10e;" horiz-adv-x="2035" 
d="M1958 1104v-723q0 -381 -606 -381h-1162q-94 0 -94 96v1295q0 94 94 94h1162q606 0 606 -381zM369 1264v-1043h974q172 0 259.5 45t87.5 115v723q0 71 -87.5 115.5t-259.5 44.5h-974zM1018 1829l129 158q33 41 113 41q54 0 92.5 -20.5t38.5 -51.5q0 -19 -17 -39
l-225 -266q-40 -49 -131 -49t-131 49l-225 266q-17 20 -17 39q0 31 38.5 51.5t92.5 20.5q80 0 113 -41z" />
    <glyph glyph-name="dcaron" unicode="&#x10f;" horiz-adv-x="2127" 
d="M1468 1157v240q0 56 30.5 76t100.5 20q69 0 99.5 -20t30.5 -76v-1041q0 -356 -580 -356h-492q-579 0 -579 356v445q0 356 579 356h811zM1468 950h-802q-164 0 -246 -41t-82 -108v-445q0 -66 82.5 -107.5t245.5 -41.5h475q163 0 245 41.5t82 107.5v594zM2124 1489
l-33 -193q-7 -47 -38 -64.5t-101 -17.5q-72 0 -103.5 16.5t-31.5 57.5q0 16 8 66l30 180q7 47 38.5 64.5t103.5 17.5t101.5 -17.5t29.5 -62.5q0 -19 -4 -47z" />
    <glyph glyph-name="Dcroat" unicode="&#x110;" horiz-adv-x="2119" 
d="M2042 1104v-723q0 -381 -606 -381h-1162q-94 0 -94 96v525h-80q-47 0 -63.5 25.5t-16.5 84.5t16.5 85t63.5 26h80v549q0 94 94 94h1162q606 0 606 -381zM1290 621h-837v-400h974q172 0 259.5 45t87.5 115v723q0 71 -87.5 115.5t-259.5 44.5h-974v-422h837q47 0 63.5 -26
t16.5 -85t-16.5 -84.5t-63.5 -25.5z" />
    <glyph glyph-name="dmacron" unicode="&#x111;" horiz-adv-x="1816" 
d="M885 1532h776q39 0 53.5 -22.5t14.5 -71.5v-1082q0 -356 -580 -356h-492q-579 0 -579 356v445q0 356 579 356h811v186h-583q-41 0 -54.5 22t-13.5 73q0 50 14 72t54 22zM1468 950h-802q-164 0 -246 -41t-82 -108v-445q0 -66 82.5 -107.5t245.5 -41.5h475q163 0 245 41.5
t82 107.5v594z" />
    <glyph glyph-name="Emacron" unicode="&#x112;" horiz-adv-x="1826" 
d="M1677 621h-1329v-240q0 -71 86.5 -115.5t257.5 -44.5h979q47 0 63.5 -25.5t16.5 -84.5q0 -58 -16.5 -84.5t-63.5 -26.5h-987q-606 0 -606 381v723q0 381 606 381h305q45 0 61.5 -26t16.5 -85t-16.5 -84.5t-61.5 -25.5h-297q-172 0 -258 -44t-86 -116v-262h1329
q47 0 63.5 -26t16.5 -85t-16.5 -84.5t-63.5 -25.5zM463 1860h776q39 0 53.5 -23t14.5 -72q0 -50 -14.5 -72t-53.5 -22h-776q-41 0 -54.5 21.5t-13.5 72.5q0 50 14 72.5t54 22.5z" />
    <glyph glyph-name="emacron" unicode="&#x113;" 
d="M1587 461h-1249v-105q0 -66 82.5 -107.5t245.5 -41.5h235q43 0 58.5 -24t15.5 -79t-15.5 -79.5t-58.5 -24.5h-244q-579 0 -579 356v445q0 356 579 356h473q304 0 442 -87t138 -269v-236q0 -62 -23.5 -83t-99.5 -21zM338 801v-137h1112v137q0 149 -328 149h-456
q-164 0 -246 -41t-82 -108zM498 1532h776q39 0 53 -22.5t14 -71.5q0 -50 -14 -72.5t-53 -22.5h-776q-41 0 -54.5 22t-13.5 73q0 50 14 72t54 22z" />
    <glyph glyph-name="Ebreve" unicode="&#x114;" horiz-adv-x="1826" 
d="M1677 621h-1329v-240q0 -71 86.5 -115.5t257.5 -44.5h979q47 0 63.5 -25.5t16.5 -84.5q0 -58 -16.5 -84.5t-63.5 -26.5h-987q-606 0 -606 381v723q0 381 606 381h305q45 0 61.5 -26t16.5 -85t-16.5 -84.5t-61.5 -25.5h-297q-172 0 -258 -44t-86 -116v-262h1329
q47 0 63.5 -26t16.5 -85t-16.5 -84.5t-63.5 -25.5zM852 1602q-119 0 -225 39t-175 116.5t-69 175.5q0 54 27 74.5t102 20.5q49 0 79 -11.5t46 -44.5t25.5 -51t29.5 -46.5t40 -43.5t51.5 -27t68.5 -12t68.5 12t51.5 27t40 43.5t29.5 46.5t25.5 51t46 44.5t79 11.5
q75 0 102 -20.5t27 -74.5q0 -98 -69 -175.5t-175 -116.5t-225 -39z" />
    <glyph glyph-name="ebreve" unicode="&#x115;" 
d="M1587 461h-1249v-105q0 -66 82.5 -107.5t245.5 -41.5h235q43 0 58.5 -24t15.5 -79t-15.5 -79.5t-58.5 -24.5h-244q-579 0 -579 356v445q0 356 579 356h473q304 0 442 -87t138 -269v-236q0 -62 -23.5 -83t-99.5 -21zM338 801v-137h1112v137q0 149 -328 149h-456
q-164 0 -246 -41t-82 -108zM885 1274q-119 0 -225 39.5t-175 117t-69 175.5q0 54 27 74t102 20q50 0 79.5 -11t45.5 -44q16 -34 25.5 -51.5t29.5 -46.5t40 -44t51.5 -27t68.5 -12t68.5 12t51.5 27t40 44t29.5 46.5t25.5 51.5q16 33 45.5 44t79.5 11q75 0 102 -20t27 -74
q0 -98 -69 -175.5t-175 -117t-225 -39.5z" />
    <glyph glyph-name="Edotaccent" unicode="&#x116;" horiz-adv-x="1826" 
d="M1677 621h-1329v-240q0 -71 86.5 -115.5t257.5 -44.5h979q47 0 63.5 -25.5t16.5 -84.5q0 -58 -16.5 -84.5t-63.5 -26.5h-987q-606 0 -606 381v723q0 381 606 381h305q45 0 61.5 -26t16.5 -85t-16.5 -84.5t-61.5 -25.5h-297q-172 0 -258 -44t-86 -116v-262h1329
q47 0 63.5 -26t16.5 -85t-16.5 -84.5t-63.5 -25.5zM690 1755q0 66 38 96.5t124 30.5t124 -30.5t38 -96.5t-38 -96.5t-124 -30.5t-124 30.5t-38 96.5z" />
    <glyph glyph-name="edotaccent" unicode="&#x117;" 
d="M1587 461h-1249v-105q0 -66 82.5 -107.5t245.5 -41.5h235q43 0 58.5 -24t15.5 -79t-15.5 -79.5t-58.5 -24.5h-244q-579 0 -579 356v445q0 356 579 356h473q304 0 442 -87t138 -269v-236q0 -62 -23.5 -83t-99.5 -21zM338 801v-137h1112v137q0 149 -328 149h-456
q-164 0 -246 -41t-82 -108zM723 1427q0 66 38 96.5t124 30.5t124 -30.5t38 -96.5t-38 -96.5t-124 -30.5t-124 30.5t-38 96.5z" />
    <glyph glyph-name="Eogonek" unicode="&#x118;" horiz-adv-x="1826" 
d="M1692 -238q40 0 54.5 -22.5t14.5 -71.5q0 -51 -14.5 -74.5t-54.5 -23.5h-308q-66 0 -114 15.5t-72 40.5t-34.5 49.5t-10.5 50.5v49q0 87 74 136.5t274 88.5h-817q-606 0 -606 381v723q0 381 606 381h305q45 0 61.5 -26t16.5 -85t-16.5 -84.5t-61.5 -25.5h-297
q-172 0 -258 -44t-86 -116v-262h1329q47 0 63.5 -26t16.5 -85t-16.5 -84.5t-63.5 -25.5h-1329v-240q0 -71 86.5 -115.5t257.5 -44.5h979q45 0 62.5 -25t17.5 -77q0 -65 -25.5 -97t-89.5 -53q-145 -45 -193 -69t-48 -60v-30q0 -28 11.5 -38t43.5 -10h242z" />
    <glyph glyph-name="eogonek" unicode="&#x119;" 
d="M905 -238q41 0 55.5 -22.5t14.5 -71.5q0 -51 -14.5 -74.5t-55.5 -23.5h-307q-66 0 -114 15.5t-72 40.5t-34.5 49.5t-10.5 50.5v49q0 87 74 136.5t274 88.5h-58q-579 0 -579 356v445q0 356 579 356h473q304 0 442 -87t138 -269v-236q0 -62 -23.5 -83t-99.5 -21h-1249v-105
q0 -66 82.5 -107.5t245.5 -41.5h235q42 0 58 -23.5t16 -72.5q0 -66 -25.5 -92.5t-99.5 -49.5q-146 -47 -194 -70.5t-48 -58.5v-30q0 -28 12 -38t44 -10h241zM338 801v-137h1112v137q0 149 -328 149h-456q-164 0 -246 -41t-82 -108z" />
    <glyph glyph-name="Ecaron" unicode="&#x11a;" horiz-adv-x="1826" 
d="M1677 621h-1329v-240q0 -71 86.5 -115.5t257.5 -44.5h979q47 0 63.5 -25.5t16.5 -84.5q0 -58 -16.5 -84.5t-63.5 -26.5h-987q-606 0 -606 381v723q0 381 606 381h305q45 0 61.5 -26t16.5 -85t-16.5 -84.5t-61.5 -25.5h-297q-172 0 -258 -44t-86 -116v-262h1329
q47 0 63.5 -26t16.5 -85t-16.5 -84.5t-63.5 -25.5zM852 1829l129 158q33 41 113 41q54 0 92.5 -20.5t38.5 -51.5q0 -19 -17 -39l-225 -266q-40 -49 -131 -49t-131 49l-225 266q-17 20 -17 39q0 31 38.5 51.5t92.5 20.5q80 0 113 -41z" />
    <glyph glyph-name="ecaron" unicode="&#x11b;" 
d="M1587 461h-1249v-105q0 -66 82.5 -107.5t245.5 -41.5h235q43 0 58.5 -24t15.5 -79t-15.5 -79.5t-58.5 -24.5h-244q-579 0 -579 356v445q0 356 579 356h473q304 0 442 -87t138 -269v-236q0 -62 -23.5 -83t-99.5 -21zM338 801v-137h1112v137q0 149 -328 149h-456
q-164 0 -246 -41t-82 -108zM885 1501l129 158q33 41 112 41q54 0 92.5 -20.5t38.5 -51.5q0 -20 -16 -39l-225 -266q-40 -49 -131 -49t-131 49l-226 266q-16 19 -16 39q0 31 38.5 51.5t92.5 20.5q80 0 113 -41z" />
    <glyph glyph-name="Gbreve" unicode="&#x11e;" horiz-adv-x="1986" 
d="M1913 745v-364q0 -381 -608 -381h-621q-606 0 -606 381v723q0 381 606 381h289q47 0 63.5 -26t16.5 -85t-16.5 -84.5t-63.5 -25.5h-281q-172 0 -258 -44t-86 -116v-723q0 -71 86.5 -115.5t257.5 -44.5h604q171 0 256.5 44.5t85.5 115.5v364q0 57 32 77t104 20
q73 0 106 -20t33 -77zM932 1602q-119 0 -225 39t-175 116.5t-69 175.5q0 54 27 74.5t102 20.5q49 0 79 -11.5t46 -44.5t25.5 -51t29.5 -46.5t40 -43.5t51.5 -27t68.5 -12t68.5 12t51.5 27t40 43.5t29.5 46.5t25.5 51t46 44.5t79 11.5q75 0 102 -20.5t27 -74.5
q0 -98 -69 -175.5t-175 -116.5t-225 -39z" />
    <glyph glyph-name="gbreve" unicode="&#x11f;" horiz-adv-x="1794" 
d="M1176 -336h-283q-43 0 -58.5 25t-15.5 80q0 54 15 78t59 24h283q147 0 208.5 36.5t61.5 110.5v11h-789q-579 0 -579 356v416q0 356 579 356h469q580 0 580 -356v-783q0 -176 -135.5 -265t-394.5 -89zM666 231h780v570q0 66 -82.5 107.5t-245.5 41.5h-452
q-163 0 -245.5 -41.5t-82.5 -107.5v-420q0 -67 82 -108.5t246 -41.5zM897 1274q-119 0 -225 39.5t-175 117t-69 175.5q0 54 27 74t102 20q50 0 79.5 -11t45.5 -44q16 -34 25.5 -51.5t29.5 -46.5t40 -44t51.5 -27t68.5 -12t68.5 12t51.5 27t40 44t29.5 46.5t25.5 51.5
q16 33 45.5 44t79.5 11q75 0 102 -20t27 -74q0 -98 -69 -175.5t-175 -117t-225 -39.5z" />
    <glyph glyph-name="Gdotaccent" unicode="&#x120;" horiz-adv-x="1986" 
d="M1913 745v-364q0 -381 -608 -381h-621q-606 0 -606 381v723q0 381 606 381h289q47 0 63.5 -26t16.5 -85t-16.5 -84.5t-63.5 -25.5h-281q-172 0 -258 -44t-86 -116v-723q0 -71 86.5 -115.5t257.5 -44.5h604q171 0 256.5 44.5t85.5 115.5v364q0 57 32 77t104 20
q73 0 106 -20t33 -77zM770 1755q0 66 38 96.5t124 30.5t124 -30.5t38 -96.5t-38 -96.5t-124 -30.5t-124 30.5t-38 96.5z" />
    <glyph glyph-name="gdotaccent" unicode="&#x121;" horiz-adv-x="1794" 
d="M1176 -336h-283q-43 0 -58.5 25t-15.5 80q0 54 15 78t59 24h283q147 0 208.5 36.5t61.5 110.5v11h-789q-579 0 -579 356v416q0 356 579 356h469q580 0 580 -356v-783q0 -176 -135.5 -265t-394.5 -89zM666 231h780v570q0 66 -82.5 107.5t-245.5 41.5h-452
q-163 0 -245.5 -41.5t-82.5 -107.5v-420q0 -67 82 -108.5t246 -41.5zM735 1427q0 66 38 96.5t124 30.5t124 -30.5t38 -96.5t-38 -96.5t-124 -30.5t-124 30.5t-38 96.5z" />
    <glyph glyph-name="Gcommaaccent" unicode="&#x122;" horiz-adv-x="1986" 
d="M1913 745v-364q0 -381 -608 -381h-621q-606 0 -606 381v723q0 381 606 381h289q47 0 63.5 -26t16.5 -85t-16.5 -84.5t-63.5 -25.5h-281q-172 0 -258 -44t-86 -116v-723q0 -71 86.5 -115.5t257.5 -44.5h604q171 0 256.5 44.5t85.5 115.5v364q0 57 32 77t104 20
q73 0 106 -20t33 -77zM1145 -156l-33 -192q-7 -47 -38 -64.5t-101 -17.5q-72 0 -103.5 16.5t-31.5 57.5q0 15 8 65l31 180q7 47 38.5 64.5t102.5 17.5q72 0 101.5 -17.5t29.5 -62.5q0 -19 -4 -47z" />
    <glyph glyph-name="gcommaaccent" unicode="&#x123;" horiz-adv-x="1794" 
d="M1176 -336h-283q-43 0 -58.5 25t-15.5 80q0 54 15 78t59 24h283q147 0 208.5 36.5t61.5 110.5v11h-789q-579 0 -579 356v416q0 356 579 356h469q580 0 580 -356v-783q0 -176 -135.5 -265t-394.5 -89zM666 231h780v570q0 66 -82.5 107.5t-245.5 41.5h-452
q-163 0 -245.5 -41.5t-82.5 -107.5v-420q0 -67 82 -108.5t246 -41.5zM1120 1489l-33 -193q-7 -47 -38 -64.5t-101 -17.5q-72 0 -103.5 16.5t-31.5 57.5q0 16 8 66l31 180q7 47 38.5 64.5t102.5 17.5q72 0 101.5 -17.5t29.5 -62.5q0 -19 -4 -47z" />
    <glyph glyph-name="Hbar" unicode="&#x126;" horiz-adv-x="2056" 
d="M369 1397v-133h1319v133q0 56 32.5 76t104.5 20q71 0 103 -20t32 -76v-1309q0 -56 -32 -76t-103 -20q-72 0 -104.5 20t-32.5 76v533h-1319v-533q0 -56 -33 -76t-105 -20q-71 0 -103 20t-32 76v1309q0 56 32 76t103 20q72 0 105 -20t33 -76zM369 842h1319v233h-1319v-233z
" />
    <glyph glyph-name="hbar" unicode="&#x127;" horiz-adv-x="1810" 
d="M164 1532h776q39 0 53.5 -22.5t14.5 -71.5q0 -50 -14.5 -72.5t-53.5 -22.5h-584v-186h787q579 0 579 -356v-713q0 -56 -30.5 -76t-100.5 -20q-68 0 -98.5 20t-30.5 76v713q0 67 -81.5 108t-245.5 41h-779v-862q0 -56 -30.5 -76t-100.5 -20q-68 0 -98.5 20t-30.5 76v1350
q0 50 14 72t54 22z" />
    <glyph glyph-name="Imacron" unicode="&#x12a;" horiz-adv-x="681" 
d="M477 1397v-1309q0 -56 -32.5 -76t-104.5 -20q-71 0 -103 20t-32 76v1309q0 56 32 76t103 20q72 0 104.5 -20t32.5 -76zM-47 1860h776q39 0 53.5 -23t14.5 -72q0 -50 -14.5 -72t-53.5 -22h-776q-41 0 -54.5 21.5t-13.5 72.5q0 50 14 72.5t54 22.5z" />
    <glyph glyph-name="imacron" unicode="&#x12b;" horiz-adv-x="890" 
d="M575 1069v-981q0 -56 -30.5 -76t-100.5 -20q-68 0 -98.5 20t-30.5 76v981q0 56 30.5 76t98.5 20q70 0 100.5 -20t30.5 -76zM57 1532h777q39 0 53 -22.5t14 -71.5q0 -50 -14 -72.5t-53 -22.5h-777q-40 0 -53.5 22t-13.5 73q0 50 13.5 72t53.5 22z" />
    <glyph glyph-name="Ibreve" unicode="&#x12c;" horiz-adv-x="714" 
d="M494 1397v-1309q0 -56 -33 -76t-105 -20q-71 0 -103 20t-32 76v1309q0 56 32 76t103 20q72 0 105 -20t33 -76zM358 1602q-119 0 -225 39t-175 116.5t-69 175.5q0 54 27 74.5t102 20.5q49 0 79 -11.5t46 -44.5t25.5 -51t29.5 -46.5t40 -43.5t51.5 -27t68.5 -12t68.5 12
t51.5 27t40 43.5t29.5 46.5t25.5 51t46 44.5t79 11.5q75 0 102 -20.5t27 -74.5q0 -98 -69 -175.5t-175 -116.5t-225 -39z" />
    <glyph glyph-name="ibreve" unicode="&#x12d;" horiz-adv-x="911" 
d="M586 1069v-981q0 -56 -30.5 -76t-100.5 -20q-68 0 -98.5 20t-30.5 76v981q0 56 30.5 76t98.5 20q70 0 100.5 -20t30.5 -76zM457 1274q-119 0 -225 39.5t-175 117t-69 175.5q0 54 27 74t102 20q50 0 79.5 -11t45.5 -44q16 -34 25.5 -51.5t29.5 -46.5t40 -44t51.5 -27
t68.5 -12t68.5 12t51.5 27t40 44t29.5 46.5t25.5 51.5q16 33 45.5 44t79.5 11q75 0 102 -20t27 -74q0 -98 -69 -175.5t-175 -117t-225 -39.5z" />
    <glyph glyph-name="Iogonek" unicode="&#x12e;" horiz-adv-x="589" 
d="M432 -238q41 0 55.5 -22.5t14.5 -71.5q0 -51 -14.5 -74.5t-55.5 -23.5h-307q-66 0 -114 15.5t-72 40.5t-34.5 49.5t-10.5 50.5v49q0 59 31 98t111 71.5t226 61.5q-41 23 -41 82v1309q0 56 32 76t103 20q72 0 105 -20t33 -76v-1309q0 -49 -32 -75.5t-85 -43.5
q-145 -45 -193.5 -69t-48.5 -60v-30q0 -28 11.5 -38t43.5 -10h242z" />
    <glyph glyph-name="iogonek" unicode="&#x12f;" horiz-adv-x="589" 
d="M434 -238q41 0 55.5 -22.5t14.5 -71.5q0 -51 -14.5 -74.5t-55.5 -23.5h-307q-66 0 -114 15.5t-72 40.5t-34.5 49.5t-10.5 50.5v49q0 59 31 98t112 71.5t229 61.5q-35 20 -35 82v967q0 56 30.5 76t98.5 20q70 0 101 -20t31 -76v-967q0 -49 -31.5 -75.5t-83.5 -43.5
q-145 -45 -193.5 -69t-48.5 -60v-30q0 -28 12 -38t44 -10h241zM201 1366q0 67 37.5 97t123.5 30t124 -30.5t38 -96.5t-38 -96.5t-124 -30.5t-123.5 30t-37.5 97z" />
    <glyph glyph-name="Idotaccent" unicode="&#x130;" horiz-adv-x="464" 
d="M369 1397v-1309q0 -56 -33 -76t-105 -20q-71 0 -103 20t-32 76v1309q0 56 32 76t103 20q72 0 105 -20t33 -76zM72 1755q0 67 37.5 97t123.5 30t124 -30.5t38 -96.5t-38 -96.5t-124 -30.5t-123.5 30t-37.5 97z" />
    <glyph glyph-name="dotlessi" unicode="&#x131;" horiz-adv-x="452" 
d="M356 1069v-981q0 -56 -30.5 -76t-100.5 -20q-68 0 -98.5 20t-30.5 76v981q0 56 30.5 76t98.5 20q70 0 100.5 -20t30.5 -76z" />
    <glyph glyph-name="IJ" unicode="&#x132;" horiz-adv-x="921" 
d="M369 1397v-1252q0 -56 -33 -76t-105 -20q-71 0 -103 20t-32 76v1252q0 56 32 76t103 20q72 0 105 -20t33 -76zM225 -336h-51q-47 0 -62.5 26.5t-15.5 86.5q0 58 15.5 83t62.5 25h45q171 0 256.5 44.5t85.5 115.5v1352q0 56 32.5 76t104.5 20q71 0 103.5 -20t32.5 -76
v-1352q0 -381 -609 -381z" />
    <glyph glyph-name="ij" unicode="&#x133;" horiz-adv-x="940" 
d="M356 1055v-967q0 -56 -30.5 -76t-100.5 -20q-68 0 -98.5 20t-30.5 76v967q0 56 30.5 76t98.5 20q70 0 100.5 -20t30.5 -76zM63 1366q0 66 38 96.5t124 30.5t124 -30.5t38 -96.5t-38 -96.5t-124 -30.5t-124 30.5t-38 96.5zM551 1366q0 66 38 96.5t124 30.5t123.5 -30
t37.5 -97t-37.5 -97t-123.5 -30t-124 30.5t-38 96.5zM313 -336h-168q-43 0 -58 25t-15 80t15 78.5t58 23.5h168q147 0 209 36.5t62 110.5v1037q0 56 30.5 76t100.5 20q68 0 98.5 -20t30.5 -76v-1037q0 -176 -136 -265t-395 -89z" />
    <glyph glyph-name="Kcommaaccent" unicode="&#x136;" horiz-adv-x="1800" 
d="M369 1397v-514l1079 581q31 16 65.5 22.5t100.5 6.5q47 0 78.5 -24.5t31.5 -69.5q0 -61 -65 -94l-1094 -551l1131 -574q65 -33 65 -94q0 -45 -31.5 -69.5t-78.5 -24.5q-67 0 -101 6t-65 22l-1116 592v-524q0 -56 -33 -76t-105 -20q-71 0 -103 20t-32 76v1309q0 56 32 76
t103 20q72 0 105 -20t33 -76zM989 -156l-33 -192q-7 -47 -38 -64.5t-101 -17.5q-72 0 -103.5 16.5t-31.5 57.5q0 15 8 65l31 180q7 47 38.5 64.5t102.5 17.5q72 0 101.5 -17.5t29.5 -62.5q0 -19 -4 -47z" />
    <glyph glyph-name="kcommaaccent" unicode="&#x137;" horiz-adv-x="1509" 
d="M356 1397v-697l840 443q43 22 158 22q44 0 72 -19t28 -56q0 -46 -57 -74l-824 -432l838 -424q59 -30 59 -86q0 -44 -35 -63t-108 -19q-99 0 -158 31l-813 430v-365q0 -56 -30.5 -76t-100.5 -20q-68 0 -98.5 20t-30.5 76v1309q0 56 30.5 76t98.5 20q70 0 100.5 -20
t30.5 -76zM844 -156l-33 -192q-7 -47 -38 -64.5t-101 -17.5q-72 0 -103.5 16.5t-31.5 57.5q0 15 8 65l30 180q7 47 38.5 64.5t103.5 17.5t101.5 -17.5t29.5 -62.5q0 -19 -4 -47z" />
    <glyph glyph-name="Lacute" unicode="&#x139;" horiz-adv-x="1808" 
d="M1706 0h-1012q-606 0 -606 381v1016q0 56 32 76t103 20q72 0 104.5 -20t32.5 -76v-1016q0 -71 85.5 -115.5t256.5 -44.5h1004q47 0 62.5 -25t15.5 -83q0 -60 -15.5 -86.5t-62.5 -26.5zM901 1853l-416 -225q-53 -26 -153 -26q-44 0 -73.5 22.5t-29.5 63.5q0 55 62 88
l416 225q55 27 153 27q44 0 73.5 -23.5t29.5 -65.5q0 -53 -62 -86z" />
    <glyph glyph-name="lacute" unicode="&#x13a;" horiz-adv-x="452" 
d="M356 1397v-1309q0 -56 -30.5 -76t-100.5 -20q-68 0 -98.5 20t-30.5 76v1309q0 56 30.5 76t98.5 20q70 0 100.5 -20t30.5 -76zM635 1853l-416 -225q-53 -26 -153 -26q-44 0 -73.5 22.5t-29.5 63.5q0 55 62 88l415 225q56 27 154 27q44 0 73 -23.5t29 -65.5q0 -53 -61 -86z
" />
    <glyph glyph-name="Lcommaaccent" unicode="&#x13b;" horiz-adv-x="1808" 
d="M1706 0h-1012q-606 0 -606 381v1016q0 56 32 76t103 20q72 0 104.5 -20t32.5 -76v-1016q0 -71 85.5 -115.5t256.5 -44.5h1004q47 0 62.5 -25t15.5 -83q0 -60 -15.5 -86.5t-62.5 -26.5zM1055 -156l-33 -192q-7 -47 -38 -64.5t-101 -17.5q-72 0 -103.5 16.5t-31.5 57.5
q0 15 8 65l30 180q7 47 38.5 64.5t103.5 17.5t101.5 -17.5t29.5 -62.5q0 -19 -4 -47z" />
    <glyph glyph-name="lcommaaccent" unicode="&#x13c;" horiz-adv-x="452" 
d="M356 1397v-1309q0 -56 -30.5 -76t-100.5 -20q-68 0 -98.5 20t-30.5 76v1309q0 56 30.5 76t98.5 20q70 0 100.5 -20t30.5 -76zM379 -156l-33 -192q-7 -47 -38 -64.5t-101 -17.5q-72 0 -103.5 16.5t-31.5 57.5q0 15 8 65l31 180q7 47 38.5 64.5t102.5 17.5
q72 0 101.5 -17.5t29.5 -62.5q0 -19 -4 -47z" />
    <glyph glyph-name="Lcaron" unicode="&#x13d;" horiz-adv-x="1808" 
d="M1706 0h-1012q-606 0 -606 381v1016q0 56 32 76t103 20q72 0 104.5 -20t32.5 -76v-1016q0 -71 85.5 -115.5t256.5 -44.5h1004q47 0 62.5 -25t15.5 -83q0 -60 -15.5 -86.5t-62.5 -26.5zM1038 1489l-32 -193q-7 -47 -38.5 -64.5t-101.5 -17.5q-72 0 -103.5 16.5t-31.5 57.5
q0 16 8 66l31 180q7 47 38.5 64.5t102.5 17.5q72 0 101.5 -17.5t29.5 -62.5q0 -19 -4 -47z" />
    <glyph glyph-name="lcaron" unicode="&#x13e;" horiz-adv-x="763" 
d="M356 1397v-1309q0 -56 -30.5 -76t-100.5 -20q-68 0 -98.5 20t-30.5 76v1309q0 56 30.5 76t98.5 20q70 0 100.5 -20t30.5 -76zM760 1489l-33 -193q-7 -47 -38 -64.5t-101 -17.5q-72 0 -103.5 16.5t-31.5 57.5q0 16 8 66l31 180q7 47 38.5 64.5t102.5 17.5
q72 0 101.5 -17.5t29.5 -62.5q0 -19 -4 -47z" />
    <glyph glyph-name="Ldot" unicode="&#x13f;" horiz-adv-x="1808" 
d="M1706 0h-1012q-606 0 -606 381v1016q0 56 32 76t103 20q72 0 104.5 -20t32.5 -76v-1016q0 -71 85.5 -115.5t256.5 -44.5h1004q47 0 62.5 -25t15.5 -83q0 -60 -15.5 -86.5t-62.5 -26.5zM588 782q0 66 38 96.5t124 30.5t123.5 -30t37.5 -97t-37.5 -97t-123.5 -30t-124 30.5
t-38 96.5z" />
    <glyph glyph-name="ldot" unicode="&#x140;" horiz-adv-x="737" 
d="M356 1397v-1309q0 -56 -30.5 -76t-100.5 -20q-68 0 -98.5 20t-30.5 76v1309q0 56 30.5 76t98.5 20q70 0 100.5 -20t30.5 -76zM424 782q0 66 38 96.5t124 30.5t124 -30.5t38 -96.5t-38 -96.5t-124 -30.5t-124 30.5t-38 96.5z" />
    <glyph glyph-name="Lslash" unicode="&#x141;" horiz-adv-x="1888" 
d="M57 920l111 45v432q0 56 32 76t103 20q72 0 104.5 -20t32.5 -76v-318l471 197q57 22 138 22q44 0 69 -18t25 -53q0 -55 -51 -74l-652 -272v-500q0 -71 85.5 -115.5t256.5 -44.5h1004q47 0 62.5 -25t15.5 -83q0 -60 -15.5 -86.5t-62.5 -26.5h-1012q-606 0 -606 381v397
q-20 -4 -70 -4q-42 0 -67 18.5t-25 53.5q0 55 51 74z" />
    <glyph glyph-name="lslash" unicode="&#x142;" horiz-adv-x="905" 
d="M66 911l256 107v379q0 56 30.5 76t98.5 20q70 0 100.5 -20t30.5 -76v-271l77 33q59 23 138 23q44 0 69 -18.5t25 -53.5q0 -55 -51 -74l-258 -108v-840q0 -56 -30.5 -76t-100.5 -20q-68 0 -98.5 20t-30.5 76v731l-76 -31q-57 -22 -140 -22q-42 0 -67 18.5t-25 53.5
q0 53 52 73z" />
    <glyph glyph-name="Nacute" unicode="&#x143;" horiz-adv-x="2041" 
d="M1804 -8q-54 0 -80 11.5t-82 57.5l-1273 1074v-1047q0 -56 -33 -76t-105 -20q-71 0 -103 20t-32 76v1309q0 55 31 75.5t98 20.5q64 0 103 -16.5t90 -59.5l1255 -1069v1049q0 56 32 76t103 20q72 0 105 -20t33 -76v-1309q0 -57 -33 -76.5t-109 -19.5zM1427 1853l-415 -225
q-53 -26 -154 -26q-44 0 -73 22.5t-29 63.5q0 55 61 88l416 225q55 27 153 27q44 0 73.5 -23.5t29.5 -65.5q0 -53 -62 -86z" />
    <glyph glyph-name="nacute" unicode="&#x144;" horiz-adv-x="1781" 
d="M217 -8q-68 0 -98.5 20t-30.5 76v713q0 356 580 356h446q580 0 580 -356v-713q0 -56 -30.5 -76t-100.5 -20q-68 0 -98.5 20t-30.5 76v713q0 67 -82 108t-246 41h-430q-164 0 -246 -41t-82 -108v-713q0 -56 -30.5 -76t-100.5 -20zM1298 1526l-415 -226q-53 -26 -154 -26
q-44 0 -73 22.5t-29 63.5q0 55 61 88l416 225q30 15 61 21t92 6q44 0 73.5 -23t29.5 -65q0 -53 -62 -86z" />
    <glyph glyph-name="Ncommaaccent" unicode="&#x145;" horiz-adv-x="2041" 
d="M1804 -8q-54 0 -80 11.5t-82 57.5l-1273 1074v-1047q0 -56 -33 -76t-105 -20q-71 0 -103 20t-32 76v1309q0 55 31 75.5t98 20.5q64 0 103 -16.5t90 -59.5l1255 -1069v1049q0 56 32 76t103 20q72 0 105 -20t33 -76v-1309q0 -57 -33 -76.5t-109 -19.5zM1171 -156l-32 -192
q-7 -47 -38.5 -64.5t-101.5 -17.5q-72 0 -103.5 16.5t-31.5 57.5q0 15 8 65l31 180q7 47 38.5 64.5t102.5 17.5q72 0 102 -17.5t30 -62.5q0 -12 -5 -47z" />
    <glyph glyph-name="ncommaaccent" unicode="&#x146;" horiz-adv-x="1781" 
d="M217 -8q-68 0 -98.5 20t-30.5 76v713q0 356 580 356h446q580 0 580 -356v-713q0 -56 -30.5 -76t-100.5 -20q-68 0 -98.5 20t-30.5 76v713q0 67 -82 108t-246 41h-430q-164 0 -246 -41t-82 -108v-713q0 -56 -30.5 -76t-100.5 -20zM1042 -156l-32 -192q-7 -47 -38.5 -64.5
t-101.5 -17.5q-72 0 -103.5 16.5t-31.5 57.5q0 15 8 65l31 180q7 47 38.5 64.5t102.5 17.5q72 0 102 -17.5t30 -62.5q0 -12 -5 -47z" />
    <glyph glyph-name="Ncaron" unicode="&#x147;" horiz-adv-x="2041" 
d="M1804 -8q-54 0 -80 11.5t-82 57.5l-1273 1074v-1047q0 -56 -33 -76t-105 -20q-71 0 -103 20t-32 76v1309q0 55 31 75.5t98 20.5q64 0 103 -16.5t90 -59.5l1255 -1069v1049q0 56 32 76t103 20q72 0 105 -20t33 -76v-1309q0 -57 -33 -76.5t-109 -19.5zM1020 1829l129 158
q33 41 113 41q54 0 92.5 -20.5t38.5 -51.5q0 -19 -17 -39l-225 -266q-40 -49 -131 -49t-131 49l-225 266q-17 20 -17 39q0 31 38.5 51.5t92.5 20.5q80 0 113 -41z" />
    <glyph glyph-name="ncaron" unicode="&#x148;" horiz-adv-x="1781" 
d="M217 -8q-68 0 -98.5 20t-30.5 76v713q0 356 580 356h446q580 0 580 -356v-713q0 -56 -30.5 -76t-100.5 -20q-68 0 -98.5 20t-30.5 76v713q0 67 -82 108t-246 41h-430q-164 0 -246 -41t-82 -108v-713q0 -56 -30.5 -76t-100.5 -20zM891 1501l129 158q33 41 113 41
q54 0 92.5 -20.5t38.5 -51.5q0 -19 -17 -39l-225 -266q-40 -49 -131 -49t-131 49l-225 266q-17 20 -17 39q0 31 38.5 51.5t92.5 20.5q80 0 113 -41z" />
    <glyph glyph-name="Eng" unicode="&#x14a;" horiz-adv-x="2041" 
d="M1403 -336h-168q-43 0 -58.5 25t-15.5 80q0 54 15 78t59 24h168q147 0 208.5 36.5t61.5 110.5v19l-1304 1098v-1047q0 -56 -33 -76t-105 -20q-71 0 -103 20t-32 76v1309q0 55 31 75.5t98 20.5q64 0 103 -16.5t90 -59.5l1255 -1069v1049q0 56 32 76t103 20q72 0 105 -20
t33 -76v-1379q0 -175 -141.5 -264.5t-401.5 -89.5z" />
    <glyph glyph-name="eng" unicode="&#x14b;" horiz-adv-x="1781" 
d="M1163 -336h-168q-43 0 -58 25t-15 80t15 78.5t58 23.5h168q147 0 209 36.5t62 110.5v783q0 67 -82 108t-246 41h-430q-164 0 -246 -41t-82 -108v-713q0 -56 -30.5 -76t-100.5 -20q-68 0 -98.5 20t-30.5 76v713q0 356 580 356h446q580 0 580 -356v-783q0 -176 -136 -265
t-395 -89z" />
    <glyph glyph-name="Omacron" unicode="&#x14c;" horiz-adv-x="1964" 
d="M1280 0h-596q-606 0 -606 381v723q0 381 606 381h596q606 0 606 -381v-723q0 -381 -606 -381zM1272 221q171 0 257.5 44.5t86.5 115.5v723q0 72 -86 116t-258 44h-580q-172 0 -258 -44t-86 -116v-723q0 -71 86.5 -115.5t257.5 -44.5h580zM594 1860h776q39 0 53.5 -23
t14.5 -72q0 -50 -14.5 -72t-53.5 -22h-776q-41 0 -54.5 21.5t-13.5 72.5q0 50 14 72.5t54 22.5z" />
    <glyph glyph-name="omacron" unicode="&#x14d;" horiz-adv-x="1761" 
d="M78 801q0 356 579 356h447q579 0 579 -356v-445q0 -356 -579 -356h-447q-579 0 -579 356v445zM1423 356v445q0 67 -81.5 108t-245.5 41h-430q-164 0 -246 -41t-82 -108v-445q0 -66 82.5 -107.5t245.5 -41.5h430q163 0 245 41.5t82 107.5zM492 1532h776q39 0 53 -22.5
t14 -71.5q0 -50 -14 -72.5t-53 -22.5h-776q-41 0 -54.5 22t-13.5 73q0 50 14 72t54 22z" />
    <glyph glyph-name="Obreve" unicode="&#x14e;" horiz-adv-x="1964" 
d="M1280 0h-596q-606 0 -606 381v723q0 381 606 381h596q606 0 606 -381v-723q0 -381 -606 -381zM1272 221q171 0 257.5 44.5t86.5 115.5v723q0 72 -86 116t-258 44h-580q-172 0 -258 -44t-86 -116v-723q0 -71 86.5 -115.5t257.5 -44.5h580zM981 1602q-119 0 -225 39
t-175 116.5t-69 175.5q0 54 27 74.5t102 20.5q49 0 79 -11.5t46 -44.5t25.5 -51t29.5 -46.5t40 -43.5t51.5 -27t68.5 -12t68.5 12t51.5 27t40 43.5t29.5 46.5t25.5 51t46 44.5t79 11.5q75 0 102 -20.5t27 -74.5q0 -98 -69 -175.5t-175 -116.5t-225 -39z" />
    <glyph glyph-name="obreve" unicode="&#x14f;" horiz-adv-x="1761" 
d="M78 801q0 356 579 356h447q579 0 579 -356v-445q0 -356 -579 -356h-447q-579 0 -579 356v445zM1423 356v445q0 67 -81.5 108t-245.5 41h-430q-164 0 -246 -41t-82 -108v-445q0 -66 82.5 -107.5t245.5 -41.5h430q163 0 245 41.5t82 107.5zM881 1274q-119 0 -225 39.5
t-175 117t-69 175.5q0 54 27 74t102 20q50 0 79.5 -11t45.5 -44q16 -34 25.5 -51.5t29.5 -46.5t40 -44t51.5 -27t68.5 -12t68.5 12t51.5 27t40 44t29.5 46.5t25.5 51.5q16 33 45.5 44t79.5 11q75 0 102 -20t27 -74q0 -98 -69 -175.5t-175 -117t-225 -39.5z" />
    <glyph glyph-name="Ohungarumlaut" unicode="&#x150;" horiz-adv-x="1964" 
d="M1280 0h-596q-606 0 -606 381v723q0 381 606 381h596q606 0 606 -381v-723q0 -381 -606 -381zM1272 221q171 0 257.5 44.5t86.5 115.5v723q0 72 -86 116t-258 44h-580q-172 0 -258 -44t-86 -116v-723q0 -71 86.5 -115.5t257.5 -44.5h580zM1571 1853l-326 -225
q-41 -26 -102 -26q-99 0 -99 84q0 54 50 90l323 225q43 27 107 27q94 0 94 -86q0 -56 -47 -89zM1073 1853l-323 -225q-22 -15 -46.5 -20.5t-74.5 -5.5q-34 0 -57 22.5t-23 63.5q0 55 47 88l326 225q42 27 102 27q98 0 98 -89q0 -53 -49 -86z" />
    <glyph glyph-name="ohungarumlaut" unicode="&#x151;" horiz-adv-x="1761" 
d="M78 801q0 356 579 356h447q579 0 579 -356v-445q0 -356 -579 -356h-447q-579 0 -579 356v445zM1423 356v445q0 67 -81.5 108t-245.5 41h-430q-164 0 -246 -41t-82 -108v-445q0 -66 82.5 -107.5t245.5 -41.5h430q163 0 245 41.5t82 107.5zM1470 1526l-325 -226
q-41 -26 -103 -26q-98 0 -98 84q0 55 49 90l324 225q43 27 106 27q95 0 95 -86q0 -55 -48 -88zM973 1526l-324 -226q-22 -15 -46.5 -20.5t-74.5 -5.5q-34 0 -56.5 22.5t-22.5 63.5q0 55 47 88l325 225q42 27 103 27q48 0 73 -20t25 -68q0 -53 -49 -86z" />
    <glyph glyph-name="OE" unicode="&#x152;" horiz-adv-x="3254" 
d="M3099 0h-947q-324 0 -471 106q-147 -106 -471 -106h-526q-606 0 -606 381v723q0 381 606 381h526q322 0 471 -107q149 107 471 107h285q45 0 61.5 -26t16.5 -85t-16.5 -84.5t-61.5 -25.5h-276q-168 0 -256 -42.5t-88 -111.5v-268h1288q47 0 63.5 -26t16.5 -85
t-16.5 -84.5t-63.5 -25.5h-1288v-240q0 -71 86.5 -115.5t257.5 -44.5h938q47 0 63 -25.5t16 -84.5q0 -58 -16 -84.5t-63 -26.5zM1202 221q171 0 257.5 44.5t86.5 115.5v723q0 72 -86 116t-258 44h-510q-172 0 -258 -44t-86 -116v-723q0 -71 86.5 -115.5t257.5 -44.5h510z
" />
    <glyph glyph-name="oe" unicode="&#x153;" horiz-adv-x="3117" 
d="M2933 461h-1250v-105q0 -66 82.5 -107.5t245.5 -41.5h236q43 0 58 -24t15 -79t-15 -79.5t-58 -24.5h-244q-308 0 -451 98q-143 -98 -448 -98h-447q-579 0 -579 356v445q0 356 579 356h447q305 0 448 -98q143 98 451 98h473q304 0 442 -87t138 -269v-236q0 -62 -23.5 -83
t-99.5 -21zM1423 356v445q0 67 -81.5 108t-245.5 41h-430q-164 0 -246 -41t-82 -108v-445q0 -66 82.5 -107.5t245.5 -41.5h430q163 0 245 41.5t82 107.5zM1683 801v-137h1113v137q0 149 -328 149h-457q-164 0 -246 -41t-82 -108z" />
    <glyph glyph-name="Racute" unicode="&#x154;" horiz-adv-x="2017" 
d="M96 1391q0 94 97 94h1150q277 0 440 -90.5t163 -241.5v-258q0 -151 -163 -241.5t-440 -90.5h-81q-306 0 -447 8v-4q13 -5 87 -31.5t171 -63.5t236 -93l493 -199q66 -25 66 -92q0 -53 -34 -74.5t-105 -21.5q-114 0 -162 28l-1198 519v-451q0 -56 -33 -76t-105 -20
q-71 0 -103 20t-32 76v1303zM1319 1264h-950v-484h950q134 0 215.5 18t111 45.5t29.5 67.5v222q0 40 -29.5 67.5t-111 45.5t-215.5 18zM1415 1853l-416 -225q-53 -26 -153 -26q-44 0 -73.5 22.5t-29.5 63.5q0 55 62 88l416 225q55 27 153 27q44 0 73.5 -23.5t29.5 -65.5
q0 -53 -62 -86z" />
    <glyph glyph-name="racute" unicode="&#x155;" horiz-adv-x="897" 
d="M618 1157h160q43 0 58.5 -24.5t15.5 -79.5t-15.5 -79t-58.5 -24h-160q-147 0 -208.5 -36.5t-61.5 -110.5v-715q0 -56 -30.5 -76t-100.5 -20q-68 0 -98.5 20t-30.5 76v715q0 176 135.5 265t394.5 89zM938 1526l-416 -226q-53 -26 -153 -26q-44 0 -73.5 22.5t-29.5 63.5
q0 55 62 88l415 225q56 27 154 27q44 0 73 -23t29 -65q0 -53 -61 -86z" />
    <glyph glyph-name="Rcommaaccent" unicode="&#x156;" horiz-adv-x="2017" 
d="M96 1391q0 94 97 94h1150q277 0 440 -90.5t163 -241.5v-258q0 -151 -163 -241.5t-440 -90.5h-81q-306 0 -447 8v-4q13 -5 87 -31.5t171 -63.5t236 -93l493 -199q66 -25 66 -92q0 -53 -34 -74.5t-105 -21.5q-114 0 -162 28l-1198 519v-451q0 -56 -33 -76t-105 -20
q-71 0 -103 20t-32 76v1303zM1319 1264h-950v-484h950q134 0 215.5 18t111 45.5t29.5 67.5v222q0 40 -29.5 67.5t-111 45.5t-215.5 18zM1057 -156l-33 -192q-7 -47 -38 -64.5t-101 -17.5q-72 0 -103.5 16.5t-31.5 57.5q0 15 8 65l30 180q7 47 38.5 64.5t103.5 17.5
t101.5 -17.5t29.5 -62.5q0 -19 -4 -47z" />
    <glyph glyph-name="rcommaaccent" unicode="&#x157;" horiz-adv-x="897" 
d="M618 1157h160q43 0 58.5 -24.5t15.5 -79.5t-15.5 -79t-58.5 -24h-160q-147 0 -208.5 -36.5t-61.5 -110.5v-715q0 -56 -30.5 -76t-100.5 -20q-68 0 -98.5 20t-30.5 76v715q0 176 135.5 265t394.5 89zM330 -156l-33 -192q-7 -47 -38 -64.5t-101 -17.5q-72 0 -103.5 16.5
t-31.5 57.5q0 15 8 65l30 180q7 47 38.5 64.5t103.5 17.5t101.5 -17.5t29.5 -62.5q0 -19 -4 -47z" />
    <glyph glyph-name="Rcaron" unicode="&#x158;" horiz-adv-x="2017" 
d="M96 1391q0 94 97 94h1150q277 0 440 -90.5t163 -241.5v-258q0 -151 -163 -241.5t-440 -90.5h-81q-306 0 -447 8v-4q13 -5 87 -31.5t171 -63.5t236 -93l493 -199q66 -25 66 -92q0 -53 -34 -74.5t-105 -21.5q-114 0 -162 28l-1198 519v-451q0 -56 -33 -76t-105 -20
q-71 0 -103 20t-32 76v1303zM1319 1264h-950v-484h950q134 0 215.5 18t111 45.5t29.5 67.5v222q0 40 -29.5 67.5t-111 45.5t-215.5 18zM1008 1829l129 158q33 41 112 41q54 0 92.5 -20.5t38.5 -51.5q0 -20 -16 -39l-225 -266q-40 -49 -131 -49t-131 49l-226 266
q-16 19 -16 39q0 31 38.5 51.5t92.5 20.5q80 0 113 -41z" />
    <glyph glyph-name="rcaron" unicode="&#x159;" horiz-adv-x="897" 
d="M618 1157h160q43 0 58.5 -24.5t15.5 -79.5t-15.5 -79t-58.5 -24h-160q-147 0 -208.5 -36.5t-61.5 -110.5v-715q0 -56 -30.5 -76t-100.5 -20q-68 0 -98.5 20t-30.5 76v715q0 176 135.5 265t394.5 89zM530 1501l129 158q33 41 113 41q54 0 92.5 -20.5t38.5 -51.5
q0 -20 -16 -39l-225 -266q-40 -49 -132 -49q-91 0 -131 49l-225 266q-16 19 -16 39q0 31 38.5 51.5t92.5 20.5q79 0 112 -41z" />
    <glyph glyph-name="Sacute" unicode="&#x15a;" horiz-adv-x="1816" 
d="M1159 643h-483q-606 0 -606 381v80q0 381 606 381h205q47 0 63.5 -26t16.5 -85t-16.5 -84.5t-63.5 -25.5h-211q-171 0 -250.5 -43.5t-79.5 -116.5v-80q0 -72 80 -116t250 -44h483q606 0 606 -381v-102q0 -381 -606 -381h-1003q-47 0 -63.5 26t-16.5 85t16.5 84.5
t63.5 25.5h1009q171 0 250.5 43.5t79.5 116.5v102q0 72 -80 116t-250 44zM1212 1853l-415 -225q-53 -26 -154 -26q-44 0 -73 22.5t-29 63.5q0 55 61 88l416 225q30 15 61 21t92 6q44 0 73.5 -23.5t29.5 -65.5q0 -53 -62 -86z" />
    <glyph glyph-name="sacute" unicode="&#x15b;" horiz-adv-x="1615" 
d="M70 791v59q0 145 125.5 226t361.5 81h281q44 0 59.5 -24t15.5 -80q0 -54 -15.5 -78.5t-59.5 -24.5h-283q-113 0 -170 -27t-57 -75v-53q0 -49 59 -77t178 -28h453q541 0 541 -311v-66q0 -313 -580 -313h-829q-44 0 -60 24.5t-16 79.5q0 54 16 78.5t60 24.5h868
q156 0 217 25.5t61 76.5v74q0 51 -60 77.5t-210 26.5h-459q-243 0 -370 80t-127 224zM1112 1526l-416 -226q-53 -26 -153 -26q-44 0 -73.5 22.5t-29.5 63.5q0 55 62 88l416 225q55 27 153 27q44 0 73.5 -23t29.5 -65q0 -53 -62 -86z" />
    <glyph glyph-name="Scedilla" unicode="&#x15e;" horiz-adv-x="1816" 
d="M1159 643h-483q-606 0 -606 381v80q0 381 606 381h205q47 0 63.5 -26t16.5 -85t-16.5 -84.5t-63.5 -25.5h-211q-171 0 -250.5 -43.5t-79.5 -116.5v-80q0 -72 80 -116t250 -44h483q606 0 606 -381v-102q0 -381 -606 -381h-1003q-47 0 -63.5 26t-16.5 85t16.5 84.5
t63.5 25.5h1009q171 0 250.5 43.5t79.5 116.5v102q0 72 -80 116t-250 44zM1059 -156l-33 -192q-7 -47 -38 -64.5t-101 -17.5q-72 0 -103.5 16.5t-31.5 57.5q0 15 8 65l31 180q7 47 38.5 64.5t102.5 17.5q72 0 101.5 -17.5t29.5 -62.5q0 -19 -4 -47z" />
    <glyph glyph-name="scedilla" unicode="&#x15f;" horiz-adv-x="1615" 
d="M70 791v59q0 145 125.5 226t361.5 81h281q44 0 59.5 -24t15.5 -80q0 -54 -15.5 -78.5t-59.5 -24.5h-283q-113 0 -170 -27t-57 -75v-53q0 -49 59 -77t178 -28h453q541 0 541 -311v-66q0 -313 -580 -313h-829q-44 0 -60 24.5t-16 79.5q0 54 16 78.5t60 24.5h868
q156 0 217 25.5t61 76.5v74q0 51 -60 77.5t-210 26.5h-459q-243 0 -370 80t-127 224zM958 -156l-32 -192q-7 -47 -38.5 -64.5t-101.5 -17.5q-72 0 -103.5 16.5t-31.5 57.5q0 15 8 65l31 180q7 47 38.5 64.5t102.5 17.5q72 0 102 -17.5t30 -62.5q0 -12 -5 -47z" />
    <glyph glyph-name="Scaron" unicode="&#x160;" horiz-adv-x="1816" 
d="M1159 643h-483q-606 0 -606 381v80q0 381 606 381h205q47 0 63.5 -26t16.5 -85t-16.5 -84.5t-63.5 -25.5h-211q-171 0 -250.5 -43.5t-79.5 -116.5v-80q0 -72 80 -116t250 -44h483q606 0 606 -381v-102q0 -381 -606 -381h-1003q-47 0 -63.5 26t-16.5 85t16.5 84.5
t63.5 25.5h1009q171 0 250.5 43.5t79.5 116.5v102q0 72 -80 116t-250 44zM805 1829l129 158q33 41 113 41q54 0 92.5 -20.5t38.5 -51.5q0 -19 -17 -39l-225 -266q-40 -49 -131 -49t-131 49l-225 266q-17 20 -17 39q0 31 38.5 51.5t92.5 20.5q80 0 113 -41z" />
    <glyph glyph-name="scaron" unicode="&#x161;" horiz-adv-x="1615" 
d="M70 791v59q0 145 125.5 226t361.5 81h281q44 0 59.5 -24t15.5 -80q0 -54 -15.5 -78.5t-59.5 -24.5h-283q-113 0 -170 -27t-57 -75v-53q0 -49 59 -77t178 -28h453q541 0 541 -311v-66q0 -313 -580 -313h-829q-44 0 -60 24.5t-16 79.5q0 54 16 78.5t60 24.5h868
q156 0 217 25.5t61 76.5v74q0 51 -60 77.5t-210 26.5h-459q-243 0 -370 80t-127 224zM705 1501l129 158q33 41 112 41q54 0 92.5 -20.5t38.5 -51.5q0 -20 -16 -39l-225 -266q-40 -49 -131 -49q-92 0 -132 49l-225 266q-16 19 -16 39q0 31 38.5 51.5t92.5 20.5q79 0 112 -41z
" />
    <glyph glyph-name="Tcedilla" unicode="&#x162;" horiz-adv-x="1716" 
d="M1612 1264h-619v-1176q0 -56 -32.5 -76t-104.5 -20q-71 0 -103 20t-32 76v1176h-617q-47 0 -63 25.5t-16 84.5q0 60 16 85.5t63 25.5h1508q47 0 63.5 -26t16.5 -85t-16.5 -84.5t-63.5 -25.5zM969 -156l-33 -192q-7 -47 -38 -64.5t-101 -17.5q-72 0 -103.5 16.5
t-31.5 57.5q0 15 8 65l30 180q7 47 38.5 64.5t103.5 17.5t101.5 -17.5t29.5 -62.5q0 -19 -4 -47z" />
    <glyph glyph-name="tcedilla" unicode="&#x163;" horiz-adv-x="1005" 
d="M98 1157h117v240q0 56 30.5 76t98.5 20q70 0 100.5 -20t30.5 -76v-240h432q43 0 58.5 -24.5t15.5 -79.5t-15.5 -79t-58.5 -24h-432v-862q0 -56 -30.5 -76t-100.5 -20q-68 0 -98.5 20t-30.5 76v862h-117q-43 0 -58 24t-15 79t15 79.5t58 24.5zM459 -156l-33 -192
q-7 -47 -38 -64.5t-101 -17.5q-72 0 -103.5 16.5t-31.5 57.5q0 15 8 65l30 180q7 47 38.5 64.5t103.5 17.5t101.5 -17.5t29.5 -62.5q0 -19 -4 -47z" />
    <glyph glyph-name="Tcaron" unicode="&#x164;" horiz-adv-x="1716" 
d="M1612 1264h-619v-1176q0 -56 -32.5 -76t-104.5 -20q-71 0 -103 20t-32 76v1176h-617q-47 0 -63 25.5t-16 84.5q0 60 16 85.5t63 25.5h1508q47 0 63.5 -26t16.5 -85t-16.5 -84.5t-63.5 -25.5zM858 1829l129 158q33 41 113 41q54 0 92.5 -20.5t38.5 -51.5q0 -19 -17 -39
l-225 -266q-40 -49 -131 -49t-131 49l-225 266q-17 20 -17 39q0 31 38.5 51.5t92.5 20.5q80 0 113 -41z" />
    <glyph glyph-name="tcaron" unicode="&#x165;" horiz-adv-x="1124" 
d="M98 1157h117v240q0 56 30.5 76t98.5 20q70 0 100.5 -20t30.5 -76v-240h432q43 0 58.5 -24.5t15.5 -79.5t-15.5 -79t-58.5 -24h-432v-862q0 -56 -30.5 -76t-100.5 -20q-68 0 -98.5 20t-30.5 76v862h-117q-43 0 -58 24t-15 79t15 79.5t58 24.5zM1120 1489l-33 -193
q-7 -47 -38 -64.5t-101 -17.5q-72 0 -103.5 16.5t-31.5 57.5q0 16 8 66l31 180q7 47 38.5 64.5t102.5 17.5q72 0 101.5 -17.5t29.5 -62.5q0 -19 -4 -47z" />
    <glyph glyph-name="Tbar" unicode="&#x166;" horiz-adv-x="1716" 
d="M473 1038h248v226h-617q-47 0 -63 25.5t-16 84.5q0 60 16 85.5t63 25.5h1508q47 0 63.5 -26t16.5 -85t-16.5 -84.5t-63.5 -25.5h-619v-226h250q43 0 58.5 -24.5t15.5 -79.5t-15.5 -79t-58.5 -24h-250v-743q0 -56 -32.5 -76t-104.5 -20q-71 0 -103 20t-32 76v743h-248
q-43 0 -58.5 24t-15.5 79t15.5 79.5t58.5 24.5z" />
    <glyph glyph-name="tbar" unicode="&#x167;" horiz-adv-x="1005" 
d="M98 803h117v147h-117q-43 0 -58 24t-15 79t15 79.5t58 24.5h117v240q0 56 30.5 76t98.5 20q70 0 100.5 -20t30.5 -76v-240h432q43 0 58.5 -24.5t15.5 -79.5t-15.5 -79t-58.5 -24h-432v-147h432q43 0 58.5 -25t15.5 -80q0 -54 -15 -78t-59 -24h-432v-508q0 -56 -30.5 -76
t-100.5 -20q-68 0 -98.5 20t-30.5 76v508h-117q-43 0 -58 23.5t-15 78.5t15 80t58 25z" />
    <glyph glyph-name="Utilde" unicode="&#x168;" horiz-adv-x="2019" 
d="M1325 0h-631q-606 0 -606 381v1016q0 56 32 76t103 20q72 0 104.5 -20t32.5 -76v-1016q0 -71 85.5 -115.5t256.5 -44.5h615q171 0 256.5 44.5t85.5 115.5v1016q0 56 32.5 76t104.5 20q71 0 103 -20t32 -76v-1016q0 -381 -606 -381zM621 1860h776q39 0 53 -23t14 -72
q0 -50 -14 -72t-53 -22h-776q-41 0 -54.5 21.5t-13.5 72.5q0 50 14 72.5t54 22.5z" />
    <glyph glyph-name="utilde" unicode="&#x169;" horiz-adv-x="1824" 
d="M1608 1165q68 0 98.5 -20t30.5 -76v-713q0 -356 -580 -356h-489q-580 0 -580 356v713q0 56 30.5 76t100.5 20q68 0 98.5 -20t30.5 -76v-713q0 -67 82 -108t246 -41h473q164 0 246 41t82 108v713q0 56 30.5 76t100.5 20zM524 1532h776q39 0 53.5 -22.5t14.5 -71.5
q0 -50 -14.5 -72.5t-53.5 -22.5h-776q-40 0 -53.5 22t-13.5 73q0 50 13.5 72t53.5 22z" />
    <glyph glyph-name="Umacron" unicode="&#x16a;" horiz-adv-x="2019" 
d="M1325 0h-631q-606 0 -606 381v1016q0 56 32 76t103 20q72 0 104.5 -20t32.5 -76v-1016q0 -71 85.5 -115.5t256.5 -44.5h615q171 0 256.5 44.5t85.5 115.5v1016q0 56 32.5 76t104.5 20q71 0 103 -20t32 -76v-1016q0 -381 -606 -381zM621 1860h776q39 0 53 -23t14 -72
q0 -50 -14 -72t-53 -22h-776q-41 0 -54.5 21.5t-13.5 72.5q0 50 14 72.5t54 22.5z" />
    <glyph glyph-name="umacron" unicode="&#x16b;" horiz-adv-x="1824" 
d="M1608 1165q68 0 98.5 -20t30.5 -76v-713q0 -356 -580 -356h-489q-580 0 -580 356v713q0 56 30.5 76t100.5 20q68 0 98.5 -20t30.5 -76v-713q0 -67 82 -108t246 -41h473q164 0 246 41t82 108v713q0 56 30.5 76t100.5 20zM524 1532h776q39 0 53.5 -22.5t14.5 -71.5
q0 -50 -14.5 -72.5t-53.5 -22.5h-776q-40 0 -53.5 22t-13.5 73q0 50 13.5 72t53.5 22z" />
    <glyph glyph-name="Ubreve" unicode="&#x16c;" horiz-adv-x="2019" 
d="M1325 0h-631q-606 0 -606 381v1016q0 56 32 76t103 20q72 0 104.5 -20t32.5 -76v-1016q0 -71 85.5 -115.5t256.5 -44.5h615q171 0 256.5 44.5t85.5 115.5v1016q0 56 32.5 76t104.5 20q71 0 103 -20t32 -76v-1016q0 -381 -606 -381zM1010 1602q-119 0 -225 39t-175 116.5
t-69 175.5q0 54 27 74.5t102 20.5q49 0 79 -11.5t46 -44.5t25.5 -51t29.5 -46.5t40 -43.5t51.5 -27t68.5 -12t68.5 12t51.5 27t40 43.5t29.5 46.5t25.5 51t46 44.5t79 11.5q75 0 102 -20.5t27 -74.5q0 -98 -69 -175.5t-175 -116.5t-225 -39z" />
    <glyph glyph-name="ubreve" unicode="&#x16d;" horiz-adv-x="1824" 
d="M1608 1165q68 0 98.5 -20t30.5 -76v-713q0 -356 -580 -356h-489q-580 0 -580 356v713q0 56 30.5 76t100.5 20q68 0 98.5 -20t30.5 -76v-713q0 -67 82 -108t246 -41h473q164 0 246 41t82 108v713q0 56 30.5 76t100.5 20zM911 1274q-119 0 -225 39.5t-175 117t-69 175.5
q0 54 27 74t102 20q50 0 79.5 -11t45.5 -44q16 -34 25.5 -51.5t29.5 -46.5t40 -44t51.5 -27t68.5 -12t68.5 12t51.5 27t40 44t29.5 46.5t25.5 51.5q16 33 45.5 44t79.5 11q75 0 102 -20t27 -74q0 -98 -69 -175.5t-175 -117t-225 -39.5z" />
    <glyph glyph-name="Uring" unicode="&#x16e;" horiz-adv-x="2019" 
d="M1325 0h-631q-606 0 -606 381v1016q0 56 32 76t103 20q72 0 104.5 -20t32.5 -76v-1016q0 -71 85.5 -115.5t256.5 -44.5h615q171 0 256.5 44.5t85.5 115.5v1016q0 56 32.5 76t104.5 20q71 0 103 -20t32 -76v-1016q0 -381 -606 -381zM1284 1819v-74q0 -125 -53 -167
t-189 -42h-65q-136 0 -189 42t-53 167v74q0 125 53 167t189 42h65q136 0 189 -42t53 -167zM989 1653h41q78 0 98.5 16t20.5 76v74q0 60 -20.5 76t-98.5 16h-41q-78 0 -98.5 -16t-20.5 -76v-74q0 -60 20.5 -76t98.5 -16z" />
    <glyph glyph-name="uring" unicode="&#x16f;" horiz-adv-x="1824" 
d="M1608 1165q68 0 98.5 -20t30.5 -76v-713q0 -356 -580 -356h-489q-580 0 -580 356v713q0 56 30.5 76t100.5 20q68 0 98.5 -20t30.5 -76v-713q0 -67 82 -108t246 -41h473q164 0 246 41t82 108v713q0 56 30.5 76t100.5 20zM1186 1491v-74q0 -125 -53 -167t-189 -42h-65
q-136 0 -189 42t-53 167v74q0 125 53 167t189 42h65q136 0 189 -42t53 -167zM891 1325h41q78 0 98.5 16t20.5 76v74q0 60 -20.5 76t-98.5 16h-41q-78 0 -98.5 -16t-20.5 -76v-74q0 -60 20.5 -76t98.5 -16z" />
    <glyph glyph-name="Uhungarumlaut" unicode="&#x170;" horiz-adv-x="2019" 
d="M1325 0h-631q-606 0 -606 381v1016q0 56 32 76t103 20q72 0 104.5 -20t32.5 -76v-1016q0 -71 85.5 -115.5t256.5 -44.5h615q171 0 256.5 44.5t85.5 115.5v1016q0 56 32.5 76t104.5 20q71 0 103 -20t32 -76v-1016q0 -381 -606 -381zM1599 1853l-325 -225q-41 -26 -103 -26
q-98 0 -98 84q0 55 49 90l324 225q43 27 106 27q95 0 95 -86q0 -56 -48 -89zM1102 1853l-324 -225q-22 -15 -46.5 -20.5t-74.5 -5.5q-34 0 -56.5 22.5t-22.5 63.5q0 55 47 88l325 225q42 27 103 27q98 0 98 -89q0 -53 -49 -86z" />
    <glyph glyph-name="uhungarumlaut" unicode="&#x171;" horiz-adv-x="1824" 
d="M1608 1165q68 0 98.5 -20t30.5 -76v-713q0 -356 -580 -356h-489q-580 0 -580 356v713q0 56 30.5 76t100.5 20q68 0 98.5 -20t30.5 -76v-713q0 -67 82 -108t246 -41h473q164 0 246 41t82 108v713q0 56 30.5 76t100.5 20zM1501 1526l-325 -226q-41 -26 -103 -26
q-98 0 -98 84q0 55 49 90l324 225q44 27 106 27q94 0 94 -86q0 -55 -47 -88zM1004 1526l-324 -226q-22 -15 -46.5 -20.5t-74.5 -5.5q-34 0 -57 22.5t-23 63.5q0 55 47 88l326 225q42 27 102 27q48 0 73.5 -20t25.5 -68q0 -53 -49 -86z" />
    <glyph glyph-name="Uogonek" unicode="&#x172;" horiz-adv-x="2019" 
d="M1243 -238q41 0 55.5 -22.5t14.5 -71.5q0 -51 -14.5 -74.5t-55.5 -23.5h-307q-66 0 -114 15.5t-72 40.5t-34.5 49.5t-10.5 50.5v49q0 87 74 136.5t274 88.5h-359q-606 0 -606 381v1016q0 56 32 76t103 20q72 0 104.5 -20t32.5 -76v-1016q0 -71 85.5 -115.5t256.5 -44.5
h615q171 0 256.5 44.5t85.5 115.5v1016q0 56 32.5 76t104.5 20q71 0 103 -20t32 -76v-1016q0 -381 -606 -381h-53q-202 -66 -264 -95.5t-62 -64.5v-30q0 -28 11.5 -38t43.5 -10h242z" />
    <glyph glyph-name="uogonek" unicode="&#x173;" horiz-adv-x="1824" 
d="M1075 -238q41 0 55.5 -22.5t14.5 -71.5q0 -51 -14.5 -74.5t-55.5 -23.5h-307q-66 0 -114 15.5t-72 40.5t-34.5 49.5t-10.5 50.5v49q0 87 74 136.5t274 88.5h-217q-580 0 -580 356v713q0 56 30.5 76t100.5 20q68 0 98.5 -20t30.5 -76v-713q0 -67 82 -108t246 -41h473
q164 0 246 41t82 108v713q0 56 30.5 76t100.5 20q68 0 98.5 -20t30.5 -76v-713q0 -356 -580 -356h-51q-204 -66 -266 -95.5t-62 -64.5v-30q0 -28 12 -38t44 -10h241z" />
    <glyph glyph-name="Wcircumflex" unicode="&#x174;" horiz-adv-x="2848" 
d="M1417 1133l-485 -1053q-40 -88 -158 -88q-127 0 -168 94l-569 1264q-12 24 -12 47q0 44 41.5 70t107.5 26q90 0 117 -61l479 -1125l498 1084q28 60 60.5 81t94.5 21q63 0 92 -21t56 -81l495 -1084l492 1125q27 61 117 61q66 0 107.5 -26t41.5 -70q0 -23 -12 -47
l-582 -1264q-43 -94 -168 -94q-119 0 -161 88zM1423 1800l-129 -158q-32 -40 -112 -40q-54 0 -92.5 20t-38.5 51q0 20 16 39l225 266q41 50 131 50t131 -50l226 -266q16 -19 16 -39q0 -31 -38.5 -51t-92.5 -20q-81 0 -113 40z" />
    <glyph glyph-name="wcircumflex" unicode="&#x175;" horiz-adv-x="2424" 
d="M1214 860l-409 -799q-37 -69 -148 -69q-117 0 -153 74l-471 987q-13 23 -13 39q0 33 39 53t103 20q90 0 110 -47l383 -860l430 827q25 46 53.5 63t80.5 17q57 0 79.5 -16.5t47.5 -63.5l413 -827l391 860q20 47 113 47q64 0 102.5 -20t38.5 -53q0 -18 -12 -39l-483 -987
q-36 -74 -152 -74q-114 0 -149 69zM1212 1473l-129 -158q-33 -41 -112 -41q-54 0 -92.5 20.5t-38.5 51.5q0 19 16 38l225 267q40 49 131 49t131 -49l226 -267q16 -19 16 -38q0 -31 -38.5 -51.5t-92.5 -20.5q-80 0 -113 41z" />
    <glyph glyph-name="Ycircumflex" unicode="&#x176;" horiz-adv-x="1882" 
d="M805 614l-739 715q-43 40 -43 82q0 35 37 58.5t110 23.5q43 0 67.5 -9t47.5 -30l657 -639l655 639q39 39 115 39q73 0 110.5 -23t37.5 -59q0 -42 -43 -82l-740 -715v-526q0 -56 -32.5 -76t-104.5 -20q-71 0 -103 20t-32 76v526zM940 1800l-129 -158q-32 -40 -113 -40
q-54 0 -92.5 20t-38.5 51q0 19 17 39l225 266q41 50 131 50t131 -50l225 -266q17 -20 17 -39q0 -31 -38.5 -51t-92.5 -20q-81 0 -113 40z" />
    <glyph glyph-name="ycircumflex" unicode="&#x177;" horiz-adv-x="1802" 
d="M676 236h770v833q0 56 30.5 76t98.5 20q70 0 100.5 -20t30.5 -76v-1051q0 -176 -135.5 -265t-394.5 -89h-283q-43 0 -58.5 25t-15.5 80q0 54 15 78t59 24h283q147 0 208.5 36.5t61.5 110.5v11h-778q-580 0 -580 356v684q0 56 30.5 76t98.5 20q70 0 100.5 -20t30.5 -76
v-686q0 -67 82 -107t246 -40zM901 1473l-129 -158q-33 -41 -113 -41q-54 0 -92.5 20.5t-38.5 51.5q0 18 17 38l225 267q40 49 131 49t131 -49l225 -267q17 -20 17 -38q0 -31 -38.5 -51.5t-92.5 -20.5q-80 0 -113 41z" />
    <glyph glyph-name="Ydieresis" unicode="&#x178;" horiz-adv-x="1882" 
d="M805 614l-739 715q-43 40 -43 82q0 35 37 58.5t110 23.5q43 0 67.5 -9t47.5 -30l657 -639l655 639q39 39 115 39q73 0 110.5 -23t37.5 -59q0 -42 -43 -82l-740 -715v-526q0 -56 -32.5 -76t-104.5 -20q-71 0 -103 20t-32 76v526zM1014 1755q0 66 38 96.5t124 30.5
t123.5 -30t37.5 -97t-37.5 -97t-123.5 -30t-124 30.5t-38 96.5zM543 1755q0 66 38 96.5t124 30.5t123.5 -30t37.5 -97t-37.5 -97t-123.5 -30t-124 30.5t-38 96.5z" />
    <glyph glyph-name="Zacute" unicode="&#x179;" horiz-adv-x="1818" 
d="M1645 0h-1383q-115 0 -170 30.5t-55 110.5q0 60 43 97l1380 1210q42 37 142 37q26 0 45.5 -2.5t39.5 -10.5t31 -26t11 -45q0 -29 -13.5 -48t-52.5 -53l-1253 -1079h1235q47 0 63 -25.5t16 -84.5q0 -60 -16 -85.5t-63 -25.5zM1419 1853l-415 -225q-53 -26 -154 -26
q-44 0 -73 22.5t-29 63.5q0 55 61 88l416 225q55 27 153 27q44 0 73.5 -23.5t29.5 -65.5q0 -53 -62 -86z" />
    <glyph glyph-name="zacute" unicode="&#x17a;" 
d="M1593 1022l-1118 -815h1135q43 0 58 -25t15 -80t-15 -78.5t-58 -23.5h-1358q-109 0 -154 25t-45 81q0 57 51 95l1262 936q38 28 150 28q45 0 71.5 -3.5t47 -18.5t20.5 -43q0 -23 -12.5 -37t-49.5 -41zM1395 1526l-416 -226q-53 -26 -154 -26q-44 0 -73 22.5t-29 63.5
q0 55 61 88l416 225q55 27 154 27q44 0 73 -23t29 -65q0 -53 -61 -86z" />
    <glyph glyph-name="Zdotaccent" unicode="&#x17b;" horiz-adv-x="1818" 
d="M1645 0h-1383q-115 0 -170 30.5t-55 110.5q0 60 43 97l1380 1210q42 37 142 37q26 0 45.5 -2.5t39.5 -10.5t31 -26t11 -45q0 -29 -13.5 -48t-52.5 -53l-1253 -1079h1235q47 0 63 -25.5t16 -84.5q0 -60 -16 -85.5t-63 -25.5zM850 1755q0 66 38 96.5t124 30.5t124 -30.5
t38 -96.5t-38 -96.5t-124 -30.5t-124 30.5t-38 96.5z" />
    <glyph glyph-name="zdotaccent" unicode="&#x17c;" 
d="M1593 1022l-1118 -815h1135q43 0 58 -25t15 -80t-15 -78.5t-58 -23.5h-1358q-109 0 -154 25t-45 81q0 57 51 95l1262 936q38 28 150 28q45 0 71.5 -3.5t47 -18.5t20.5 -43q0 -23 -12.5 -37t-49.5 -41zM825 1427q0 66 38 96.5t124 30.5t124 -30.5t38 -96.5t-38 -96.5
t-124 -30.5t-124 30.5t-38 96.5z" />
    <glyph glyph-name="Zcaron" unicode="&#x17d;" horiz-adv-x="1818" 
d="M1645 0h-1383q-115 0 -170 30.5t-55 110.5q0 60 43 97l1380 1210q42 37 142 37q26 0 45.5 -2.5t39.5 -10.5t31 -26t11 -45q0 -29 -13.5 -48t-52.5 -53l-1253 -1079h1235q47 0 63 -25.5t16 -84.5q0 -60 -16 -85.5t-63 -25.5zM1012 1829l129 158q33 41 112 41
q54 0 92.5 -20.5t38.5 -51.5q0 -20 -16 -39l-225 -266q-40 -49 -131 -49t-131 49l-226 266q-16 19 -16 39q0 31 38.5 51.5t92.5 20.5q80 0 113 -41z" />
    <glyph glyph-name="zcaron" unicode="&#x17e;" 
d="M1593 1022l-1118 -815h1135q43 0 58 -25t15 -80t-15 -78.5t-58 -23.5h-1358q-109 0 -154 25t-45 81q0 57 51 95l1262 936q38 28 150 28q45 0 71.5 -3.5t47 -18.5t20.5 -43q0 -23 -12.5 -37t-49.5 -41zM987 1501l129 158q33 41 113 41q54 0 92.5 -20.5t38.5 -51.5
q0 -19 -17 -39l-225 -266q-40 -49 -131 -49t-131 49l-225 266q-17 20 -17 39q0 31 38.5 51.5t92.5 20.5q80 0 113 -41z" />
    <glyph glyph-name="florin" unicode="&#x192;" horiz-adv-x="970" 
d="M784 1485h84q43 0 58.5 -25t15.5 -80q0 -54 -15 -78t-59 -24h-84q-78 0 -124 -39t-46 -109v-198h234q43 0 58.5 -25t15.5 -80q0 -54 -15 -78t-59 -24h-234v-707q0 -114 -57.5 -195.5t-153.5 -120t-219 -38.5h-84q-43 0 -58 25t-15 80t15 78.5t58 23.5h84q78 0 124 39
t46 108v707h-217q-44 0 -59 24t-15 78q0 55 15.5 80t58.5 25h217v198q0 114 57.5 196t153.5 120.5t219 38.5z" />
    <glyph glyph-name="Scommaaccent" unicode="&#x218;" horiz-adv-x="1816" 
d="M1159 643h-483q-606 0 -606 381v80q0 381 606 381h205q47 0 63.5 -26t16.5 -85t-16.5 -84.5t-63.5 -25.5h-211q-171 0 -250.5 -43.5t-79.5 -116.5v-80q0 -72 80 -116t250 -44h483q606 0 606 -381v-102q0 -381 -606 -381h-1003q-47 0 -63.5 26t-16.5 85t16.5 84.5
t63.5 25.5h1009q171 0 250.5 43.5t79.5 116.5v102q0 72 -80 116t-250 44zM1059 -156l-33 -192q-7 -47 -38 -64.5t-101 -17.5q-72 0 -103.5 16.5t-31.5 57.5q0 15 8 65l31 180q7 47 38.5 64.5t102.5 17.5q72 0 101.5 -17.5t29.5 -62.5q0 -19 -4 -47z" />
    <glyph glyph-name="scommaaccent" unicode="&#x219;" horiz-adv-x="1615" 
d="M70 791v59q0 145 125.5 226t361.5 81h281q44 0 59.5 -24t15.5 -80q0 -54 -15.5 -78.5t-59.5 -24.5h-283q-113 0 -170 -27t-57 -75v-53q0 -49 59 -77t178 -28h453q541 0 541 -311v-66q0 -313 -580 -313h-829q-44 0 -60 24.5t-16 79.5q0 54 16 78.5t60 24.5h868
q156 0 217 25.5t61 76.5v74q0 51 -60 77.5t-210 26.5h-459q-243 0 -370 80t-127 224zM958 -156l-32 -192q-7 -47 -38.5 -64.5t-101.5 -17.5q-72 0 -103.5 16.5t-31.5 57.5q0 15 8 65l31 180q7 47 38.5 64.5t102.5 17.5q72 0 102 -17.5t30 -62.5q0 -12 -5 -47z" />
    <glyph glyph-name="uni021A" unicode="&#x21a;" horiz-adv-x="1716" 
d="M1612 1264h-619v-1176q0 -56 -32.5 -76t-104.5 -20q-71 0 -103 20t-32 76v1176h-617q-47 0 -63 25.5t-16 84.5q0 60 16 85.5t63 25.5h1508q47 0 63.5 -26t16.5 -85t-16.5 -84.5t-63.5 -25.5zM969 -156l-33 -192q-7 -47 -38 -64.5t-101 -17.5q-72 0 -103.5 16.5
t-31.5 57.5q0 15 8 65l30 180q7 47 38.5 64.5t103.5 17.5t101.5 -17.5t29.5 -62.5q0 -19 -4 -47z" />
    <glyph glyph-name="uni021B" unicode="&#x21b;" horiz-adv-x="1005" 
d="M98 1157h117v240q0 56 30.5 76t98.5 20q70 0 100.5 -20t30.5 -76v-240h432q43 0 58.5 -24.5t15.5 -79.5t-15.5 -79t-58.5 -24h-432v-862q0 -56 -30.5 -76t-100.5 -20q-68 0 -98.5 20t-30.5 76v862h-117q-43 0 -58 24t-15 79t15 79.5t58 24.5zM459 -156l-33 -192
q-7 -47 -38 -64.5t-101 -17.5q-72 0 -103.5 16.5t-31.5 57.5q0 15 8 65l30 180q7 47 38.5 64.5t103.5 17.5t101.5 -17.5t29.5 -62.5q0 -19 -4 -47z" />
    <glyph glyph-name="circumflex" unicode="&#x2c6;" horiz-adv-x="901" 
d="M451 1473l-129 -158q-33 -41 -113 -41q-54 0 -92.5 20.5t-38.5 51.5q0 19 16 38l225 267q40 49 132 49q91 0 131 -49l225 -267q16 -19 16 -38q0 -31 -38.5 -51.5t-92.5 -20.5q-79 0 -112 41z" />
    <glyph glyph-name="caron" unicode="&#x2c7;" horiz-adv-x="901" 
d="M451 1501l129 158q33 41 112 41q54 0 92.5 -20.5t38.5 -51.5q0 -20 -16 -39l-225 -266q-40 -49 -131 -49q-92 0 -132 49l-225 266q-16 19 -16 39q0 31 38.5 51.5t92.5 20.5q80 0 113 -41z" />
    <glyph glyph-name="breve" unicode="&#x2d8;" horiz-adv-x="1093" 
d="M547 1274q-119 0 -225 39.5t-175 117t-69 175.5q0 54 27 74t102 20q50 0 79.5 -11t45.5 -44q16 -34 25.5 -51.5t29.5 -46.5t40 -44t51.5 -27t68.5 -12t68.5 12t51.5 27t40 44t29.5 46.5t25.5 51.5q16 33 45.5 44t79.5 11q75 0 102 -20t27 -74q0 -98 -69 -175.5t-175 -117
t-225 -39.5z" />
    <glyph glyph-name="dotaccent" unicode="&#x2d9;" horiz-adv-x="479" 
d="M78 1427q0 66 38 96.5t124 30.5t123.5 -30t37.5 -97t-37.5 -97t-123.5 -30t-124 30.5t-38 96.5z" />
    <glyph glyph-name="ring" unicode="&#x2da;" horiz-adv-x="704" 
d="M627 1491v-74q0 -125 -53 -167t-189 -42h-66q-136 0 -188.5 42t-52.5 167v74q0 125 52.5 167t188.5 42h66q136 0 189 -42t53 -167zM332 1325h41q78 0 98.5 16t20.5 76v74q0 60 -20.5 76t-98.5 16h-41q-78 0 -98.5 -16t-20.5 -76v-74q0 -60 20.5 -76t98.5 -16z" />
    <glyph glyph-name="ogonek" unicode="&#x2db;" horiz-adv-x="763" 
d="M616 -238q41 0 55.5 -22.5t14.5 -71.5q0 -51 -14.5 -74.5t-55.5 -23.5h-307q-66 0 -114 15.5t-72 40.5t-34.5 49.5t-10.5 50.5v49q0 87 74 136.5t274 88.5h207q-22 -17 -72 -31q-140 -43 -191 -68.5t-51 -60.5v-30q0 -28 12 -38t44 -10h241z" />
    <glyph glyph-name="tilde" unicode="&#x2dc;" horiz-adv-x="1067" 
d="M145 1532h777q39 0 53 -22.5t14 -71.5q0 -50 -14 -72.5t-53 -22.5h-777q-40 0 -53.5 22t-13.5 73q0 50 13.5 72t53.5 22z" />
    <glyph glyph-name="hungarumlaut" unicode="&#x2dd;" horiz-adv-x="1224" 
d="M1100 1526l-326 -226q-41 -26 -102 -26q-99 0 -99 84q0 54 50 90l323 225q44 27 107 27q94 0 94 -86q0 -55 -47 -88zM602 1526l-323 -226q-22 -15 -46.5 -20.5t-74.5 -5.5q-34 0 -57 22.5t-23 63.5q0 55 47 88l326 225q42 27 102 27q48 0 73 -20t25 -68q0 -53 -49 -86z
" />
    <glyph glyph-name="Delta" unicode="&#x394;" horiz-adv-x="2195" 
d="M178 0q-54 0 -103.5 33t-49.5 78q0 26 16 45l891 1265q51 72 162 72q108 0 159 -72l901 -1265q17 -27 17 -47q0 -43 -51 -76t-107 -33h-1835zM1087 1231l-700 -1010h1407z" />
    <glyph glyph-name="Omega" unicode="&#x3a9;" horiz-adv-x="1812" 
d="M1106 1290h-395q-221 0 -306.5 -82t-85.5 -299q0 -93 14 -175t35 -140t54.5 -119.5t61.5 -100.5t69 -95.5t65 -94.5q25 -43 25 -71q0 -113 -84 -113h-397q-51 0 -73.5 21.5t-22.5 84.5t23.5 89t72.5 26h211q-42 46 -66 73t-58 69t-53 72.5t-43 73.5t-37 83t-25.5 90.5
t-17.5 107t-5 121.5q0 163 36 274t116 179.5t198.5 98.5t292.5 30h397q171 -1 288 -31t196 -99t115 -179t36 -273q0 -65 -5 -121.5t-17.5 -107t-25.5 -90.5t-37 -83t-43 -73.5t-53 -72.5t-58 -69t-66 -73h211q49 0 72.5 -26t23.5 -89t-22.5 -84.5t-73.5 -21.5h-398
q-84 0 -84 113q0 28 25 71q25 40 76 109t83 119.5t68 125t54 167.5t18 204q0 110 -19 181.5t-65.5 116.5t-118 63.5t-182.5 19.5z" />
    <glyph glyph-name="mu" unicode="&#x3bc;" horiz-adv-x="1810" 
d="M225 1165q70 0 100.5 -20t30.5 -76v-862h779q164 0 245.5 41t81.5 108v713q0 56 30.5 76t98.5 20q70 0 100.5 -20t30.5 -76v-713q0 -356 -579 -356h-787v-256q0 -56 -30.5 -76t-100.5 -20q-68 0 -98.5 20t-30.5 76v1325q0 56 30.5 76t98.5 20z" />
    <glyph glyph-name="pi" unicode="&#x3c0;" horiz-adv-x="1644" 
d="M1446 1157q46 0 66 -21.5t20 -68.5v-979q0 -56 -30.5 -76t-98.5 -20q-70 0 -100.5 20t-30.5 76v862h-901v-862q0 -56 -30.5 -76t-100.5 -20q-68 0 -98.5 20t-30.5 76v979q0 47 20 68.5t66 21.5h1249z" />
    <glyph glyph-name="Wgrave" unicode="&#x1e80;" horiz-adv-x="2848" 
d="M1417 1133l-485 -1053q-40 -88 -158 -88q-127 0 -168 94l-569 1264q-12 24 -12 47q0 44 41.5 70t107.5 26q90 0 117 -61l479 -1125l498 1084q28 60 60.5 81t94.5 21q63 0 92 -21t56 -81l495 -1084l492 1125q27 61 117 61q66 0 107.5 -26t41.5 -70q0 -23 -12 -47
l-582 -1264q-43 -94 -168 -94q-119 0 -161 88zM1432 1628l-416 225q-62 33 -62 86q0 42 29.5 65.5t73.5 23.5q61 0 92 -6t61 -21l416 -225q62 -33 62 -88q0 -41 -29.5 -63.5t-73.5 -22.5q-100 0 -153 26z" />
    <glyph glyph-name="wgrave" unicode="&#x1e81;" horiz-adv-x="2424" 
d="M1214 860l-409 -799q-37 -69 -148 -69q-117 0 -153 74l-471 987q-13 23 -13 39q0 33 39 53t103 20q90 0 110 -47l383 -860l430 827q25 46 53.5 63t80.5 17q57 0 79.5 -16.5t47.5 -63.5l413 -827l391 860q20 47 113 47q64 0 102.5 -20t38.5 -53q0 -18 -12 -39l-483 -987
q-36 -74 -152 -74q-114 0 -149 69zM1221 1300l-416 226q-62 33 -62 86q0 42 29.5 65t73.5 23q98 0 153 -27l416 -225q62 -33 62 -88q0 -41 -29.5 -63.5t-73.5 -22.5q-100 0 -153 26z" />
    <glyph glyph-name="Wacute" unicode="&#x1e82;" horiz-adv-x="2848" 
d="M1417 1133l-485 -1053q-40 -88 -158 -88q-127 0 -168 94l-569 1264q-12 24 -12 47q0 44 41.5 70t107.5 26q90 0 117 -61l479 -1125l498 1084q28 60 60.5 81t94.5 21q63 0 92 -21t56 -81l495 -1084l492 1125q27 61 117 61q66 0 107.5 -26t41.5 -70q0 -23 -12 -47
l-582 -1264q-43 -94 -168 -94q-119 0 -161 88zM1831 1853l-416 -225q-53 -26 -153 -26q-44 0 -73.5 22.5t-29.5 63.5q0 55 62 88l415 225q56 27 154 27q44 0 73 -23.5t29 -65.5q0 -53 -61 -86z" />
    <glyph glyph-name="wacute" unicode="&#x1e83;" horiz-adv-x="2424" 
d="M1214 860l-409 -799q-37 -69 -148 -69q-117 0 -153 74l-471 987q-13 23 -13 39q0 33 39 53t103 20q90 0 110 -47l383 -860l430 827q25 46 53.5 63t80.5 17q57 0 79.5 -16.5t47.5 -63.5l413 -827l391 860q20 47 113 47q64 0 102.5 -20t38.5 -53q0 -18 -12 -39l-483 -987
q-36 -74 -152 -74q-114 0 -149 69zM1620 1526l-416 -226q-53 -26 -153 -26q-44 0 -73.5 22.5t-29.5 63.5q0 55 62 88l415 225q55 27 154 27q44 0 73 -23t29 -65q0 -53 -61 -86z" />
    <glyph glyph-name="Wdieresis" unicode="&#x1e84;" horiz-adv-x="2848" 
d="M1417 1133l-485 -1053q-40 -88 -158 -88q-127 0 -168 94l-569 1264q-12 24 -12 47q0 44 41.5 70t107.5 26q90 0 117 -61l479 -1125l498 1084q28 60 60.5 81t94.5 21q63 0 92 -21t56 -81l495 -1084l492 1125q27 61 117 61q66 0 107.5 -26t41.5 -70q0 -23 -12 -47
l-582 -1264q-43 -94 -168 -94q-119 0 -161 88zM1497 1755q0 66 38 96.5t124 30.5t124 -30.5t38 -96.5t-38 -96.5t-124 -30.5t-124 30.5t-38 96.5zM1026 1755q0 66 38 96.5t124 30.5t124 -30.5t38 -96.5t-38 -96.5t-124 -30.5t-124 30.5t-38 96.5z" />
    <glyph glyph-name="wdieresis" unicode="&#x1e85;" horiz-adv-x="2424" 
d="M1214 860l-409 -799q-37 -69 -148 -69q-117 0 -153 74l-471 987q-13 23 -13 39q0 33 39 53t103 20q90 0 110 -47l383 -860l430 827q25 46 53.5 63t80.5 17q57 0 79.5 -16.5t47.5 -63.5l413 -827l391 860q20 47 113 47q64 0 102.5 -20t38.5 -53q0 -18 -12 -39l-483 -987
q-36 -74 -152 -74q-114 0 -149 69zM1286 1427q0 66 38 96.5t124 30.5t124 -30.5t38 -96.5t-38 -96.5t-124 -30.5t-124 30.5t-38 96.5zM815 1427q0 66 38 96.5t124 30.5t124 -30.5t38 -96.5t-38 -96.5t-124 -30.5t-124 30.5t-38 96.5z" />
    <glyph glyph-name="Ygrave" unicode="&#x1ef2;" horiz-adv-x="1882" 
d="M805 614l-739 715q-43 40 -43 82q0 35 37 58.5t110 23.5q43 0 67.5 -9t47.5 -30l657 -639l655 639q39 39 115 39q73 0 110.5 -23t37.5 -59q0 -42 -43 -82l-740 -715v-526q0 -56 -32.5 -76t-104.5 -20q-71 0 -103 20t-32 76v526zM948 1628l-416 225q-61 33 -61 86
q0 42 29 65.5t73 23.5q99 0 154 -27l416 -225q61 -33 61 -88q0 -41 -29 -63.5t-73 -22.5q-101 0 -154 26z" />
    <glyph glyph-name="ygrave" unicode="&#x1ef3;" horiz-adv-x="1802" 
d="M676 236h770v833q0 56 30.5 76t98.5 20q70 0 100.5 -20t30.5 -76v-1051q0 -176 -135.5 -265t-394.5 -89h-283q-43 0 -58.5 25t-15.5 80q0 54 15 78t59 24h283q147 0 208.5 36.5t61.5 110.5v11h-778q-580 0 -580 356v684q0 56 30.5 76t98.5 20q70 0 100.5 -20t30.5 -76
v-686q0 -67 82 -107t246 -40zM909 1300l-415 226q-62 33 -62 86q0 42 29.5 65t73.5 23q61 0 92 -6t61 -21l416 -225q61 -33 61 -88q0 -41 -29 -63.5t-73 -22.5q-101 0 -154 26z" />
    <glyph glyph-name="endash" unicode="&#x2013;" horiz-adv-x="1202" 
d="M98 836h1006q43 0 58.5 -25t15.5 -80q0 -54 -15 -78t-59 -24h-1006q-43 0 -58 23.5t-15 78.5t15 80t58 25z" />
    <glyph glyph-name="emdash" unicode="&#x2014;" horiz-adv-x="1552" 
d="M80 836h1393q43 0 58 -25t15 -80t-15 -78.5t-58 -23.5h-1393q-44 0 -59 24t-15 78q0 55 15.5 80t58.5 25z" />
    <glyph glyph-name="quoteleft" unicode="&#x2018;" horiz-adv-x="399" 
d="M92 1047l-55 342q-4 28 -4 47q0 45 29.5 62.5t101.5 17.5q71 0 102.5 -17.5t38.5 -64.5l53 -330q9 -56 9 -66q0 -40 -31.5 -56.5t-102.5 -16.5t-102.5 17.5t-38.5 64.5z" />
    <glyph glyph-name="quoteright" unicode="&#x2019;" horiz-adv-x="399" 
d="M362 1389l-55 -342q-7 -47 -38.5 -64.5t-102.5 -17.5t-102 16.5t-31 56.5q0 16 8 66l53 330q7 47 38.5 64.5t103.5 17.5t101.5 -17.5t29.5 -62.5q0 -12 -5 -47z" />
    <glyph glyph-name="quotesinglbase" unicode="&#x201a;" horiz-adv-x="399" 
d="M362 231l-55 -342q-7 -47 -38.5 -64.5t-102.5 -17.5q-70 0 -101.5 16.5t-31.5 57.5q0 16 8 66l53 329q7 47 38.5 64.5t103.5 17.5t101.5 -17t29.5 -62q0 -13 -5 -48zM362 231l-55 -342q-7 -47 -38.5 -64.5t-102.5 -17.5q-70 0 -101.5 16.5t-31.5 57.5q0 16 8 66l53 329
q7 47 38.5 64.5t103.5 17.5t101.5 -17t29.5 -62q0 -13 -5 -48z" />
    <glyph glyph-name="quotedblleft" unicode="&#x201c;" horiz-adv-x="768" 
d="M92 1047l-55 342q-4 28 -4 47q0 45 29.5 62.5t101.5 17.5q71 0 102.5 -17.5t38.5 -64.5l53 -330q9 -56 9 -66q0 -40 -31.5 -56.5t-102.5 -16.5t-102.5 17.5t-38.5 64.5zM461 1047l-55 342q-5 35 -5 47q0 45 29.5 62.5t101.5 17.5t103.5 -17.5t38.5 -64.5l53 -330
q8 -50 8 -66q0 -40 -31 -56.5t-102 -16.5t-102.5 17.5t-38.5 64.5z" />
    <glyph glyph-name="quotedblright" unicode="&#x201d;" horiz-adv-x="768" 
d="M731 1389l-55 -342q-7 -47 -38.5 -64.5t-102.5 -17.5t-102.5 16.5t-31.5 56.5q0 10 9 66l53 330q7 47 38.5 64.5t102.5 17.5q72 0 101.5 -17.5t29.5 -62.5q0 -19 -4 -47zM362 1389l-55 -342q-7 -47 -38.5 -64.5t-102.5 -17.5t-102 16.5t-31 56.5q0 16 8 66l53 330
q7 47 38.5 64.5t103.5 17.5t101.5 -17.5t29.5 -62.5q0 -12 -5 -47z" />
    <glyph glyph-name="quotedblbase" unicode="&#x201e;" horiz-adv-x="768" 
d="M731 231l-55 -342q-7 -47 -38.5 -64.5t-102.5 -17.5t-102.5 17t-31.5 57q0 10 9 66l53 329q7 47 38.5 64.5t102.5 17.5q72 0 101.5 -17t29.5 -62q0 -20 -4 -48zM362 231l-55 -342q-7 -47 -38.5 -64.5t-102.5 -17.5q-70 0 -101.5 16.5t-31.5 57.5q0 16 8 66l53 329
q7 47 38.5 64.5t103.5 17.5t101.5 -17t29.5 -62q0 -13 -5 -48z" />
    <glyph glyph-name="dagger" unicode="&#x2020;" horiz-adv-x="929" 
d="M580 969l-33 -916q-2 -61 -82 -61t-82 61l-33 916h-176q-78 0 -78 82q0 84 78 84h158v237q0 121 133 121q131 0 131 -121v-237h164q74 0 74 -84q0 -82 -74 -82h-180z" />
    <glyph glyph-name="daggerdbl" unicode="&#x2021;" horiz-adv-x="929" 
d="M170 465h180l29 254l-29 250h-176q-78 0 -78 84q0 82 78 82h158v237q0 121 133 121q131 0 131 -121v-237h164q74 0 74 -82q0 -84 -74 -84h-180l-29 -250l29 -254h174q80 0 80 -86q0 -82 -80 -82h-158v-236q0 -122 -133 -122q-129 0 -129 122v236h-164q-74 0 -74 84t74 84
z" />
    <glyph glyph-name="bullet" unicode="&#x2022;" horiz-adv-x="1007" 
d="M911 911v-419q0 -63 -68 -102.5t-204 -39.5h-270q-136 0 -204.5 40t-68.5 102v419q0 64 68.5 103t204.5 39h270q136 0 204 -39t68 -103z" />
    <glyph glyph-name="ellipsis" unicode="&#x2026;" horiz-adv-x="2009" 
d="M137 119q0 66 38 96.5t124 30.5t124 -30.5t38 -96.5t-38 -96.5t-124 -30.5t-124 30.5t-38 96.5zM842 119q0 66 38 96.5t124 30.5t123.5 -30t37.5 -97t-37.5 -97t-123.5 -30t-124 30.5t-38 96.5zM1546 119q0 66 38 96.5t124 30.5t124 -30.5t38 -96.5t-38 -96.5t-124 -30.5
t-124 30.5t-38 96.5z" />
    <glyph glyph-name="perthousand" unicode="&#x2030;" horiz-adv-x="3108" 
d="M551 635h-123q-350 0 -350 225v397q0 228 350 228h123q350 0 350 -228v-397q0 -225 -350 -225zM547 788q85 0 128.5 20.5t43.5 51.5v397q0 32 -43 52t-129 20h-115q-86 0 -129 -20t-43 -52v-397q0 -31 43.5 -51.5t128.5 -20.5h115zM1673 1370l-1014 -1339
q-31 -39 -94 -39q-90 0 -90 63q0 21 29 62l1014 1339q29 37 94 37q46 0 68 -15t22 -48q0 -23 -29 -60zM1745 0h-123q-350 0 -350 225v398q0 227 350 227h123q350 0 350 -227v-398q0 -225 -350 -225zM1741 154q85 0 128.5 20t43.5 51v398q0 32 -43 51.5t-129 19.5h-115
q-86 0 -129 -19.5t-43 -51.5v-398q0 -31 43.5 -51t128.5 -20h115zM2681 0h-123q-350 0 -350 225v398q0 227 350 227h123q350 0 350 -227v-398q0 -225 -350 -225zM2677 154q85 0 128.5 20t43.5 51v398q0 32 -43 51.5t-129 19.5h-115q-86 0 -129 -19.5t-43 -51.5v-398
q0 -31 43.5 -51t128.5 -20h115z" />
    <glyph glyph-name="guilsinglleft" unicode="&#x2039;" horiz-adv-x="718" 
d="M57 578q0 71 35 106l486 467q14 14 28 14q21 0 35 -33t14 -81q0 -69 -30 -97l-398 -379l406 -385q29 -23 29 -90q0 -43 -14 -75.5t-34 -32.5q-16 0 -30 14l-492 465q-35 30 -35 107z" />
    <glyph glyph-name="guilsinglright" unicode="&#x203a;" horiz-adv-x="718" 
d="M662 578q0 -77 -35 -107l-492 -465q-14 -14 -31 -14q-20 0 -33.5 32t-13.5 76q0 67 29 90l406 385l-398 379q-31 29 -31 97q0 48 14 81t36 33q14 0 28 -14l486 -467q35 -35 35 -106z" />
    <glyph glyph-name="fraction" unicode="&#x2044;" horiz-adv-x="421" 
d="M797 1370l-1014 -1339q-31 -39 -94 -39q-90 0 -90 63q0 23 28 62l1014 1339q29 37 94 37q46 0 68 -15t22 -48q0 -25 -28 -60z" />
    <glyph glyph-name="zerosuperior" unicode="&#x2070;" horiz-adv-x="1140" 
d="M733 635h-327q-351 0 -351 225v397q0 228 351 228h327q350 0 350 -228v-397q0 -225 -350 -225zM729 788q85 0 128.5 20.5t43.5 51.5v397q0 32 -43 52t-129 20h-319q-86 0 -129 -20t-43 -52v-397q0 -31 43.5 -51.5t128.5 -20.5h319z" />
    <glyph glyph-name="foursuperior" unicode="&#x2074;" horiz-adv-x="1273" 
d="M244 1419v-413h780v413q0 39 22.5 54.5t69.5 15.5t68.5 -15t21.5 -55v-719q0 -39 -21.5 -54t-68.5 -15t-69.5 15t-22.5 54v152h-891q-72 0 -72 61v506q0 39 23 54.5t70 15.5t68.5 -15t21.5 -55z" />
    <glyph glyph-name="fivesuperior" unicode="&#x2075;" horiz-adv-x="1212" 
d="M248 1206h569q350 0 350 -225v-121q0 -225 -350 -225h-694q-34 0 -47 19t-13 59q0 41 13 58t47 17h698q164 0 164 72v121q0 32 -40 52t-124 20h-686q-33 0 -51 16.5t-18 46.5v297q0 72 69 72h498q34 0 46.5 -18.5t12.5 -59.5t-12.5 -59.5t-46.5 -18.5h-385v-123z" />
    <glyph glyph-name="sixsuperior" unicode="&#x2076;" horiz-adv-x="1226" 
d="M831 635h-423q-351 0 -351 225v397q0 228 351 228h202q34 0 47 -19t13 -59t-13 -59t-47 -19h-198q-86 0 -129 -20t-43 -52v-49h591q349 0 349 -225v-123q0 -225 -349 -225zM825 788q86 0 130 20.5t44 51.5v123q0 32 -43.5 52t-130.5 20h-585v-195q0 -31 43.5 -51.5
t128.5 -20.5h413z" />
    <glyph glyph-name="sevensuperior" unicode="&#x2077;" horiz-adv-x="1150" 
d="M94 1485h881q70 0 105.5 -20t35.5 -70q0 -37 -26 -70l-568 -657q-32 -37 -90 -37q-86 0 -86 61q0 30 31 66l495 571h-778q-34 0 -46.5 18.5t-12.5 59.5t12.5 59.5t46.5 18.5z" />
    <glyph glyph-name="eightsuperior" unicode="&#x2078;" horiz-adv-x="1134" 
d="M745 635h-356q-348 0 -348 250q0 125 94 174q-49 30 -66.5 70.5t-17.5 97.5q0 76 24 127.5t72 79.5t108 39.5t144 11.5h336q84 0 144 -11.5t108 -39.5t72 -79.5t24 -127.5q0 -57 -17.5 -97.5t-66.5 -70.5q45 -23 70 -62t25 -110q0 -61 -20 -106.5t-52 -72.5t-79 -44
t-94 -23t-104 -6zM227 881q0 -35 10 -53t44 -29t100 -11h373q95 0 124 20.5t29 72.5q0 58 -33.5 80t-136.5 22h-340q-103 0 -136.5 -22t-33.5 -80zM752 1329h-369q-92 0 -123 -21t-31 -73q0 -59 33 -77.5t127 -18.5h356q95 0 128.5 18.5t33.5 77.5q0 52 -31.5 73t-123.5 21z
" />
    <glyph glyph-name="ninesuperior" unicode="&#x2079;" horiz-adv-x="1161" 
d="M397 1485h357q350 0 350 -228v-397q0 -225 -350 -225h-160q-36 0 -47.5 18t-11.5 60t11.5 58.5t47.5 16.5h156q86 0 129 20t43 52v51h-525q-350 0 -350 226v120q0 228 350 228zM750 1329h-349q-86 0 -129 -20t-43 -52v-120q0 -32 43 -52t129 -20h521v192q0 32 -43 52
t-129 20z" />
    <glyph glyph-name="zeroinferior" unicode="&#x2080;" horiz-adv-x="1140" 
d="M733 0h-327q-351 0 -351 225v398q0 227 351 227h327q350 0 350 -227v-398q0 -225 -350 -225zM729 154q85 0 128.5 20t43.5 51v398q0 32 -43 51.5t-129 19.5h-319q-86 0 -129 -19.5t-43 -51.5v-398q0 -31 43.5 -51t128.5 -20h319z" />
    <glyph glyph-name="oneinferior" unicode="&#x2081;" horiz-adv-x="317" 
d="M250 784v-718q0 -39 -22.5 -54.5t-69.5 -15.5t-68.5 15t-21.5 55v718q0 40 21.5 55t68.5 15t69.5 -15.5t22.5 -54.5z" />
    <glyph glyph-name="twoinferior" unicode="&#x2082;" horiz-adv-x="1208" 
d="M795 342h-387q-164 0 -164 -72v-116h841q34 0 47 -17.5t13 -58.5q0 -40 -13 -59t-47 -19h-954q-70 0 -70 72v198q0 228 351 228h387q85 0 125.5 19t40.5 50v56q0 71 -166 71h-174q-36 0 -49 18.5t-13 59.5t13 59.5t49 18.5h170q350 0 350 -227v-56q0 -225 -350 -225z" />
    <glyph glyph-name="threeinferior" unicode="&#x2083;" horiz-adv-x="1185" 
d="M958 246q0 58 -32 80t-135 22h-670q-36 0 -48 18t-12 60t12 60t48 18h678q94 0 126.5 18.5t32.5 77.5q0 52 -31 73t-124 21h-170q-34 0 -47 19t-13 59t13 59t47 19h155q82 0 141.5 -11.5t108 -39t73 -78t24.5 -123.5q0 -123 -82 -176q46 -25 69 -65t23 -107
q0 -250 -348 -250h-678q-34 0 -47 19t-13 59q0 41 13 58.5t47 17.5h686q96 0 124.5 20.5t28.5 71.5z" />
    <glyph glyph-name="fourinferior" unicode="&#x2084;" horiz-adv-x="1273" 
d="M244 784v-413h780v413q0 39 22.5 54.5t69.5 15.5t68.5 -15t21.5 -55v-718q0 -40 -21.5 -55t-68.5 -15t-69.5 15.5t-22.5 54.5v151h-891q-32 0 -52 15t-20 47v505q0 39 23 54.5t70 15.5t68.5 -15t21.5 -55z" />
    <glyph glyph-name="fiveinferior" unicode="&#x2085;" horiz-adv-x="1212" 
d="M248 571h569q350 0 350 -225v-121q0 -225 -350 -225h-694q-34 0 -47 19t-13 59q0 41 13 58.5t47 17.5h698q164 0 164 71v121q0 32 -40 52t-124 20h-686q-33 0 -51 16.5t-18 46.5v297q0 72 69 72h498q34 0 46.5 -18.5t12.5 -59.5t-12.5 -59.5t-46.5 -18.5h-385v-123z" />
    <glyph glyph-name="sixinferior" unicode="&#x2086;" horiz-adv-x="1226" 
d="M831 0h-423q-351 0 -351 225v398q0 227 351 227h202q34 0 47 -19t13 -59t-13 -59t-47 -19h-198q-86 0 -129 -19.5t-43 -51.5v-50h591q349 0 349 -225v-123q0 -225 -349 -225zM825 154q86 0 130 20t44 51v123q0 32 -43.5 52t-130.5 20h-585v-195q0 -31 43.5 -51t128.5 -20
h413z" />
    <glyph glyph-name="seveninferior" unicode="&#x2087;" horiz-adv-x="1150" 
d="M94 850h881q70 0 105.5 -20t35.5 -70q0 -37 -26 -70l-568 -657q-32 -37 -90 -37q-86 0 -86 61q0 30 31 66l495 571h-778q-34 0 -46.5 18.5t-12.5 59.5t12.5 59.5t46.5 18.5z" />
    <glyph glyph-name="eightinferior" unicode="&#x2088;" horiz-adv-x="1134" 
d="M745 0h-356q-348 0 -348 250q0 125 94 174q-49 30 -66.5 70.5t-17.5 97.5q0 76 24 127.5t72 79.5t108 39.5t144 11.5h336q84 0 144 -11.5t108 -39.5t72 -79.5t24 -127.5q0 -57 -17.5 -97.5t-66.5 -70.5q45 -23 70 -62t25 -110q0 -61 -20 -106.5t-52 -72.5t-79 -44
t-94 -23t-104 -6zM227 246q0 -51 29 -71.5t125 -20.5h373q96 0 124.5 20.5t28.5 71.5q0 58 -33.5 80t-136.5 22h-340q-103 0 -136.5 -22t-33.5 -80zM752 694h-369q-92 0 -123 -21t-31 -73q0 -59 33 -77.5t127 -18.5h356q95 0 128.5 18.5t33.5 77.5q0 52 -31.5 73t-123.5 21z
" />
    <glyph glyph-name="nineinferior" unicode="&#x2089;" horiz-adv-x="1161" 
d="M397 850h357q350 0 350 -227v-398q0 -225 -350 -225h-160q-36 0 -47.5 18t-11.5 60q0 43 11.5 59.5t47.5 16.5h156q86 0 129 19.5t43 51.5v51h-525q-350 0 -350 226v121q0 227 350 227zM750 694h-349q-86 0 -129 -19.5t-43 -51.5v-121q0 -32 43 -52t129 -20h521v193
q0 32 -43 51.5t-129 19.5z" />
    <glyph glyph-name="uni20A4" unicode="&#x20a4;" horiz-adv-x="1716" 
d="M168 592h143v178h-141q-44 0 -59 24t-15 78q0 55 15.5 80t58.5 25h141v127q0 381 609 381h145q47 0 62.5 -26.5t15.5 -86.5q0 -58 -15.5 -83t-62.5 -25h-139q-171 0 -256.5 -44.5t-85.5 -115.5v-127h868q43 0 58.5 -25t15.5 -80q0 -54 -15 -78t-59 -24h-868v-178h868
q43 0 58.5 -25t15.5 -80q0 -54 -15 -78t-59 -24h-868v-164h966q47 0 63.5 -25.5t16.5 -84.5t-16.5 -85t-63.5 -26h-1446q-47 0 -63 25.5t-16 85.5q0 59 16 84.5t63 25.5h207v164h-143q-44 0 -59 24t-15 78q0 55 15.5 80t58.5 25z" />
    <glyph glyph-name="Euro" unicode="&#x20ac;" horiz-adv-x="1894" 
d="M1729 0h-904q-606 0 -606 381v57h-88q-47 0 -63.5 26t-16.5 85t16.5 84.5t63.5 25.5h88v189h-88q-47 0 -63.5 25.5t-16.5 84.5t16.5 85t63.5 26h88v35q0 381 606 381h901q47 0 63.5 -26t16.5 -85t-16.5 -84.5t-63.5 -25.5h-892q-172 0 -258.5 -44t-86.5 -116v-35h869
q47 0 63.5 -26t16.5 -85t-16.5 -84.5t-63.5 -25.5h-869v-189h525q47 0 63.5 -25.5t16.5 -84.5t-16.5 -85t-63.5 -26h-525v-57q0 -70 87 -115t258 -45h895q47 0 62 -25t15 -85q0 -59 -15 -85t-62 -26z" />
    <glyph glyph-name="uni20B9" unicode="&#x20b9;" horiz-adv-x="1796" 
d="M1657 862h-166v-49q0 -151 -162.5 -241.5t-439.5 -90.5h-113l469 -301q37 -25 51.5 -43t14.5 -49q0 -96 -121 -96q-76 0 -115 5t-65 23l-680 461q-64 43 -64 107q0 45 35 77.5t94 32.5h469q357 0 357 131v33h-1082q-47 0 -63.5 26t-16.5 85t16.5 84.5t63.5 25.5h1082v50
q0 131 -357 131h-725q-47 0 -63.5 25.5t-16.5 84.5t16.5 85t63.5 26h1518q47 0 63.5 -26t16.5 -85t-16.5 -84.5t-63.5 -25.5h-193q27 -59 27 -111v-70h166q47 0 63.5 -25.5t16.5 -84.5t-16.5 -85t-63.5 -26z" />
    <glyph glyph-name="uni20BA" unicode="&#x20ba;" horiz-adv-x="1867" 
d="M119 1063l110 45v289q0 56 32.5 76t103.5 20q72 0 104.5 -20t32.5 -76v-174l471 196q59 23 137 23q44 0 69 -18.5t25 -53.5q0 -55 -51 -74l-651 -272v-190l471 196q59 23 137 23q44 0 69 -18.5t25 -53.5q0 -55 -51 -74l-651 -272v-254q0 -71 85.5 -115.5t256.5 -44.5h880
q47 0 62.5 -25t15.5 -83q0 -60 -15.5 -86.5t-62.5 -26.5h-888q-607 0 -607 381v151q-20 -4 -69 -4q-42 0 -67 18.5t-25 53.5q0 55 51 74l110 45v203q-20 -4 -69 -4q-42 0 -67 18.5t-25 52.5q0 55 51 74z" />
    <glyph glyph-name="uni20BD" unicode="&#x20bd;" horiz-adv-x="2052" 
d="M1739 231h-1147v-143q0 -56 -32.5 -76t-104.5 -20q-71 0 -103.5 20t-32.5 76v143h-161q-45 0 -62.5 26.5t-17.5 84.5t17.5 84.5t62.5 26.5h161v174h-161q-46 0 -63 26t-17 84t17.5 84.5t62.5 26.5h161v543q0 94 97 94h956q277 0 439.5 -90.5t162.5 -241.5v-195
q0 -151 -162.5 -241t-439.5 -90h-780v-174h1147q47 0 64.5 -26t17.5 -85t-17.5 -85t-64.5 -26zM1348 1264h-756v-416h756q134 0 215.5 18t111 45.5t29.5 67.5v154q0 40 -29.5 67.5t-111 45.5t-215.5 18z" />
    <glyph glyph-name="uni2117" unicode="&#x2117;" 
d="M1675 1090v-695q0 -395 -469 -395h-641q-469 0 -469 395v695q0 395 469 395h641q469 0 469 -395zM225 410q0 -277 342 -277h637q342 0 342 277v665q0 277 -342 277h-637q-342 0 -342 -277v-665zM408 1096q0 49 49 49h612q146 0 231.5 -47.5t85.5 -126.5v-158
q0 -79 -85.5 -126.5t-231.5 -47.5h-518v-229q0 -30 -17.5 -41t-56.5 -11q-36 0 -52.5 11.5t-16.5 40.5v686zM1057 1028h-506v-272h506q188 0 188 69v133q0 70 -188 70z" />
    <glyph glyph-name="trademark" unicode="&#x2122;" horiz-adv-x="2285" 
d="M784 1354h-264v-701q0 -33 -19.5 -45t-62.5 -12t-62.5 12t-19.5 45v701h-264q-28 0 -37.5 14.5t-9.5 50.5q0 35 9.5 50.5t37.5 15.5h692q28 0 39 -16t11 -50q0 -35 -11 -50t-39 -15zM1546 780l443 660q30 43 96 43q90 0 90 -84v-746q0 -33 -19.5 -45t-62.5 -12t-62.5 12
t-19.5 45v543l-362 -553q-32 -47 -97 -47q-71 0 -102 47l-365 553v-543q0 -33 -19 -45t-62 -12t-62.5 12t-19.5 45v746q0 84 90 84q68 0 96 -43z" />
    <glyph glyph-name="onethird" unicode="&#x2153;" horiz-adv-x="1918" 
d="M412 1419v-719q0 -39 -23 -54t-70 -15t-68.5 15t-21.5 54v719q0 40 21.5 55t68.5 15t70 -15.5t23 -54.5zM1276 1370l-1014 -1339q-31 -39 -94 -39q-90 0 -90 63q0 23 28 62l1014 1339q29 37 94 37q91 0 91 -63q0 -23 -29 -60zM1655 246q0 58 -32.5 80t-135.5 22h-670
q-36 0 -47.5 18t-11.5 60t11.5 60t47.5 18h678q94 0 127 18.5t33 77.5q0 52 -31.5 73t-124.5 21h-170q-34 0 -46.5 18.5t-12.5 59.5t12.5 59.5t46.5 18.5h156q82 0 141.5 -11.5t107.5 -39t72.5 -78t24.5 -123.5q0 -123 -82 -176q46 -25 69 -65t23 -107q0 -250 -348 -250
h-678q-34 0 -46.5 18.5t-12.5 59.5t12.5 58.5t46.5 17.5h686q96 0 125 20.5t29 71.5z" />
    <glyph glyph-name="twothirds" unicode="&#x2154;" horiz-adv-x="2664" 
d="M811 977h-387q-164 0 -164 -72v-117h842q34 0 46.5 -17t12.5 -58t-12.5 -59.5t-46.5 -18.5h-955q-69 0 -69 72v198q0 228 350 228h387q85 0 125.5 19t40.5 50v55q0 72 -166 72h-174q-36 0 -48.5 18.5t-12.5 59.5t12.5 59.5t48.5 18.5h170q350 0 350 -228v-55
q0 -225 -350 -225zM2021 1370l-1013 -1339q-31 -39 -95 -39q-90 0 -90 63q0 21 29 62l1014 1339q29 37 94 37q46 0 68 -15t22 -48q0 -23 -29 -60zM2400 246q0 58 -32.5 80t-135.5 22h-669q-36 0 -48 18t-12 60t12 60t48 18h678q94 0 126.5 18.5t32.5 77.5q0 52 -31 73
t-124 21h-170q-34 0 -47 19t-13 59t13 59t47 19h155q82 0 141.5 -11.5t107.5 -39t72.5 -78t24.5 -123.5q0 -123 -82 -176q46 -25 69.5 -65t23.5 -107q0 -250 -349 -250h-677q-34 0 -47 19t-13 59q0 41 13 58.5t47 17.5h686q96 0 124.5 20.5t28.5 71.5z" />
    <glyph glyph-name="uni2155" unicode="&#x2155;" horiz-adv-x="2146" 
d="M412 1419v-719q0 -39 -23 -54t-70 -15t-68.5 15t-21.5 54v719q0 40 21.5 55t68.5 15t70 -15.5t23 -54.5zM1276 1370l-1014 -1339q-31 -39 -94 -39q-90 0 -90 63q0 23 28 62l1014 1339q29 37 94 37q91 0 91 -63q0 -23 -29 -60zM1149 571h569q350 0 350 -225v-121
q0 -225 -350 -225h-694q-34 0 -46.5 18.5t-12.5 59.5t12.5 58.5t46.5 17.5h698q164 0 164 71v121q0 32 -40 52t-124 20h-686q-33 0 -51 16.5t-18 46.5v297q0 72 69 72h498q34 0 46.5 -18.5t12.5 -59.5t-12.5 -59.5t-46.5 -18.5h-385v-123z" />
    <glyph glyph-name="uni2156" unicode="&#x2156;" horiz-adv-x="2891" 
d="M811 977h-387q-164 0 -164 -72v-117h842q34 0 46.5 -17t12.5 -58t-12.5 -59.5t-46.5 -18.5h-955q-69 0 -69 72v198q0 228 350 228h387q85 0 125.5 19t40.5 50v55q0 72 -166 72h-174q-36 0 -48.5 18.5t-12.5 59.5t12.5 59.5t48.5 18.5h170q350 0 350 -228v-55
q0 -225 -350 -225zM2021 1370l-1013 -1339q-31 -39 -95 -39q-90 0 -90 63q0 21 29 62l1014 1339q29 37 94 37q46 0 68 -15t22 -48q0 -23 -29 -60zM1894 571h570q350 0 350 -225v-121q0 -225 -350 -225h-695q-34 0 -46.5 18.5t-12.5 59.5t12.5 58.5t46.5 17.5h699
q164 0 164 71v121q0 32 -40 52t-124 20h-686q-33 0 -51.5 16.5t-18.5 46.5v297q0 72 70 72h497q34 0 47 -19t13 -59t-13 -59t-47 -19h-385v-123z" />
    <glyph glyph-name="uni2157" unicode="&#x2157;" horiz-adv-x="2830" 
d="M977 881q0 58 -32.5 80t-135.5 22h-670q-36 0 -47.5 18t-11.5 60t11.5 60t47.5 18h678q94 0 127 18.5t33 77.5q0 52 -31.5 73t-124.5 21h-170q-34 0 -46.5 18.5t-12.5 59.5t12.5 59.5t46.5 18.5h156q82 0 141.5 -11.5t107.5 -39t72.5 -78t24.5 -123.5q0 -123 -82 -176
q46 -25 69 -65t23 -107q0 -250 -348 -250h-678q-34 0 -46.5 18.5t-12.5 59.5t12.5 58t46.5 17h686q66 0 100 11t44 29t10 53zM1960 1370l-1014 -1339q-31 -39 -94 -39q-90 0 -90 63q0 21 29 62l1013 1339q29 37 94 37q91 0 91 -63q0 -23 -29 -60zM1833 571h569
q351 0 351 -225v-121q0 -225 -351 -225h-694q-34 0 -46.5 18.5t-12.5 59.5t12.5 58.5t46.5 17.5h698q164 0 164 71v121q0 32 -40 52t-124 20h-686q-33 0 -51 16.5t-18 46.5v297q0 72 69 72h498q34 0 46.5 -18.5t12.5 -59.5t-12.5 -59.5t-46.5 -18.5h-385v-123z" />
    <glyph glyph-name="uni2158" unicode="&#x2158;" horiz-adv-x="2957" 
d="M260 1419v-413h780v413q0 39 23 54.5t70 15.5t68.5 -15t21.5 -55v-719q0 -39 -21.5 -54t-68.5 -15t-70 15t-23 54v152h-890q-72 0 -72 61v506q0 39 22.5 54.5t69.5 15.5t68.5 -15t21.5 -55zM2087 1370l-1014 -1339q-31 -39 -94 -39q-90 0 -90 63q0 21 29 62l1013 1339
q29 37 94 37q91 0 91 -63q0 -23 -29 -60zM1960 571h569q350 0 350 -225v-121q0 -225 -350 -225h-694q-34 0 -46.5 18.5t-12.5 59.5t12.5 58.5t46.5 17.5h698q164 0 164 71v121q0 32 -40 52t-124 20h-686q-33 0 -51 16.5t-18 46.5v297q0 72 69 72h498q34 0 46.5 -18.5
t12.5 -59.5t-12.5 -59.5t-46.5 -18.5h-385v-123z" />
    <glyph glyph-name="uni2159" unicode="&#x2159;" horiz-adv-x="2117" 
d="M412 1419v-719q0 -39 -23 -54t-70 -15t-68.5 15t-21.5 54v719q0 40 21.5 55t68.5 15t70 -15.5t23 -54.5zM1276 1370l-1014 -1339q-31 -39 -94 -39q-90 0 -90 63q0 23 28 62l1014 1339q29 37 94 37q91 0 91 -63q0 -23 -29 -60zM1692 0h-424q-350 0 -350 225v398
q0 227 350 227h202q34 0 47 -19t13 -59t-13 -59t-47 -19h-198q-86 0 -129 -19.5t-43 -51.5v-50h592q348 0 348 -225v-123q0 -225 -348 -225zM1686 154q86 0 130 20t44 51v123q0 32 -43.5 52t-130.5 20h-586v-195q0 -31 43.5 -51t128.5 -20h414z" />
    <glyph glyph-name="uni215A" unicode="&#x215a;" horiz-adv-x="2803" 
d="M262 1206h569q351 0 351 -225v-121q0 -225 -351 -225h-694q-34 0 -46.5 18.5t-12.5 59.5t12.5 58t46.5 17h699q163 0 163 72v121q0 32 -39.5 52t-123.5 20h-686q-33 0 -51.5 16.5t-18.5 46.5v297q0 72 70 72h497q34 0 47 -19t13 -59t-13 -59t-47 -19h-385v-123z
M1962 1370l-1014 -1339q-31 -39 -94 -39q-90 0 -90 63q0 21 29 62l1013 1339q29 37 95 37q46 0 68 -15t22 -48q0 -23 -29 -60zM2378 0h-424q-350 0 -350 225v398q0 227 350 227h203q34 0 46.5 -18.5t12.5 -59.5t-12.5 -59.5t-46.5 -18.5h-199q-86 0 -129 -19.5t-43 -51.5
v-50h592q348 0 348 -225v-123q0 -225 -348 -225zM2372 154q86 0 130 20t44 51v123q0 32 -43.5 52t-130.5 20h-586v-195q0 -31 43.5 -51t128.5 -20h414z" />
    <glyph glyph-name="oneeighth" unicode="&#x215b;" horiz-adv-x="2031" 
d="M412 1419v-719q0 -39 -23 -54t-70 -15t-68.5 15t-21.5 54v719q0 40 21.5 55t68.5 15t70 -15.5t23 -54.5zM1276 1370l-1014 -1339q-31 -39 -94 -39q-90 0 -90 63q0 23 28 62l1014 1339q29 37 94 37q91 0 91 -63q0 -23 -29 -60zM1606 0h-357q-348 0 -348 250q0 125 94 174
q-49 30 -66.5 70.5t-17.5 97.5q0 76 24 127.5t72 79.5t108.5 39.5t144.5 11.5h335q84 0 144.5 -11.5t108.5 -39.5t72 -79.5t24 -127.5q0 -57 -17.5 -97.5t-66.5 -70.5q45 -23 69.5 -62t24.5 -110q0 -61 -20 -106.5t-51.5 -72.5t-78.5 -44t-94 -23t-104 -6zM1087 246
q0 -51 29 -71.5t125 -20.5h373q96 0 124.5 20.5t28.5 71.5q0 58 -33.5 80t-136.5 22h-340q-103 0 -136.5 -22t-33.5 -80zM1612 694h-369q-91 0 -122 -21t-31 -73q0 -59 32.5 -77.5t126.5 -18.5h357q95 0 128 18.5t33 77.5q0 52 -31.5 73t-123.5 21z" />
    <glyph glyph-name="threeeighths" unicode="&#x215c;" horiz-adv-x="2715" 
d="M977 881q0 58 -32.5 80t-135.5 22h-670q-36 0 -47.5 18t-11.5 60t11.5 60t47.5 18h678q94 0 127 18.5t33 77.5q0 52 -31.5 73t-124.5 21h-170q-34 0 -46.5 18.5t-12.5 59.5t12.5 59.5t46.5 18.5h156q82 0 141.5 -11.5t107.5 -39t72.5 -78t24.5 -123.5q0 -123 -82 -176
q46 -25 69 -65t23 -107q0 -250 -348 -250h-678q-34 0 -46.5 18.5t-12.5 59.5t12.5 58t46.5 17h686q66 0 100 11t44 29t10 53zM1960 1370l-1014 -1339q-31 -39 -94 -39q-90 0 -90 63q0 21 29 62l1013 1339q29 37 94 37q91 0 91 -63q0 -23 -29 -60zM2290 0h-357
q-348 0 -348 250q0 125 94 174q-49 30 -66.5 70.5t-17.5 97.5q0 76 24 127.5t72 79.5t108.5 39.5t144.5 11.5h335q84 0 144.5 -11.5t108.5 -39.5t72 -79.5t24 -127.5q0 -57 -17.5 -97.5t-66.5 -70.5q45 -23 69.5 -62t24.5 -110q0 -61 -20 -106.5t-51.5 -72.5t-78.5 -44
t-94 -23t-104 -6zM1772 246q0 -51 28.5 -71.5t124.5 -20.5h373q96 0 124.5 20.5t28.5 71.5q0 58 -33.5 80t-136.5 22h-339q-103 0 -136.5 -22t-33.5 -80zM2296 694h-369q-91 0 -122 -21t-31 -73q0 -59 32.5 -77.5t126.5 -18.5h357q95 0 128 18.5t33 77.5q0 52 -31.5 73
t-123.5 21z" />
    <glyph glyph-name="fiveeighths" unicode="&#x215d;" horiz-adv-x="2717" 
d="M262 1206h569q351 0 351 -225v-121q0 -225 -351 -225h-694q-34 0 -46.5 18.5t-12.5 59.5t12.5 58t46.5 17h699q163 0 163 72v121q0 32 -39.5 52t-123.5 20h-686q-33 0 -51.5 16.5t-18.5 46.5v297q0 72 70 72h497q34 0 47 -19t13 -59t-13 -59t-47 -19h-385v-123z
M1962 1370l-1014 -1339q-31 -39 -94 -39q-90 0 -90 63q0 21 29 62l1013 1339q29 37 95 37q46 0 68 -15t22 -48q0 -23 -29 -60zM2292 0h-357q-348 0 -348 250q0 125 94 174q-49 30 -66.5 70.5t-17.5 97.5q0 76 24 127.5t72 79.5t108.5 39.5t144.5 11.5h335q84 0 144.5 -11.5
t108.5 -39.5t72 -79.5t24 -127.5q0 -57 -17.5 -97.5t-66.5 -70.5q45 -23 69.5 -62t24.5 -110q0 -61 -20 -106.5t-51.5 -72.5t-78.5 -44t-94 -23t-104 -6zM1774 246q0 -51 28.5 -71.5t124.5 -20.5h373q96 0 125 20.5t29 71.5q0 58 -33.5 80t-136.5 22h-340q-103 0 -136.5 -22
t-33.5 -80zM2298 694h-369q-91 0 -122 -21t-31 -73q0 -59 32.5 -77.5t126.5 -18.5h357q95 0 128.5 18.5t33.5 77.5q0 52 -32 73t-124 21z" />
    <glyph glyph-name="seveneighths" unicode="&#x215e;" horiz-adv-x="2463" 
d="M137 1485h881q70 0 105.5 -20t35.5 -70q0 -37 -26 -70l-568 -657q-32 -37 -90 -37q-86 0 -86 61q0 30 31 66l495 571h-778q-34 0 -46.5 18.5t-12.5 59.5t12.5 59.5t46.5 18.5zM1708 1370l-1014 -1339q-31 -39 -94 -39q-90 0 -90 63q0 21 29 62l1013 1339q29 37 95 37
q46 0 68 -15t22 -48q0 -23 -29 -60zM2038 0h-357q-348 0 -348 250q0 125 94 174q-49 30 -66.5 70.5t-17.5 97.5q0 76 24 127.5t72 79.5t108.5 39.5t144.5 11.5h336q84 0 144 -11.5t108 -39.5t72 -79.5t24 -127.5q0 -57 -17.5 -97.5t-66.5 -70.5q45 -23 69.5 -62t24.5 -110
q0 -61 -20 -106.5t-51.5 -72.5t-78.5 -44t-94 -23t-104 -6zM1520 246q0 -51 28.5 -71.5t124.5 -20.5h373q96 0 125 20.5t29 71.5q0 58 -33.5 80t-136.5 22h-340q-103 0 -136.5 -22t-33.5 -80zM2044 694h-369q-91 0 -122 -21t-31 -73q0 -59 32.5 -77.5t126.5 -18.5h357
q95 0 128.5 18.5t33.5 77.5q0 52 -32 73t-124 21z" />
    <glyph glyph-name="partialdiff" unicode="&#x2202;" horiz-adv-x="1179" 
d="M922 610q22 107 22 209q0 73 -7 132t-16.5 103.5t-31 80t-39 59.5t-52.5 42.5t-59.5 29.5t-72.5 20t-78.5 13t-89.5 11q-6 1 -9 1q-67 8 -67 86q0 56 34.5 76t108.5 20q265 0 408 -174t143 -477q0 -127 -25 -249t-77 -231t-125.5 -191.5t-177 -130.5t-224.5 -48
q-204 0 -312.5 125t-108.5 317q0 212 127 353t337 141q92 0 165.5 -29t118.5 -77t71.5 -101t36.5 -111zM872 481q-17 130 -105.5 207.5t-219.5 77.5q-141 0 -227.5 -89t-86.5 -228q0 -124 70.5 -198.5t200.5 -74.5q256 0 368 305z" />
    <glyph glyph-name="product" unicode="&#x220f;" horiz-adv-x="1519" 
d="M1176 -324v1817h-834v-1817q0 -53 -30.5 -79.5t-84.5 -26.5q-55 0 -88 27t-33 79v1897q0 54 24.5 80t76.5 26h1104q52 0 76 -26t24 -80v-1897q0 -52 -33 -79t-88 -27q-54 0 -84 26.5t-30 79.5z" />
    <glyph glyph-name="summation" unicode="&#x2211;" horiz-adv-x="1210" 
d="M1077 -336h-930q-49 0 -73.5 20.5t-24.5 53.5q0 25 23 69l452 848l-393 656q-31 50 -31 98q0 33 22.5 54.5t65.5 21.5h881q64 0 64 -80q0 -82 -64 -82h-731l342 -600q20 -39 20 -78q-17 -71 -24 -88l-383 -737h784q60 0 60 -74q0 -82 -60 -82z" />
    <glyph glyph-name="minus" unicode="&#x2212;" horiz-adv-x="1247" 
d="M1083 623h-919q-50 0 -68 27.5t-18 90.5q0 62 18 89.5t68 27.5h919q50 0 68 -27.5t18 -89.5q0 -63 -18 -90.5t-68 -27.5z" />
    <glyph glyph-name="radical" unicode="&#x221a;" horiz-adv-x="1482" 
d="M690 252l514 1194q20 47 111 47q63 0 102 -20t39 -54q0 -11 -12 -39l-600 -1314q-36 -74 -154 -74q-117 0 -153 74l-271 557h-137q-50 0 -68 27.5t-18 90.5q0 62 18 89.5t68 27.5h231q41 0 63.5 -15t37.5 -52z" />
    <glyph glyph-name="infinity" unicode="&#x221e;" horiz-adv-x="1777" 
d="M887 594q-55 -119 -155 -190.5t-234 -71.5q-90 0 -163.5 21.5t-133.5 67t-93.5 126.5t-33.5 192q0 220 109 315t313 95q141 0 232.5 -65t154.5 -195q59 123 158 191.5t235 68.5q90 0 164.5 -22t134.5 -68t93.5 -126t33.5 -188q0 -218 -110 -315.5t-316 -97.5
q-140 0 -232.5 66t-156.5 196zM946 739q24 -92 94.5 -150.5t167.5 -58.5q122 0 178 50.5t56 158.5q0 109 -57.5 161t-176.5 52q-87 0 -158 -59t-104 -154zM829 743q-24 92 -94 150.5t-166 58.5q-121 0 -175 -51t-54 -160q0 -211 231 -211q84 0 156.5 59t101.5 154z" />
    <glyph glyph-name="integral" unicode="&#x222b;" horiz-adv-x="884" 
d="M559 1415v-1413q0 -182 -120.5 -307t-293.5 -125q-64 0 -92 21t-28 71q0 40 16 56.5t51 27.5t53.5 17.5t47.5 19.5t44.5 24.5t34.5 31t28.5 41.5t16.5 53t7 69v1413q0 182 120.5 307t292.5 125q64 0 92.5 -21t28.5 -71q0 -40 -16 -56.5t-51 -27.5t-53.5 -17.5
t-47.5 -19.5t-44.5 -24.5t-34.5 -31t-28.5 -41.5t-16.5 -53t-7 -69z" />
    <glyph glyph-name="approxequal" unicode="&#x2248;" horiz-adv-x="1247" 
d="M850 807q-69 0 -136 27t-110 59t-91.5 59t-84.5 27q-77 0 -149 -115q-20 -32 -39.5 -44.5t-69.5 -12.5q-48 0 -70 18t-22 72q0 82 46.5 147.5t118.5 99.5t152 34q66 0 131.5 -27t109 -59t93.5 -59t88 -27q85 0 152 114q14 23 23 33t29 17.5t54 7.5q50 0 72 -18.5
t22 -72.5q0 -123 -96 -201.5t-223 -78.5zM850 315q-69 0 -136 27t-110 59t-91.5 59t-84.5 27q-78 0 -149 -114q-14 -23 -23 -32.5t-30.5 -17.5t-55.5 -8q-48 0 -70 18.5t-22 72.5q0 122 96 201t221 79q66 0 131.5 -27t109 -59t93.5 -59t88 -27q84 0 152 115q20 33 38.5 45
t67.5 12q50 0 72 -18t22 -72q0 -123 -96 -202t-223 -79z" />
    <glyph glyph-name="notequal" unicode="&#x2260;" horiz-adv-x="1247" 
d="M1083 909h-204l-254 -338h458q50 0 68 -27t18 -89q0 -64 -18 -91.5t-68 -27.5h-637l-223 -299q-20 -25 -45 -35t-65 -10q-109 0 -109 76q0 25 35 71l147 197h-22q-50 0 -68 27.5t-18 91.5q0 62 18 89t68 27h198l254 338h-452q-50 0 -68 27.5t-18 91.5q0 62 18 89.5
t68 27.5h631l227 303q35 45 111 45q56 0 82 -18t26 -58q0 -26 -35 -71l-151 -201h28q50 0 68 -27.5t18 -89.5q0 -64 -18 -91.5t-68 -27.5z" />
    <glyph glyph-name="lessequal" unicode="&#x2264;" horiz-adv-x="1247" 
d="M76 829q0 51 14 75.5t43 35.5l752 326q60 26 151 26q67 0 98 -20t31 -68q0 -64 -61 -88l-713 -287l713 -286q61 -24 61 -88q0 -48 -31 -68t-98 -20q-91 0 -151 26l-752 326q-29 12 -43 35t-14 75zM1083 0h-919q-50 0 -68 27.5t-18 91.5q0 62 18 89.5t68 27.5h919
q50 0 68 -27.5t18 -89.5q0 -64 -18 -91.5t-68 -27.5z" />
    <glyph glyph-name="greaterequal" unicode="&#x2265;" horiz-adv-x="1247" 
d="M1165 829q0 -52 -14 -75t-43 -35l-752 -326q-60 -26 -151 -26q-67 0 -98 20t-31 68q0 64 61 88l713 286l-713 287q-61 24 -61 88q0 48 31 68t98 20q91 0 151 -26l752 -326q29 -11 43 -35.5t14 -75.5zM1083 0h-919q-50 0 -68 27.5t-18 91.5q0 62 18 89.5t68 27.5h919
q50 0 68 -27.5t18 -89.5q0 -64 -18 -91.5t-68 -27.5z" />
    <glyph glyph-name="lozenge" unicode="&#x25ca;" horiz-adv-x="1247" 
d="M1153 774q10 -20 10 -33t-10 -30l-377 -658q-35 -61 -153 -61q-119 0 -154 61l-377 658q-10 17 -10 30t10 33l377 658q35 61 154 61q118 0 153 -61zM623 1278l-281 -537l281 -534l278 534z" />
    <glyph glyph-name="Z.1" unicode="&#xe2aa;" horiz-adv-x="1818" 
d="M158 1485h1366q115 0 170 -31t55 -111q0 -62 -43 -96l-1266 -1026h1229q47 0 63.5 -25.5t16.5 -84.5t-16.5 -85t-63.5 -26h-1388q-116 0 -171 31t-55 110q0 60 43 97l1268 1026h-1208q-47 0 -63.5 25.5t-16.5 84.5t16.5 85t63.5 26z" />
    <glyph glyph-name="z.1" unicode="&#xe2ab;" 
d="M176 1157h1284q107 0 159 -29t52 -104q0 -65 -41 -90l-1114 -727h1104q44 0 60 -24.5t16 -78.5q0 -55 -16 -79.5t-60 -24.5h-1344q-107 0 -158.5 29t-51.5 104q0 65 40 90l1141 727h-1071q-43 0 -58.5 24t-15.5 79q0 56 15 80t59 24z" />
    <glyph glyph-name="Zcaron.1" unicode="&#xe2ac;" horiz-adv-x="1818" 
d="M950 1829l129 158q33 41 113 41q54 0 92.5 -20.5t38.5 -51.5q0 -20 -16 -39l-226 -266q-40 -49 -131 -49t-131 49l-225 266q-16 19 -16 39q0 31 38.5 51.5t92.5 20.5q79 0 112 -41zM158 1485h1366q115 0 170 -31t55 -111q0 -62 -43 -96l-1266 -1026h1229q47 0 63.5 -25.5
t16.5 -84.5t-16.5 -85t-63.5 -26h-1388q-116 0 -171 31t-55 110q0 60 43 97l1268 1026h-1208q-47 0 -63.5 25.5t-16.5 84.5t16.5 85t63.5 26z" />
    <glyph glyph-name="zcaron.1" unicode="&#xe2ad;" 
d="M926 1501l129 158q33 41 112 41q54 0 92.5 -20.5t38.5 -51.5q0 -20 -16 -39l-225 -266q-40 -49 -131 -49t-131 49l-226 266q-16 19 -16 39q0 31 38.5 51.5t92.5 20.5q80 0 113 -41zM176 1157h1284q107 0 159 -29t52 -104q0 -65 -41 -90l-1114 -727h1104q44 0 60 -24.5
t16 -78.5q0 -55 -16 -79.5t-60 -24.5h-1344q-107 0 -158.5 29t-51.5 104q0 65 40 90l1141 727h-1071q-43 0 -58.5 24t-15.5 79q0 56 15 80t59 24z" />
    <glyph glyph-name="Zacute.1" unicode="&#xe2ae;" horiz-adv-x="1818" 
d="M1358 1853l-416 -225q-53 -26 -154 -26q-44 0 -73 22.5t-29 63.5q0 55 62 88l415 225q55 27 154 27q44 0 73 -23.5t29 -65.5q0 -53 -61 -86zM158 1485h1366q115 0 170 -31t55 -111q0 -62 -43 -96l-1266 -1026h1229q47 0 63.5 -25.5t16.5 -84.5t-16.5 -85t-63.5 -26h-1388
q-116 0 -171 31t-55 110q0 60 43 97l1268 1026h-1208q-47 0 -63.5 25.5t-16.5 84.5t16.5 85t63.5 26z" />
    <glyph glyph-name="zacute.1" unicode="&#xe2af;" 
d="M1333 1526l-415 -226q-53 -26 -154 -26q-44 0 -73 22.5t-29 63.5q0 55 61 88l416 225q55 27 153 27q44 0 73.5 -23t29.5 -65q0 -53 -62 -86zM176 1157h1284q107 0 159 -29t52 -104q0 -65 -41 -90l-1114 -727h1104q44 0 60 -24.5t16 -78.5q0 -55 -16 -79.5t-60 -24.5
h-1344q-107 0 -158.5 29t-51.5 104q0 65 40 90l1141 727h-1071q-43 0 -58.5 24t-15.5 79q0 56 15 80t59 24z" />
    <glyph glyph-name="Zdotaccent.1" unicode="&#xe2b0;" horiz-adv-x="1818" 
d="M788 1755q0 66 38 96.5t124 30.5t124 -30.5t38 -96.5t-38 -96.5t-124 -30.5t-124 30.5t-38 96.5zM158 1485h1366q115 0 170 -31t55 -111q0 -62 -43 -96l-1266 -1026h1229q47 0 63.5 -25.5t16.5 -84.5t-16.5 -85t-63.5 -26h-1388q-116 0 -171 31t-55 110q0 60 43 97
l1268 1026h-1208q-47 0 -63.5 25.5t-16.5 84.5t16.5 85t63.5 26z" />
    <glyph glyph-name="zdotaccent.1" unicode="&#xe2b1;" 
d="M784 1427q0 66 38 96.5t124 30.5t124 -30.5t38 -96.5t-38 -96.5t-124 -30.5t-124 30.5t-38 96.5zM176 1157h1284q107 0 159 -29t52 -104q0 -65 -41 -90l-1114 -727h1104q44 0 60 -24.5t16 -78.5q0 -55 -16 -79.5t-60 -24.5h-1344q-107 0 -158.5 29t-51.5 104q0 65 40 90
l1141 727h-1071q-43 0 -58.5 24t-15.5 79q0 56 15 80t59 24z" />
    <glyph glyph-name="CR" horiz-adv-x="714" 
 />
    </font>
</defs>
</svg>
